<svg width="101" height="100" viewBox="0 0 101 100" fill="none" xmlns="http://www.w3.org/2000/svg">
<path d="M10.4258 38.957V49.9889V57.3435V83.0846C10.4258 87.1296 13.7184 90.4392 17.7804 90.4392H50.876H83.9717C88.0351 90.4392 91.3263 87.1296 91.3263 83.0846V57.3435V49.9889V38.957H10.4258Z" fill="#F39C12"/>
<path d="M10.4258 35.2793V46.3112V53.6658V79.4068C10.4258 83.4519 13.7184 86.7614 17.7804 86.7614H50.876H83.9717C88.0351 86.7614 91.3263 83.4519 91.3263 79.4068V53.6658V46.3112V35.2793H10.4258Z" fill="#EF4D4D"/>
<path d="M14.1046 27.9253C10.0427 27.9253 6.75 31.2349 6.75 35.2799V42.6345H95.0051V35.2799C95.0051 31.2349 91.7139 27.9253 87.6505 27.9253H80.2959H54.5548H47.2003H21.4592H14.1046Z" fill="#CB465F"/>
<path d="M61.9075 24.2476H39.8438V90.4389H61.9075V24.2476Z" fill="url(#paint0_linear_3131_9271)"/>
<path d="M35.745 9.53868C32.0729 9.17095 28.4886 11.0094 26.5227 13.9513C23.6633 18.364 25.3721 23.88 30.3251 26.4542C31.9177 27.5573 33.6236 27.9252 35.3405 27.9252H36.19H48.3258H53.4225H65.5539H66.4034C68.1207 27.9252 69.8674 27.5573 71.4597 26.4542C76.413 23.88 78.0825 18.364 75.2215 13.9513C72.3643 9.5385 66.0577 8.06749 61.1044 10.6416C59.5121 11.3771 58.2618 12.4803 57.3866 13.9513H57.3057C57.1881 14.319 57.0851 14.3193 56.9821 14.687L50.8742 23.8802L44.7662 14.687C44.6632 14.3193 44.5602 14.319 44.4426 13.9513H44.3617C43.4843 12.4803 42.2726 11.3771 40.6796 10.6416C39.1318 9.90614 37.4141 9.53868 35.745 9.53868ZM35.1383 13.9513C36.133 13.9513 37.1623 14.3193 38.0911 14.687C38.4026 14.687 38.6828 15.0546 38.9402 15.0546C39.1215 15.4224 39.2719 15.4222 39.4256 15.7899H39.547C39.6297 15.7899 39.7161 16.1575 39.7897 16.1575H39.911H39.9515C40.0103 16.5253 40.1023 16.5256 40.1537 16.5256L44.4426 23.1445H35.8664H35.381H35.1787H34.7742H34.572C34.3366 23.1445 34.1156 23.1446 33.8843 22.7769C33.5556 22.7769 33.2253 22.7769 32.9135 22.4092C32.2946 22.4092 31.7416 21.6736 31.3359 21.3058C30.1199 19.8349 29.94 17.9962 31.0123 16.1575C31.9059 15.0544 33.4802 13.9513 35.1383 13.9513ZM66.6461 13.9513C68.3045 13.9513 69.8784 15.0544 70.772 16.1575C71.8458 17.9962 71.6251 19.8349 70.4079 21.3058C70.0034 21.6736 69.4923 22.4092 68.8708 22.4092C68.5619 22.7769 68.231 22.7769 67.9 22.7769C67.672 23.1446 67.4073 23.1445 67.1719 23.1445H66.9697H66.5652H66.3629H65.8775H57.3057L61.5898 16.5256C61.6413 16.5256 61.7332 16.5253 61.792 16.1575H61.8325C61.8251 16.1575 61.8435 16.1575 61.8325 16.1575H61.9538C62.0274 16.1575 62.1156 15.7899 62.1965 15.7899H62.3179C62.4723 15.4222 62.6636 15.4224 62.8437 15.0546C63.1048 15.0546 63.3843 14.687 63.6932 14.687C64.6236 14.3193 65.6532 13.9513 66.6461 13.9513Z" fill="#C0392B"/>
<path d="M35.745 9.53868C32.0729 9.17095 28.4886 11.0094 26.5227 13.9513C23.6633 18.364 25.3721 23.88 30.3251 26.4542C31.9177 27.5573 33.6236 27.9252 35.3405 27.9252H36.19H48.3258H53.4225H65.5539H66.4034C68.1207 27.9252 69.8674 27.5573 71.4597 26.4542C76.413 23.88 78.0825 18.364 75.2215 13.9513C72.3643 9.5385 66.0577 8.06749 61.1044 10.6416C59.5121 11.3771 58.2618 12.4803 57.3866 13.9513H57.3057C57.1881 14.319 57.0851 14.3193 56.9821 14.687L50.8742 23.8802L44.7662 14.687C44.6632 14.3193 44.5602 14.319 44.4426 13.9513H44.3617C43.4843 12.4803 42.2726 11.3771 40.6796 10.6416C39.1318 9.90614 37.4141 9.53868 35.745 9.53868ZM35.1383 13.9513C36.133 13.9513 37.1623 14.3193 38.0911 14.687C38.4026 14.687 38.6828 15.0546 38.9402 15.0546C39.1215 15.4224 39.2719 15.4222 39.4256 15.7899H39.547C39.6297 15.7899 39.7161 16.1575 39.7897 16.1575H39.911H39.9515C40.0103 16.5253 40.1023 16.5256 40.1537 16.5256L44.4426 23.1445H35.8664H35.381H35.1787H34.7742H34.572C34.3366 23.1445 34.1156 23.1446 33.8843 22.7769C33.5556 22.7769 33.2253 22.7769 32.9135 22.4092C32.2946 22.4092 31.7416 21.6736 31.3359 21.3058C30.1199 19.8349 29.94 17.9962 31.0123 16.1575C31.9059 15.0544 33.4802 13.9513 35.1383 13.9513ZM66.6461 13.9513C68.3045 13.9513 69.8784 15.0544 70.772 16.1575C71.8458 17.9962 71.6251 19.8349 70.4079 21.3058C70.0034 21.6736 69.4923 22.4092 68.8708 22.4092C68.5619 22.7769 68.231 22.7769 67.9 22.7769C67.672 23.1446 67.4073 23.1445 67.1719 23.1445H66.9697H66.5652H66.3629H65.8775H57.3057L61.5898 16.5256C61.6413 16.5256 61.7332 16.5253 61.792 16.1575H61.8325C61.8251 16.1575 61.8435 16.1575 61.8325 16.1575H61.9538C62.0274 16.1575 62.1156 15.7899 62.1965 15.7899H62.3179C62.4723 15.4222 62.6636 15.4224 62.8437 15.0546C63.1048 15.0546 63.3843 14.687 63.6932 14.687C64.6236 14.3193 65.6532 13.9513 66.6461 13.9513Z" fill="url(#paint1_linear_3131_9271)"/>
<path d="M91.3263 42.6348H10.4258V53.6667H91.3263V42.6348Z" fill="#EF4D4D"/>
<path d="M61.9075 86.7627H39.8438V90.44H61.9075V86.7627Z" fill="#EF4D4D"/>
<path d="M39.8441 42.6348H10.4258V46.3121H39.8441V42.6348Z" fill="#F6C511"/>
<path d="M91.3285 42.6348H61.9102V46.3121H91.3285V42.6348Z" fill="#F6C511"/>
<defs>
<linearGradient id="paint0_linear_3131_9271" x1="60.6284" y1="42.8731" x2="38.1917" y2="45.3734" gradientUnits="userSpaceOnUse">
<stop stop-color="#FBC33E"/>
<stop offset="0.0995261" stop-color="#F6E343"/>
<stop offset="0.494792" stop-color="#FFCC50"/>
<stop offset="1" stop-color="#F94E3E"/>
</linearGradient>
<linearGradient id="paint1_linear_3131_9271" x1="73.634" y1="14.5948" x2="45.1505" y2="41.0216" gradientUnits="userSpaceOnUse">
<stop stop-color="#FBC33E"/>
<stop offset="0.0995261" stop-color="#F6E343"/>
<stop offset="0.494792" stop-color="#FFCC50"/>
<stop offset="1" stop-color="#F94E3E"/>
</linearGradient>
</defs>
</svg>
