<svg width="24" height="24" viewBox="0 0 24 24" fill="none" xmlns="http://www.w3.org/2000/svg">
<path d="M23.7044 1.29715C23.5074 1.10011 23.2721 1.0016 23.0039 1.0016C22.7357 1.0016 22.5003 1.10011 22.3033 1.29715L20.2727 3.31129C19.1562 2.26043 17.881 1.44493 16.447 0.864766C15.0021 0.29008 13.5243 0 12.0027 0C9.14025 0 6.639 0.864766 4.50445 2.59977C2.3699 4.33478 0.963284 6.59521 0.284607 9.38655V9.49601C0.284607 9.63284 0.333865 9.74778 0.432383 9.84629C0.530901 9.94481 0.645838 9.99407 0.782668 9.99407H3.89145C4.12132 9.99407 4.27457 9.87366 4.36214 9.63284C4.8 8.59293 5.07366 7.97993 5.1886 7.80479C5.91653 6.6171 6.88529 5.68666 8.09487 5.00798C9.30445 4.3293 10.6071 3.98997 12.0027 3.98997C14.099 3.98997 15.9161 4.70148 17.454 6.12999L15.2976 8.28643C15.1006 8.48347 15.0021 8.71881 15.0021 8.99247C15.0021 9.26066 15.1006 9.49601 15.2976 9.69304C15.4946 9.89008 15.73 9.9886 16.0036 9.9886H23.0039C23.2721 9.9886 23.5074 9.89008 23.7044 9.69304C23.9015 9.49601 24 9.26066 24 8.99247V1.99772C24 1.72953 23.9015 1.49418 23.7044 1.29715ZM23.1133 14.0005H20.114C19.8841 14.0005 19.7309 14.1209 19.6433 14.3617C19.2055 15.4016 18.9318 16.0146 18.8169 16.1897C18.0889 17.3774 17.1202 18.3079 15.9106 18.9865C14.701 19.6652 13.3984 20.0046 12.0027 20.0046C10.9902 20.0046 10.016 19.8185 9.08004 19.4408C8.14413 19.0632 7.30125 18.5323 6.56237 17.8481L8.70239 15.7081C8.89943 15.5111 8.99795 15.2757 8.99795 15.0075C8.99795 14.7393 8.89943 14.504 8.70239 14.307C8.50536 14.1099 8.27001 14.0114 8.00182 14.0114H1.0016C0.727936 14.0114 0.498062 14.1099 0.295553 14.307C0.0985177 14.504 0 14.7393 0 15.0075V22.0023C0 22.2705 0.0985177 22.5058 0.295553 22.7028C0.492588 22.8999 0.727936 22.9984 1.0016 22.9984C1.26978 22.9984 1.50513 22.8999 1.70217 22.7028L3.72178 20.6887C4.83831 21.7505 6.10262 22.5715 7.52566 23.1407C8.94869 23.7154 10.421 24 11.9425 24C14.7995 24 17.2844 23.1352 19.4135 21.4002C21.5371 19.6652 22.9327 17.4048 23.6005 14.6135C23.6114 14.5916 23.6169 14.5587 23.6169 14.504C23.6169 14.3672 23.5676 14.2522 23.4691 14.1537C23.3651 14.0497 23.2447 14.0005 23.1133 14.0005Z" fill="#090909"/>
</svg>
