<svg width="16" height="16" viewBox="0 0 16 16" fill="none" xmlns="http://www.w3.org/2000/svg">
    <path d="M7.19986 14.7334C7.00653 14.7334 6.8132 14.7001 6.6332 14.6334C5.79986 14.3601 5.26653 13.4401 5.4532 12.5867L5.77986 10.4867C5.78653 10.4401 5.78653 10.3734 5.73986 10.3201C5.70653 10.2867 5.65986 10.2667 5.60653 10.2667H2.93986C2.28653 10.2667 1.71986 9.99339 1.38653 9.52006C1.05986 9.06006 0.993196 8.45339 1.20653 7.86672L2.79986 3.01339C3.04653 2.04672 4.07986 1.26672 5.14653 1.26672H7.67986C8.0532 1.26672 8.86653 1.38006 9.29986 1.81339L11.3199 3.37339L10.7065 4.16672L8.63986 2.56672C8.4732 2.40006 8.0532 2.26672 7.67986 2.26672H5.14653C4.54653 2.26672 3.89986 2.74672 3.76653 3.28672L2.1532 8.18672C2.04653 8.48006 2.06653 8.74672 2.20653 8.94006C2.3532 9.14672 2.61986 9.26672 2.94653 9.26672H5.6132C5.95986 9.26672 6.27986 9.41339 6.49986 9.66672C6.72653 9.92672 6.82653 10.2734 6.7732 10.6334L6.43986 12.7734C6.35986 13.1467 6.6132 13.5667 6.9732 13.6867C7.2932 13.8067 7.71986 13.6334 7.86653 13.4201L10.5999 9.35339L11.4265 9.91339L8.6932 13.9801C8.37986 14.4467 7.78653 14.7334 7.19986 14.7334Z"
          fill="#333333"/>
    <path d="M13.0801 12.0667H12.4134C11.1801 12.0667 10.5801 11.4867 10.5801 10.3V3.76667C10.5801 2.58 11.1801 2 12.4134 2H13.0801C14.3134 2 14.9134 2.58 14.9134 3.76667V10.3C14.9134 11.4867 14.3134 12.0667 13.0801 12.0667ZM12.4134 3C11.6867 3 11.5801 3.17333 11.5801 3.76667V10.3C11.5801 10.8933 11.6867 11.0667 12.4134 11.0667H13.0801C13.8067 11.0667 13.9134 10.8933 13.9134 10.3V3.76667C13.9134 3.17333 13.8067 3 13.0801 3H12.4134Z"
          fill="#333333"/>
</svg>
