<svg width="16" height="16" viewBox="0 0 16 16" fill="none" xmlns="http://www.w3.org/2000/svg">
<path d="M7.1984 14.7333C7.00506 14.7333 6.81173 14.7 6.63173 14.6333C5.7984 14.36 5.26506 13.44 5.45173 12.5867L5.7784 10.4867C5.78506 10.44 5.78506 10.3733 5.7384 10.32C5.70506 10.2867 5.6584 10.2667 5.60506 10.2667H2.9384C2.28506 10.2667 1.7184 9.99333 1.38506 9.52C1.0584 9.06 0.991732 8.45333 1.20506 7.86666L2.7984 3.01333C3.04506 2.04666 4.0784 1.26666 5.14506 1.26666H7.6784C8.05173 1.26666 8.86506 1.38 9.2984 1.81333L11.3184 3.37333L10.7051 4.16666L8.6384 2.56666C8.47173 2.4 8.05173 2.26666 7.6784 2.26666H5.14506C4.54506 2.26666 3.8984 2.74666 3.76506 3.28666L2.15173 8.18666C2.04506 8.48 2.06506 8.74666 2.20506 8.94C2.35173 9.14666 2.6184 9.26666 2.94506 9.26666H5.61173C5.9584 9.26666 6.2784 9.41333 6.4984 9.66666C6.72506 9.92666 6.82506 10.2733 6.77173 10.6333L6.4384 12.7733C6.3584 13.1467 6.61173 13.5667 6.97173 13.6867C7.29173 13.8067 7.7184 13.6333 7.86506 13.42L10.5984 9.35333L11.4251 9.91333L8.69173 13.98C8.3784 14.4467 7.78506 14.7333 7.1984 14.7333Z" fill="#333333"/>
<path d="M13.0781 12.0667H12.4115C11.1781 12.0667 10.5781 11.4867 10.5781 10.3V3.76667C10.5781 2.58 11.1781 2 12.4115 2H13.0781C14.3115 2 14.9115 2.58 14.9115 3.76667V10.3C14.9115 11.4867 14.3115 12.0667 13.0781 12.0667ZM12.4115 3C11.6848 3 11.5781 3.17333 11.5781 3.76667V10.3C11.5781 10.8933 11.6848 11.0667 12.4115 11.0667H13.0781C13.8048 11.0667 13.9115 10.8933 13.9115 10.3V3.76667C13.9115 3.17333 13.8048 3 13.0781 3H12.4115Z" fill="#333333"/>
</svg>
