<svg width="32" height="32" viewBox="0 0 32 32" fill="none" xmlns="http://www.w3.org/2000/svg">
<path d="M10 30C8.67392 30 7.40215 29.4732 6.46447 28.5355C5.52678 27.5979 5 26.3261 5 25V7C5 5.67392 5.52678 4.40215 6.46447 3.46447C7.40215 2.52678 8.67392 2 10 2H20.171C20.5651 1.99995 20.9554 2.07756 21.3195 2.22838C21.6836 2.3792 22.0144 2.60029 22.293 2.879L26.121 6.707C26.3997 6.98563 26.6208 7.31645 26.7716 7.68055C26.9224 8.04465 27 8.4349 27 8.829V25C27 26.3261 26.4732 27.5979 25.5355 28.5355C24.5979 29.4732 23.3261 30 22 30H10Z" fill="#EAEFF0"/>
<path d="M10 30C8.67392 30 7.40215 29.4732 6.46447 28.5355C5.52678 27.5979 5 26.3261 5 25V7C5 5.67392 5.52678 4.40215 6.46447 3.46447C7.40215 2.52678 8.67392 2 10 2H20.171C20.5651 1.99995 20.9554 2.07756 21.3195 2.22838C21.6836 2.3792 22.0144 2.60029 22.293 2.879L26.121 6.707C26.3997 6.98563 26.6208 7.31645 26.7716 7.68055C26.9224 8.04465 27 8.4349 27 8.829V25C27 26.3261 26.4732 27.5979 25.5355 28.5355C24.5979 29.4732 23.3261 30 22 30H10Z" fill="#EAEFF0"/>
<path d="M21.0006 25C20.8268 25.0003 20.6561 24.9547 20.5056 24.868C20.2754 24.7364 20.1069 24.5188 20.0372 24.263C19.9674 24.0072 20.0021 23.7342 20.1336 23.504L28.1336 9.50398C28.197 9.3867 28.2832 9.28327 28.3871 9.19979C28.491 9.1163 28.6106 9.05445 28.7388 9.01785C28.867 8.98125 29.0012 8.97066 29.1336 8.98669C29.2659 9.00272 29.3937 9.04505 29.5095 9.11119C29.6252 9.17733 29.7266 9.26595 29.8076 9.37183C29.8886 9.47771 29.9476 9.59873 29.9811 9.72775C30.0147 9.85677 30.0221 9.9912 30.0029 10.1231C29.9838 10.2551 29.9384 10.3818 29.8696 10.496L21.8696 24.496C21.7821 24.6492 21.6556 24.7765 21.503 24.865C21.3503 24.9535 21.177 25.0001 21.0006 25Z" fill="#2D4A60"/>
<path d="M26.121 6.70698L22.293 2.87898C21.9322 2.52427 21.4873 2.2669 21 2.13098V5.99998C21 6.53041 21.2107 7.03912 21.5858 7.4142C21.9609 7.78927 22.4696 7.99998 23 7.99998H26.869C26.7331 7.51264 26.4757 7.06775 26.121 6.70698Z" fill="#D9E1E2"/>
<path d="M10 10H16C16.2652 10 16.5196 9.89464 16.7071 9.70711C16.8946 9.51957 17 9.26522 17 9C17 8.73478 16.8946 8.48043 16.7071 8.29289C16.5196 8.10536 16.2652 8 16 8H10C9.73478 8 9.48043 8.10536 9.29289 8.29289C9.10536 8.48043 9 8.73478 9 9C9 9.26522 9.10536 9.51957 9.29289 9.70711C9.48043 9.89464 9.73478 10 10 10Z" fill="#8FA5A5"/>
<path d="M10 14H20C20.2652 14 20.5196 13.8946 20.7071 13.7071C20.8946 13.5196 21 13.2652 21 13C21 12.7348 20.8946 12.4804 20.7071 12.2929C20.5196 12.1054 20.2652 12 20 12H10C9.73478 12 9.48043 12.1054 9.29289 12.2929C9.10536 12.4804 9 12.7348 9 13C9 13.2652 9.10536 13.5196 9.29289 13.7071C9.48043 13.8946 9.73478 14 10 14Z" fill="#8FA5A5"/>
<path d="M21 17C21 16.7348 20.8946 16.4804 20.7071 16.2929C20.5196 16.1054 20.2652 16 20 16H10C9.73478 16 9.48043 16.1054 9.29289 16.2929C9.10536 16.4804 9 16.7348 9 17C9 17.2652 9.10536 17.5196 9.29289 17.7071C9.48043 17.8946 9.73478 18 10 18H20C20.2652 18 20.5196 17.8946 20.7071 17.7071C20.8946 17.5196 21 17.2652 21 17Z" fill="#8FA5A5"/>
<path d="M16.3 22.29C15.967 22.6228 15.5537 22.864 15.1 22.99C15 22.922 14.849 22.781 14.74 22.683C14.4578 22.3571 14.1064 22.0982 13.7114 21.9252C13.3165 21.7522 12.888 21.6695 12.457 21.683C11.9708 21.7928 11.5144 22.0075 11.1197 22.312C10.725 22.6165 10.4016 23.0035 10.172 23.446C10.0991 23.5553 10.0485 23.6778 10.023 23.8066C9.99745 23.9355 9.99755 24.0681 10.0233 24.1969C10.049 24.3257 10.0998 24.4481 10.1729 24.5573C10.2459 24.6664 10.3398 24.7601 10.449 24.833C10.5583 24.9059 10.6808 24.9565 10.8097 24.9821C10.9385 25.0076 11.0711 25.0075 11.1999 24.9818C11.46 24.9298 11.6888 24.7767 11.836 24.556C12.397 23.715 12.699 23.668 12.702 23.668C12.827 23.647 13.212 23.999 13.396 24.168C13.8038 24.6413 14.3783 24.9393 15 25C16.0262 24.9001 16.9844 24.4424 17.707 23.707C17.878 23.5171 17.9699 23.2689 17.9636 23.0135C17.9574 22.758 17.8536 22.5146 17.6735 22.3332C17.4935 22.1519 17.2508 22.0464 16.9954 22.0383C16.74 22.0303 16.4911 22.1203 16.3 22.29Z" fill="#8FA5A5"/>
</svg>
