<svg width="41" height="40" viewBox="0 0 41 40" fill="none" xmlns="http://www.w3.org/2000/svg">
<path d="M15.5001 29.5835C14.8167 29.5835 14.2501 29.0168 14.2501 28.3335V21.3501L13.0501 22.5501C12.5667 23.0335 11.7667 23.0335 11.2834 22.5501C10.8001 22.0668 10.8001 21.2668 11.2834 20.7835L14.6167 17.4501C14.9667 17.1001 15.5167 16.9835 15.9834 17.1835C16.4501 17.3668 16.7501 17.8335 16.7501 18.3335V28.3335C16.7501 29.0168 16.1834 29.5835 15.5001 29.5835Z" fill="#A3ABB8"/>
<path d="M18.8333 22.9171C18.5166 22.9171 18.2 22.8004 17.95 22.5504L14.6167 19.2171C14.1333 18.7337 14.1333 17.9337 14.6167 17.4504C15.1 16.9671 15.9 16.9671 16.3833 17.4504L19.7166 20.7837C20.2 21.2671 20.2 22.0671 19.7166 22.5504C19.4666 22.8004 19.15 22.9171 18.8333 22.9171Z" fill="#A3ABB8"/>
<path d="M25.4999 37.9163H15.4999C6.44992 37.9163 2.58325 34.0497 2.58325 24.9997V14.9997C2.58325 5.94967 6.44992 2.08301 15.4999 2.08301H23.8333C24.5166 2.08301 25.0833 2.64967 25.0833 3.33301C25.0833 4.01634 24.5166 4.58301 23.8333 4.58301H15.4999C7.81659 4.58301 5.08325 7.31634 5.08325 14.9997V24.9997C5.08325 32.683 7.81659 35.4163 15.4999 35.4163H25.4999C33.1833 35.4163 35.9166 32.683 35.9166 24.9997V16.6663C35.9166 15.983 36.4833 15.4163 37.1666 15.4163C37.8499 15.4163 38.4166 15.983 38.4166 16.6663V24.9997C38.4166 34.0497 34.5499 37.9163 25.4999 37.9163Z" fill="#A3ABB8"/>
<path d="M37.1666 17.9168H30.4999C24.7999 17.9168 22.5833 15.7001 22.5833 10.0001V3.33348C22.5833 2.83348 22.8833 2.36681 23.3499 2.18348C23.8166 1.98348 24.3499 2.10014 24.7166 2.45014L38.0499 15.7835C38.3999 16.1335 38.5166 16.6835 38.3166 17.1501C38.1166 17.6168 37.6666 17.9168 37.1666 17.9168ZM25.0833 6.35014V10.0001C25.0833 14.3001 26.1999 15.4168 30.4999 15.4168H34.1499L25.0833 6.35014Z" fill="#A3ABB8"/>
</svg>
