<svg width="100" height="100" viewBox="0 0 100 100" fill="none" xmlns="http://www.w3.org/2000/svg">
<path d="M100 69.8276H13.7932V25H100V69.8276ZM17.2415 66.3793H96.5518V28.4483H17.2415V66.3793Z" fill="#BDC3C7"/>
<path d="M15.5174 81.8971C14.5639 81.8971 13.7932 81.1264 13.7932 80.173V68.104C13.7932 67.1506 14.5639 66.3799 15.5174 66.3799C16.4708 66.3799 17.2415 67.1506 17.2415 68.104V80.173C17.2415 81.1264 16.4708 81.8971 15.5174 81.8971Z" fill="#BDC3C7"/>
<path d="M32.7586 95.6896C36.5675 95.6896 39.6552 92.6019 39.6552 88.793C39.6552 84.9842 36.5675 81.8965 32.7586 81.8965C28.9498 81.8965 25.8621 84.9842 25.8621 88.793C25.8621 92.6019 28.9498 95.6896 32.7586 95.6896Z" fill="#556080"/>
<path d="M74.138 95.6896C77.9469 95.6896 81.0346 92.6019 81.0346 88.793C81.0346 84.9842 77.9469 81.8965 74.138 81.8965C70.3291 81.8965 67.2415 84.9842 67.2415 88.793C67.2415 92.6019 70.3291 95.6896 74.138 95.6896Z" fill="#556080"/>
<path d="M89.6553 81.8965H15.5174C14.5639 81.8965 13.7932 81.1258 13.7932 80.1724C13.7932 79.2189 14.5639 78.4482 15.5174 78.4482H89.6553C90.6087 78.4482 91.3794 79.2189 91.3794 80.1724C91.3794 81.1258 90.6087 81.8965 89.6553 81.8965Z" fill="#BDC3C7"/>
<path d="M56.8965 49.1381C69.2753 49.1381 79.3103 39.1031 79.3103 26.7243C79.3103 14.3455 69.2753 4.31055 56.8965 4.31055C44.5177 4.31055 34.4827 14.3455 34.4827 26.7243C34.4827 39.1031 44.5177 49.1381 56.8965 49.1381Z" fill="#D25627"/>
<path d="M47.143 38.2017C46.7016 38.2017 46.2603 38.0327 45.9241 37.6965C45.2499 37.0224 45.2499 35.9327 45.9241 35.2586L65.431 15.7517C66.1051 15.0776 67.1947 15.0776 67.8689 15.7517C68.543 16.4258 68.543 17.5155 67.8689 18.1896L48.362 37.6965C48.0241 38.0345 47.5844 38.2017 47.143 38.2017Z" fill="white"/>
<path d="M66.6499 38.2017C66.2085 38.2017 65.7672 38.0327 65.431 37.6965L45.9241 18.1896C45.2499 17.5155 45.2499 16.4258 45.9241 15.7517C46.5982 15.0776 47.6879 15.0776 48.362 15.7517L67.8689 35.2586C68.543 35.9327 68.543 37.0224 67.8689 37.6965C67.5327 38.0345 67.0913 38.2017 66.6499 38.2017Z" fill="white"/>
<path d="M15.5172 12.9317H6.8965C5.94305 12.9317 5.17236 12.161 5.17236 11.2075C5.17236 10.2541 5.94305 9.4834 6.8965 9.4834H15.5172C16.4706 9.4834 17.2413 10.2541 17.2413 11.2075C17.2413 12.161 16.4706 12.9317 15.5172 12.9317Z" fill="#BDC3C7"/>
<path d="M15.5174 28.4489C14.5639 28.4489 13.7932 27.6782 13.7932 26.7248V11.2075C13.7932 10.2541 14.5639 9.4834 15.5174 9.4834C16.4708 9.4834 17.2415 10.2541 17.2415 11.2075V26.7248C17.2415 27.6782 16.4708 28.4489 15.5174 28.4489Z" fill="#BDC3C7"/>
<path d="M5.17241 16.38C8.02906 16.38 10.3448 14.0642 10.3448 11.2076C10.3448 8.35092 8.02906 6.03516 5.17241 6.03516C2.31577 6.03516 0 8.35092 0 11.2076C0 14.0642 2.31577 16.38 5.17241 16.38Z" fill="#D8625E"/>
</svg>
