<svg width="24" height="24" viewBox="0 0 24 24" fill="none" xmlns="http://www.w3.org/2000/svg">
<path d="M11.9532 24.012C18.2037 24.012 23.2707 18.9449 23.2707 12.6945C23.2707 6.44397 18.2037 1.37695 11.9532 1.37695C5.70276 1.37695 0.635742 6.44397 0.635742 12.6945C0.635742 18.9449 5.70276 24.012 11.9532 24.012Z" fill="#E18A04"/>
<path d="M15.9358 21.9828C21.7862 19.7826 24.7453 13.2562 22.5451 7.4058C20.3449 1.55536 13.8186 -1.40374 7.96816 0.796457C2.11772 2.99666 -0.841384 9.52299 1.35882 15.3734C3.55902 21.2239 10.0854 24.183 15.9358 21.9828Z" fill="#F1C411"/>
<path d="M11.9532 0.673828C9.71486 0.673828 7.52673 1.33759 5.66558 2.58117C3.80443 3.82475 2.35384 5.59231 1.49724 7.66031C0.640646 9.72831 0.416522 12.0039 0.85321 14.1993C1.2899 16.3946 2.36779 18.4112 3.95057 19.994C5.53335 21.5768 7.54993 22.6547 9.74531 23.0914C11.9407 23.5281 14.2163 23.3039 16.2843 22.4473C18.3523 21.5907 20.1198 20.1401 21.3634 18.279C22.607 16.4178 23.2707 14.2297 23.2707 11.9913C23.271 10.505 22.9784 9.03323 22.4098 7.66002C21.8411 6.2868 21.0075 5.03907 19.9565 3.9881C18.9055 2.93712 17.6578 2.10349 16.2846 1.53482C14.9113 0.96615 13.4396 0.673582 11.9532 0.673828ZM11.9532 21.942C9.98475 21.942 8.06046 21.3582 6.42374 20.2645C4.78702 19.1708 3.51138 17.6164 2.75816 15.7977C2.00493 13.979 1.80795 11.9778 2.19212 10.0471C2.57629 8.11648 3.52436 6.34312 4.91643 4.95131C6.3085 3.5595 8.08204 2.61177 10.0128 2.22796C11.9435 1.84415 13.9447 2.04151 15.7632 2.79508C17.5818 3.54865 19.136 4.82458 20.2294 6.4615C21.3227 8.09843 21.9061 10.0228 21.9057 11.9913C21.9053 14.6306 20.8565 17.1615 18.9901 19.0276C17.1237 20.8936 14.5925 21.942 11.9532 21.942Z" fill="#E18A04"/>
<path d="M11.9532 0.0703127C9.71486 0.0703127 7.52673 0.734072 5.66558 1.97766C3.80443 3.22124 2.35384 4.98879 1.49724 7.05679C0.640646 9.12479 0.416522 11.4004 0.85321 13.5957C1.2899 15.7911 2.36779 17.8077 3.95057 19.3905C5.53335 20.9733 7.54993 22.0512 9.74531 22.4879C11.9407 22.9245 14.2163 22.7004 16.2843 21.8438C18.3523 20.9872 20.1198 19.5366 21.3634 17.6755C22.607 15.8143 23.2707 13.6262 23.2707 11.3878C23.271 9.90151 22.9784 8.42972 22.4098 7.0565C21.8411 5.68329 21.0075 4.43556 19.9565 3.38458C18.9055 2.33361 17.6578 1.49997 16.2846 0.931304C14.9113 0.362634 13.4396 0.0700664 11.9532 0.0703127ZM11.9532 21.3403C9.98483 21.3403 8.06061 20.7566 6.42393 19.663C4.78725 18.5694 3.51162 17.0151 2.75834 15.1965C2.00506 13.3779 1.80796 11.3768 2.19198 9.44618C2.576 7.51558 3.52389 5.74221 4.91577 4.35033C6.30765 2.95845 8.08101 2.01057 10.0116 1.62655C11.9422 1.24253 13.9433 1.43962 15.7619 2.1929C17.5805 2.94618 19.1349 4.22182 20.2284 5.8585C21.322 7.49518 21.9057 9.41939 21.9057 11.3878C21.9053 14.0272 20.8565 16.5584 18.9902 18.4247C17.1238 20.2911 14.5927 21.3398 11.9532 21.3403Z" fill="url(#paint0_linear_719_23826)"/>
<path d="M8.3701 5.98779H15.9113C15.983 5.98779 16.0516 6.01624 16.1023 6.06687C16.1529 6.11751 16.1813 6.18618 16.1813 6.25779V8.14592C16.1816 8.18144 16.1748 8.21667 16.1613 8.24954C16.1478 8.28241 16.1279 8.31227 16.1028 8.33739C16.0777 8.36251 16.0478 8.38239 16.015 8.39587C15.9821 8.40935 15.9469 8.41617 15.9113 8.41592H11.2651C11.2288 8.4159 11.1929 8.42318 11.1596 8.43733C11.1262 8.45148 11.096 8.47221 11.0708 8.49828C11.0456 8.52436 11.0259 8.55524 11.0129 8.58909C10.9999 8.62293 10.9938 8.65906 10.9951 8.69529V11.1159C10.9948 11.1514 11.0017 11.1867 11.0151 11.2195C11.0286 11.2524 11.0485 11.2823 11.0736 11.3074C11.0987 11.3325 11.1286 11.3524 11.1615 11.3659C11.1943 11.3794 11.2296 11.3862 11.2651 11.3859H15.1557C15.1913 11.3859 15.2266 11.393 15.2595 11.4066C15.2924 11.4203 15.3222 11.4404 15.3473 11.4657C15.3724 11.4909 15.3923 11.5209 15.4057 11.5539C15.4192 11.5869 15.426 11.6222 15.4257 11.6578V13.544C15.426 13.5796 15.4192 13.6148 15.4057 13.6477C15.3922 13.6805 15.3723 13.7104 15.3472 13.7355C15.3221 13.7606 15.2922 13.7805 15.2593 13.794C15.2265 13.8075 15.1912 13.8143 15.1557 13.814H11.2651C11.1935 13.814 11.1248 13.8425 11.0742 13.8931C11.0235 13.9438 10.9951 14.0124 10.9951 14.084V18.5259C10.9946 18.5974 10.966 18.6658 10.9155 18.7163C10.8649 18.7668 10.7966 18.7954 10.7251 18.7959H8.3701C8.29849 18.7959 8.22981 18.7675 8.17918 18.7168C8.12854 18.6662 8.1001 18.5975 8.1001 18.5259V6.25779C8.1001 6.18618 8.12854 6.11751 8.17918 6.06687C8.22981 6.01624 8.29849 5.98779 8.3701 5.98779Z" fill="#E18A04"/>
<path d="M8.3701 5.18506H15.9114C15.947 5.18506 15.9822 5.1921 16.0151 5.20579C16.048 5.21947 16.0778 5.23953 16.1029 5.2648C16.128 5.29007 16.1479 5.32006 16.1613 5.35303C16.1748 5.38601 16.1816 5.42132 16.1814 5.45693V7.34318C16.1816 7.37871 16.1748 7.41393 16.1613 7.4468C16.1478 7.47967 16.1279 7.50954 16.1028 7.53466C16.0777 7.55978 16.0478 7.57966 16.015 7.59314C15.9821 7.60662 15.9469 7.61343 15.9114 7.61318H11.2651C11.2295 7.61318 11.1942 7.62023 11.1613 7.63391C11.1285 7.6476 11.0986 7.66766 11.0735 7.69293C11.0484 7.7182 11.0286 7.74818 11.0151 7.78116C11.0017 7.81413 10.9949 7.84944 10.9951 7.88506V10.3226C10.9949 10.3581 11.0017 10.3933 11.0151 10.4262C11.0286 10.459 11.0485 10.4889 11.0736 10.514C11.0988 10.5392 11.1286 10.559 11.1615 10.5725C11.1944 10.586 11.2296 10.5928 11.2651 10.5926H15.1557C15.2273 10.5926 15.296 10.621 15.3466 10.6716C15.3973 10.7223 15.4257 10.791 15.4257 10.8626V12.7413C15.4255 12.7765 15.4183 12.8113 15.4046 12.8438C15.3909 12.8762 15.3709 12.9056 15.3459 12.9304C15.3208 12.9551 15.2911 12.9746 15.2585 12.9879C15.2259 13.0011 15.1909 13.0078 15.1557 13.0076H11.2651C11.1935 13.0076 11.1248 13.036 11.0742 13.0866C11.0235 13.1373 10.9951 13.206 10.9951 13.2776V17.7232C10.9946 17.7946 10.966 17.863 10.9155 17.9136C10.865 17.9641 10.7966 17.9927 10.7251 17.9932H8.3701C8.2985 17.9932 8.22982 17.9647 8.17918 17.9141C8.12855 17.8635 8.1001 17.7948 8.1001 17.7232V5.45693C8.09986 5.42132 8.10666 5.38601 8.12012 5.35303C8.13357 5.32006 8.15342 5.29007 8.17852 5.2648C8.20362 5.23953 8.23346 5.21947 8.26634 5.20579C8.29923 5.1921 8.33449 5.18506 8.3701 5.18506Z" fill="url(#paint1_linear_719_23826)"/>
<g style="mix-blend-mode:overlay" opacity="0.15">
<path d="M11.9529 11.3878C17.3667 11.3878 21.7554 8.8543 21.7554 5.72906C21.7554 2.60382 17.3667 0.0703125 11.9529 0.0703125C6.53912 0.0703125 2.15039 2.60382 2.15039 5.72906C2.15039 8.8543 6.53912 11.3878 11.9529 11.3878Z" fill="white"/>
</g>
<defs>
<linearGradient id="paint0_linear_719_23826" x1="20.0685" y1="3.02941" x2="5.09547" y2="20.2962" gradientUnits="userSpaceOnUse">
<stop stop-color="#FED64A"/>
<stop offset="0.123016" stop-color="#FEF14E"/>
<stop offset="0.248796" stop-color="#FFDF6C"/>
<stop offset="0.482583" stop-color="#FCFF67"/>
<stop offset="0.743348" stop-color="#FED545"/>
<stop offset="0.82597" stop-color="#FECA45"/>
<stop offset="1" stop-color="#FEED44"/>
</linearGradient>
<linearGradient id="paint1_linear_719_23826" x1="15.0381" y1="6.85948" x2="6.89455" y2="12.7847" gradientUnits="userSpaceOnUse">
<stop stop-color="#FED64A"/>
<stop offset="0.123016" stop-color="#FEF14E"/>
<stop offset="0.248796" stop-color="#FFDF6C"/>
<stop offset="0.482583" stop-color="#FCFF67"/>
<stop offset="0.743348" stop-color="#FED545"/>
<stop offset="0.82597" stop-color="#FECA45"/>
<stop offset="1" stop-color="#FEED44"/>
</linearGradient>
</defs>
</svg>
