<svg width="32" height="32" viewBox="0 0 32 32" fill="none" xmlns="http://www.w3.org/2000/svg">
<path d="M6.66667 5.33301C5.19387 5.33301 4 6.53301 4 7.99967V26.6663C4 28.133 5.19387 29.333 6.66667 29.333H14.6667H17.3333H25.3333C26.8067 29.333 28 28.133 28 26.6663V7.99967C28 6.53301 26.8067 5.33301 25.3333 5.33301H17.3333H14.6667H6.66667Z" fill="#BDC3C7"/>
<path d="M6.66667 4C5.19387 4 4 5.19387 4 6.66667V25.3333C4 26.8067 5.19387 28 6.66667 28H14.6667H17.3333H25.3333C26.8067 28 28 26.8067 28 25.3333V6.66667C28 5.19387 26.8067 4 25.3333 4H17.3333H14.6667H6.66667Z" fill="#ECF0F1"/>
<path d="M6.66667 4C5.19387 4 4 5.19387 4 6.66667V10.6667V12H28V10.6667V6.66667C28 5.19387 26.8067 4 25.3333 4H17.3333H14.6667H6.66667Z" fill="#E74C3C"/>
<path d="M10 7.33301C10 7.59565 9.94827 7.85572 9.84776 8.09837C9.74725 8.34103 9.59993 8.5615 9.41421 8.74722C9.2285 8.93294 9.00802 9.08026 8.76537 9.18077C8.52272 9.28128 8.26264 9.33301 8 9.33301C7.73736 9.33301 7.47728 9.28128 7.23463 9.18077C6.99198 9.08026 6.7715 8.93294 6.58579 8.74722C6.40007 8.5615 6.25275 8.34103 6.15224 8.09837C6.05173 7.85572 6 7.59565 6 7.33301C6 7.07036 6.05173 6.81029 6.15224 6.56764C6.25275 6.32499 6.40007 6.10451 6.58579 5.91879C6.7715 5.73308 6.99198 5.58576 7.23463 5.48525C7.47728 5.38474 7.73736 5.33301 8 5.33301C8.26264 5.33301 8.52272 5.38474 8.76537 5.48525C9.00802 5.58576 9.2285 5.73308 9.41421 5.91879C9.59993 6.10451 9.74725 6.32499 9.84776 6.56764C9.94827 6.81029 10 7.07036 10 7.33301Z" fill="#C0392B"/>
<path d="M26 7.33301C26 7.59565 25.9483 7.85572 25.8478 8.09837C25.7472 8.34103 25.5999 8.5615 25.4142 8.74722C25.2285 8.93294 25.008 9.08026 24.7654 9.18077C24.5227 9.28128 24.2626 9.33301 24 9.33301C23.7374 9.33301 23.4773 9.28128 23.2346 9.18077C22.992 9.08026 22.7715 8.93294 22.5858 8.74722C22.4001 8.5615 22.2528 8.34103 22.1522 8.09837C22.0517 7.85572 22 7.59565 22 7.33301C22 7.07036 22.0517 6.81029 22.1522 6.56764C22.2528 6.32499 22.4001 6.10451 22.5858 5.91879C22.7715 5.73308 22.992 5.58576 23.2346 5.48525C23.4773 5.38474 23.7374 5.33301 24 5.33301C24.2626 5.33301 24.5227 5.38474 24.7654 5.48525C25.008 5.58576 25.2285 5.73308 25.4142 5.91879C25.5999 6.10451 25.7472 6.32499 25.8478 6.56764C25.9483 6.81029 26 7.07036 26 7.33301Z" fill="#C0392B"/>
<path d="M6.66797 14.666V17.3327H9.33464V14.666H6.66797ZM10.668 14.666V17.3327H13.3346V14.666H10.668ZM14.668 14.666V17.3327H17.3346V14.666H14.668ZM18.668 14.666V17.3327H21.3346V14.666H18.668ZM22.668 14.666V17.3327H25.3346V14.666H22.668Z" fill="#BDC3C7"/>
<path d="M6.66797 18.666V21.3327H9.33464V18.666H6.66797ZM10.668 18.666V21.3327H13.3346V18.666H10.668ZM14.668 18.666V21.3327H17.3346V18.666H14.668ZM18.668 18.666V21.3327H21.3346V18.666H18.668ZM22.668 18.666V21.3327H25.3346V18.666H22.668Z" fill="#BDC3C7"/>
<path d="M6.66797 22.666V25.3327H9.33464V22.666H6.66797ZM10.668 22.666V25.3327H13.3346V22.666H10.668ZM14.668 22.666V25.3327H17.3346V22.666H14.668ZM18.668 22.666V25.3327H21.3346V22.666H18.668ZM22.668 22.666V25.3327H25.3346V22.666H22.668Z" fill="#BDC3C7"/>
<path d="M8.0013 1.33301C7.2649 1.33301 6.66797 1.92994 6.66797 2.66634V6.66634C6.66797 7.40274 7.2649 7.99967 8.0013 7.99967C8.7377 7.99967 9.33464 7.40274 9.33464 6.66634V2.66634C9.33464 1.92994 8.7377 1.33301 8.0013 1.33301ZM24.0013 1.33301C23.2653 1.33301 22.668 1.92994 22.668 2.66634V6.66634C22.668 7.40274 23.2653 7.99967 24.0013 7.99967C24.7373 7.99967 25.3346 7.40274 25.3346 6.66634V2.66634C25.3346 1.92994 24.7373 1.33301 24.0013 1.33301Z" fill="#95A5A6"/>
<path d="M8.0013 1.33301C7.2649 1.33301 6.66797 1.86634 6.66797 2.66634V5.33301H9.33464V2.66634C9.33464 1.86634 8.7377 1.33301 8.0013 1.33301ZM24.0013 1.33301C23.2653 1.33301 22.668 1.86634 22.668 2.66634V5.33301H25.3346V2.66634C25.3346 1.86634 24.7373 1.33301 24.0013 1.33301Z" fill="#BDC3C7"/>
</svg>
