<svg width="32" height="32" viewBox="0 0 32 32" fill="none" xmlns="http://www.w3.org/2000/svg">
<g clip-path="url(#clip0_3306_19137)">
<path fill-rule="evenodd" clip-rule="evenodd" d="M29.0287 23.1463H2.97656C2.76825 23.1463 2.60156 22.977 2.60156 22.7713V6.22193C2.60156 5.14118 3.47925 4.26367 4.55982 4.26367H27.4426C28.5234 4.26367 29.4009 5.14136 29.4009 6.22193V22.7713C29.4035 22.977 29.2342 23.1463 29.0285 23.1463H29.0287Z" fill="#363C3D"/>
<path fill-rule="evenodd" clip-rule="evenodd" d="M27.8769 27.7376H4.12691C1.85346 27.7376 0.00189346 25.8861 0.00189346 23.6126C0.00189346 23.0608 -0.121857 22.3965 0.376895 22.3965H31.6269C32.1255 22.3965 32.0019 23.0653 32.0019 23.6126C32.0019 25.8861 30.1503 27.7376 27.8769 27.7376Z" fill="#4A5254"/>
<path fill-rule="evenodd" clip-rule="evenodd" d="M26.0468 27.7376H25.2941V22.3965H26.0468V27.7376ZM6.70832 27.7376H5.96094V22.3965H6.70832V27.7376Z" fill="#363C3D"/>
<path fill-rule="evenodd" clip-rule="evenodd" d="M27.7437 21.4341H4.26338C4.03031 21.4341 3.84375 21.2447 3.84375 21.0145V6.39521C3.84375 6.16215 4.03013 5.97559 4.26338 5.97559H27.7409C27.9712 5.97559 28.1605 6.16196 28.1605 6.39521V21.0143C28.1633 21.2445 27.974 21.4339 27.7439 21.4339L27.7437 21.4341Z" fill="#008EB2"/>
<path fill-rule="evenodd" clip-rule="evenodd" d="M20.3394 24.6868H11.6677C11.5115 24.6868 11.3708 24.5878 11.3161 24.4419L10.3786 22.2024C10.2892 21.9575 10.4703 21.6973 10.7302 21.6973H21.2769C21.5373 21.6973 21.7175 21.9586 21.6285 22.2024L20.6909 24.4419C20.6362 24.5904 20.4956 24.6868 20.3394 24.6868Z" fill="#363C3D"/>
<path fill-rule="evenodd" clip-rule="evenodd" d="M28.1597 21.0149V6.39581C28.1597 6.31781 28.1385 6.24505 28.1015 6.18262L3.90625 21.2363C3.98013 21.355 4.11156 21.4345 4.26269 21.4345H10.5434C10.5976 21.4032 10.6608 21.385 10.7294 21.385H21.2761C21.3449 21.385 21.4079 21.4032 21.4619 21.4345H27.743C27.9733 21.4345 28.1627 21.2451 28.1597 21.0149Z" fill="#0698BD"/>
<path fill-rule="evenodd" clip-rule="evenodd" d="M13.1523 16.4328C12.9437 16.4328 12.7773 16.2667 12.7773 16.0578V9.47711C12.7773 9.19079 13.0875 9.00573 13.3398 9.15161L19.0402 12.4434C19.2907 12.5881 19.2883 12.9494 19.0402 13.0944L13.3398 16.3833C13.28 16.4146 13.2174 16.4328 13.1523 16.4328Z" fill="#FBE201"/>
<path fill-rule="evenodd" clip-rule="evenodd" d="M24.3494 18.5342H7.65152C7.15783 18.5342 7.15783 17.7842 7.65152 17.7842H24.3494C24.8425 17.7842 24.8425 18.5342 24.3494 18.5342Z" fill="#FBE201"/>
<path fill-rule="evenodd" clip-rule="evenodd" d="M10.543 19.3751C10.3347 19.3751 10.168 19.2058 10.168 19.0001V17.3205C10.168 16.8268 10.918 16.8268 10.918 17.3205V19.0001C10.918 19.2058 10.7487 19.3751 10.543 19.3751Z" fill="#FBE201"/>
</g>
<defs>
<clipPath id="clip0_3306_19137">
<rect width="32" height="32" fill="white"/>
</clipPath>
</defs>
</svg>
