<svg width="32" height="32" viewBox="0 0 32 32" fill="none" xmlns="http://www.w3.org/2000/svg">
<path d="M11.4993 6.99999L10.1004 2.99999C9.72188 1.91758 10.5595 1 11.6004 1H17.4072C18.4482 1 19.2394 1.90246 18.9072 2.99999L17.4993 6.99999H11.4993Z" fill="#FFCA28"/>
<path d="M16.4062 1C17.4472 1 18.2384 1.90246 17.9063 3L16.498 7H17.498L18.9063 3C19.2384 1.90246 18.4472 1 17.4063 1H16.4062Z" fill="#ECB200"/>
<path d="M10.5 14C10.5 16.5 5.5 19.0146 5.5 24.0146C5.5 28.5146 8.99135 31 14.5 31C20.0086 31 23.5 28.5146 23.5 24.0146C23.5 19.0146 18.5 16.5 18.5 14H10.5Z" fill="#FFCA28"/>
<path d="M14.502 18.4981C14.227 18.503 14.0078 18.6895 14.001 18.9972V19.4991H13.5029C12.6806 19.4991 12 20.1748 12 20.9972V21.9972C12 22.8195 12.6806 23.4962 13.5029 23.4962H14.001V25.4962H13.5029C13.2173 25.4962 13.001 25.2838 13.001 24.9981C13.001 24.3308 12 24.3308 12 24.9981C12 25.8205 12.6806 26.4972 13.5029 26.4972H14.001V26.9991C14.0153 27.6539 14.9771 27.6804 15.001 26.9991V26.4972H15.499C16.3213 26.4972 17.002 25.8205 17.002 24.9981V23.9981C17.002 23.1758 16.3213 22.5001 15.499 22.5001H15.001V20.4991H15.499C15.7847 20.4991 16.001 20.7115 16.001 20.9972C16.001 21.6645 17.002 21.6645 17.002 20.9972C17.002 20.1748 16.3213 19.4991 15.499 19.4991H15.001V18.9972C15.0023 18.7172 14.7838 18.4932 14.502 18.4981ZM13.5029 20.4991H14.001V22.5001H13.5029C13.2173 22.5001 13.001 22.2828 13.001 21.9972V20.9972C13.001 20.7115 13.2173 20.4991 13.5029 20.4991ZM15.001 23.4962H15.499C15.7847 23.4962 16.001 23.7125 16.001 23.9981V24.9981C16.001 25.2838 15.7847 25.4962 15.499 25.4962H15.001V23.4962Z" fill="#ECB200"/>
<path d="M10.499 14C10.499 14.3005 10.4308 14.5936 10.3164 14.8857C10.6749 14.9483 11.0558 15 11.499 15H17.499C17.925 15 18.2986 14.8152 18.5703 14.5313C18.5274 14.3559 18.499 14.1792 18.499 14L10.499 14Z" fill="#ECB200"/>
<path d="M17.5 14C17.5 17 22.5 19.5146 22.5 24.0146C22.5 28.3744 19.1846 30.8348 14 30.9853C14.1667 30.9902 14.3284 31 14.5 31C20.0087 31 23.5 28.5147 23.5 24.0147C23.5 19.0147 18.5 16.5001 18.5 14.0001L17.5 14Z" fill="#ECB200"/>
<path d="M5.96382 7.00586H8.03618C8.29313 7.00586 8.5 7.21272 8.5 7.46968V14.5361C8.5 14.7931 8.29313 15 8.03618 15H5.96382C5.70686 15 5.5 14.7931 5.5 14.5361V7.46968C5.5 7.21272 5.70686 7.00586 5.96382 7.00586Z" fill="#E4EFF8"/>
<path d="M19.2344 8.1748C19.398 7.99688 19.5 7.76193 19.5 7.5C19.5 6.946 19.054 6.5 18.5 6.5H12.5C10.6753 6.5 10.0868 7.32379 8.5 7.46973V14.0186C9.22028 14.1035 10.1595 14.5 11.5 14.5H17.5C18.331 14.5 19 13.831 19 13C19 12.7313 18.9274 12.4813 18.8047 12.2637C19.2223 11.9979 19.5 11.5338 19.5 11C19.5 10.6946 19.4095 10.4113 19.0889 10.1748C19.2725 9.90061 19.5 9.47999 19.5 9C19.5071 8.66786 19.4129 8.35336 19.2344 8.1748Z" fill="#FFC6A0"/>
<path d="M19.4756 8.70605C19.2242 9.17813 18.7315 9.5 18.1572 9.5H16.5C16.223 9.5 16 9.723 16 10C16 10.277 16.223 10.5 16.5 10.5H18.1572C18.5155 10.5 18.9017 10.3571 19.0967 10.1621C19.3425 9.91812 19.5 9.47339 19.5 9C19.5023 8.89865 19.4919 8.80076 19.4756 8.70605Z" fill="#FFAF7A"/>
<path d="M16.4922 11.5C16.2152 11.5 15.9922 11.723 15.9922 12C15.9922 12.277 16.2152 12.5 16.4922 12.5H17.9922C18.8232 12.5 19.4922 11.831 19.4922 11C19.4922 10.8262 19.4667 10.6584 19.3828 10.5C19.1744 11.0773 18.6431 11.5 17.9922 11.5H16.4922Z" fill="#FFAF7A"/>
<path d="M5.5 7.00586V15H6.49999V7.00586H5.5Z" fill="#C4DCF0"/>
<path d="M17.5 13.5H11.5C10.1595 13.5 9.22028 13.1035 8.5 13.0186V14.0186C9.22028 14.1035 10.1595 14.5 11.5 14.5H17.5C18.331 14.5 19 13.831 19 13C19 12.8262 18.9609 12.6642 18.9063 12.5098C18.6978 13.0871 18.1509 13.5 17.5 13.5Z" fill="#FFAF7A"/>
<path d="M9.49999 7.2666C9.20305 7.35907 8.88117 7.43468 8.5 7.46973V14.0186C8.78963 14.0527 9.1277 14.1387 9.49999 14.2275V7.2666Z" fill="#FFAF7A"/>
<path d="M7.5 7.00586V15H8.03613C8.29309 15 8.5 14.7931 8.5 14.5361V7.46973C8.5 7.21277 8.29309 7.00586 8.03613 7.00586H7.5Z" fill="#C4DCF0"/>
<path d="M18.3008 7.5H16.5C16.223 7.5 16 7.723 16 8C16 8.277 16.223 8.5 16.5 8.5H18.3008C18.6641 8.5 18.992 8.3667 19.251 8.15332C19.404 7.97799 19.5 7.75211 19.5 7.5C19.5 7.33017 19.455 7.173 19.3809 7.0332C19.1095 7.31964 18.7288 7.5 18.3008 7.5Z" fill="#FFAF7A"/>
<path d="M25.95 6.00098C25.6731 6.02719 25.4709 6.27422 25.4998 6.55078L25.946 10.999H24.4998C24.0879 10.9999 23.8537 11.4706 24.1014 11.7998L27.0983 15.7968C27.2983 16.0641 27.6991 16.0641 27.899 15.7968L30.8989 11.7998C31.1477 11.4692 30.9104 10.9966 30.4965 10.999H29.0503L29.4966 6.55078C29.5261 6.25622 29.2946 6.00069 28.9986 6.00098H25.95Z" fill="#E4EFF8"/>
<path d="M25.1461 16.6451L24.441 17.3502C23.9684 17.8228 24.6773 18.5318 25.15 18.0591L25.855 17.3541C26.3394 16.8556 25.6303 16.1852 25.1461 16.6451Z" fill="#68A4D4"/>
<path d="M29.1455 17.3541L29.8506 18.0591C30.3232 18.5485 31.0476 17.82 30.5556 17.3501L29.8506 16.6451C29.3495 16.1714 28.6702 16.8853 29.1455 17.3541Z" fill="#68A4D4"/>
<path d="M27.0002 17.4952V18.4913C27.0002 19.1586 28.0011 19.1586 28.0011 18.4913V17.4952C27.9756 16.7836 26.9855 16.8587 27.0002 17.4952Z" fill="#68A4D4"/>
<path d="M14.502 18.0001C14.227 18.005 14.0078 18.1915 14.001 18.4991V19.0011H13.5029C12.6806 19.0011 12 19.6768 12 20.4991V21.4991C12 22.3214 12.6806 22.9981 13.5029 22.9981H14.001V24.9981H13.5029C13.2173 24.9981 13.001 24.7857 13.001 24.5001C13.001 23.8328 12 23.8328 12 24.5001C12 25.3224 12.6806 25.9991 13.5029 25.9991H14.001V26.5011C14.0153 27.1559 14.9771 27.1824 15.001 26.5011V25.9991H15.499C16.3213 25.9991 17.002 25.3224 17.002 24.5001V23.5001C17.002 22.6777 16.3213 22.002 15.499 22.002H15.001V20.0011H15.499C15.7847 20.0011 16.001 20.2135 16.001 20.4991C16.001 21.1664 17.002 21.1664 17.002 20.4991C17.002 19.6768 16.3213 19.0011 15.499 19.0011H15.001V18.4991C15.0023 18.2192 14.7838 17.9951 14.502 18.0001ZM13.5029 20.0011H14.001V22.002H13.5029C13.2173 22.002 13.001 21.7847 13.001 21.4991V20.4991C13.001 20.2135 13.2173 20.0011 13.5029 20.0011ZM15.001 22.9981H15.499C15.7847 22.9981 16.001 23.2145 16.001 23.5001V24.5001C16.001 24.7857 15.7847 24.9981 15.499 24.9981H15.001V22.9981Z" fill="#E4EFF8"/>
<path d="M1.5 6.5H5.50004C5.77703 6.5 6.00003 6.723 6.00003 7V15C6.00003 15.277 5.77703 15.5 5.50004 15.5H1.5C1.223 15.5 1 15.277 1 15V7C1 6.723 1.223 6.5 1.5 6.5Z" fill="#68A4D4"/>
<path d="M5 6.5V15.5H5.5C5.777 15.5 6 15.277 6 15V7C6 6.723 5.777 6.5 5.5 6.5H5Z" fill="#4992CB"/>
<path d="M2.49997 13.5C2.22384 13.5 2 13.7239 2 14C2 14.2761 2.22384 14.5 2.49997 14.5C2.77609 14.5 2.99994 14.2761 2.99994 14C2.99994 13.7239 2.77609 13.5 2.49997 13.5Z" fill="#E4EFF8"/>
<path d="M28.5 6.00098C28.796 6.00069 29.0275 6.25622 28.998 6.55078L28.5518 10.999H29.0479L29.4941 6.55078C29.5236 6.25622 29.2921 6.00069 28.9961 6.00098H28.5Z" fill="#C4DCF0"/>
<path d="M30 10.999C30.4139 10.9967 30.6512 11.4692 30.4024 11.7998L27.4024 15.7969C27.3598 15.8537 27.3068 15.8961 27.25 15.9287C27.4604 16.0497 27.741 16.0074 27.8984 15.7969L30.8984 11.7998C31.1473 11.4692 30.9099 10.9967 30.4961 10.999H30Z" fill="#C4DCF0"/>
<path d="M25.2627 16.5707C25.511 16.7199 25.6382 17.064 25.3555 17.3549L24.6504 18.0599C24.6163 18.0941 24.579 18.1089 24.543 18.1312C24.7194 18.2421 24.9534 18.2569 25.1504 18.0599L25.8555 17.3549C26.2188 16.981 25.9113 16.5105 25.5303 16.4926C25.4423 16.4884 25.3511 16.5197 25.2627 16.5707Z" fill="#4992CB"/>
<path d="M29.46 16.4901C29.3772 16.4951 29.3031 16.5282 29.2344 16.5711C29.2729 16.5938 29.3116 16.6103 29.3486 16.6454L30.0537 17.3504C30.3405 17.6243 30.21 17.9794 29.9609 18.1366C30.4253 18.4277 31.0087 17.785 30.5537 17.3504L29.8486 16.6454C29.7234 16.5269 29.5867 16.4824 29.46 16.4901Z" fill="#4992CB"/>
<path d="M27.4844 16.9896C27.4013 16.9928 27.3228 17.0213 27.25 17.0609C27.386 17.1366 27.492 17.2734 27.5 17.4955V18.4916C27.5 18.7072 27.3915 18.845 27.25 18.9213C27.5464 19.0804 28 18.9429 28 18.4916V17.4955C27.9873 17.1397 27.7332 16.9803 27.4844 16.9896Z" fill="#4992CB"/>
</svg>
