<svg width="32" height="32" viewBox="0 0 32 32" fill="none" xmlns="http://www.w3.org/2000/svg">
<g clip-path="url(#clip0_3306_19115)">
<path d="M8.85547 11.4287H0.855469V32.0001H8.85547V11.4287Z" fill="#4B6DAA"/>
<path d="M4.85603 29.1427C6.11839 29.1427 7.14174 28.1194 7.14174 26.857C7.14174 25.5946 6.11839 24.5713 4.85603 24.5713C3.59366 24.5713 2.57031 25.5946 2.57031 26.857C2.57031 28.1194 3.59366 29.1427 4.85603 29.1427Z" fill="#D8A852"/>
<path d="M30.5698 14.8571C30.5698 13.5949 29.5463 12.5714 28.284 12.5714H23.1412H21.4269H19.3686L19.9332 9.932C20.364 7.91829 20.2486 5.464 19.9926 3.74C19.7366 2.016 18.1926 0 16.5772 0H16.4406C15.0635 0 14.5698 1.51943 14.5698 3.42857C14.5698 12.7143 9.99833 12.5714 9.99833 12.5714H8.85547V30.8571H17.4269H23.1412H25.4269C26.6892 30.8571 27.7126 29.8337 27.7126 28.5714C27.7126 27.3091 26.6892 26.2857 25.4269 26.2857H27.1412C28.4035 26.2857 29.4269 25.2623 29.4269 24C29.4269 22.7377 28.4035 21.7143 27.1412 21.7143H28.8555C30.1178 21.7143 31.1412 20.6909 31.1412 19.4286C31.1412 18.004 30.2195 17.4617 28.8555 17.2594C28.1909 17.1606 26.9835 17.1429 26.5698 17.1429H28.284C29.5463 17.1429 30.5698 16.1194 30.5698 14.8571Z" fill="#FBCE9D"/>
<path d="M29.7829 16.5713H22.5714C22.256 16.5713 22 16.8267 22 17.1427C22 17.4587 22.256 17.7141 22.5714 17.7141H30.2606C29.8851 17.4839 29.4103 17.341 28.8571 17.2593C28.1926 17.1604 26.9851 17.1427 26.5714 17.1427H28.2857C28.8617 17.1427 29.3811 16.9227 29.7829 16.5713Z" fill="#F7B563"/>
<path d="M30.3543 21.1426H22.5714C22.256 21.1426 22 21.398 22 21.714C22 22.03 22.256 22.2854 22.5714 22.2854H28.6406C28.2389 21.934 27.7189 21.714 27.1429 21.714H28.8571C29.4331 21.714 29.9526 21.494 30.3543 21.1426Z" fill="#F7B563"/>
<path d="M28.6383 25.7139H21.4269C21.1115 25.7139 20.8555 25.9693 20.8555 26.2853C20.8555 26.6013 21.1115 26.8567 21.4269 26.8567H26.9246C26.5229 26.5053 26.0029 26.2853 25.4269 26.2853H27.1412C27.7172 26.2853 28.2366 26.0653 28.6383 25.7139Z" fill="#F7B563"/>
</g>
<defs>
<clipPath id="clip0_3306_19115">
<rect width="32" height="32" fill="white"/>
</clipPath>
</defs>
</svg>
