<svg width="25" height="20" viewBox="0 0 25 20" fill="none" xmlns="http://www.w3.org/2000/svg">
<path d="M6.75 4.75C3.85875 4.75 1.5 7.10875 1.5 10C1.5 12.895 3.855 15.25 6.75 15.25C8.9475 15.25 10.2892 14.0425 11.3205 12.5545C11.013 12.0595 10.755 11.5705 10.5 11.1017C9.57975 12.622 8.5485 13.75 6.75 13.75C4.6815 13.75 3 12.0685 3 10C3 7.92025 4.67025 6.25 6.75 6.25C7.96275 6.25 8.73375 6.6835 9.4455 7.42225C10.1572 8.16025 10.758 9.22675 11.367 10.3517C11.9768 11.4767 12.5948 12.6603 13.5 13.609C14.4052 14.5585 15.6532 15.25 17.25 15.25C20.1413 15.25 22.5 12.8912 22.5 10C22.5 7.105 20.145 4.75 17.25 4.75C15.0645 4.75 13.7137 5.91925 12.6795 7.375C12.987 7.861 13.2683 8.33875 13.5233 8.8045C14.4375 7.32775 15.4575 6.25 17.25 6.25C19.3185 6.25 21 7.9315 21 10C21 12.0798 19.3298 13.75 17.25 13.75C16.0575 13.75 15.3075 13.3165 14.6017 12.5778C13.8953 11.8398 13.2922 10.7733 12.6795 9.64825C12.0675 8.52325 11.4375 7.33975 10.5233 6.39025C9.609 5.4415 8.361 4.75 6.75 4.75Z" fill="#FFB914"/>
</svg>
