<svg width="32" height="32" viewBox="0 0 32 32" fill="none" xmlns="http://www.w3.org/2000/svg">
<path d="M14.0007 2.66669H4.66732C2.82637 2.66669 1.33398 4.15907 1.33398 6.00002V15.3334C1.33398 17.1743 2.82637 18.6667 4.66732 18.6667H14.0007C15.8416 18.6667 17.334 17.1743 17.334 15.3334V6.00002C17.334 4.15907 15.8416 2.66669 14.0007 2.66669Z" fill="#0588E2"/>
<path d="M16.0007 16.6666H5.33398C4.22932 16.6666 3.33398 15.7713 3.33398 14.6666V3.99998C3.33398 3.60331 3.41532 3.22864 3.54198 2.87598C2.25865 3.33998 1.33398 4.55864 1.33398 5.99998V15.3333C1.33398 17.1713 2.82932 18.6666 4.66732 18.6666H14.0007C15.442 18.6666 16.6607 17.742 17.1247 16.4586C16.772 16.586 16.3967 16.6666 16.0007 16.6666Z" fill="#0075D3"/>
<path d="M13.274 14.0573L9.94067 6.72398C9.83267 6.48598 9.59534 6.33331 9.33401 6.33331C9.07267 6.33331 8.83534 6.48598 8.72734 6.72398L5.39401 14.0573C5.24134 14.392 5.39001 14.7873 5.72534 14.94C6.05867 15.0926 6.45534 14.944 6.60801 14.6086L7.79401 11.9993H10.8753L12.0613 14.6086C12.1727 14.8546 12.4153 15 12.6687 14.9993C12.7613 14.9993 12.8547 14.98 12.944 14.9393C13.2793 14.7866 13.4273 14.392 13.2753 14.0566L13.274 14.0573ZM8.39934 10.6666L9.33401 8.61131L10.2687 10.6666H8.40001H8.39934Z" fill="white"/>
<path d="M27.3327 13.3333H17.9993C16.1584 13.3333 14.666 14.8257 14.666 16.6666V26C14.666 27.8409 16.1584 29.3333 17.9993 29.3333H27.3327C29.1736 29.3333 30.666 27.8409 30.666 26V16.6666C30.666 14.8257 29.1736 13.3333 27.3327 13.3333Z" fill="#FFC343"/>
<path d="M29.3327 27.3333H18.666C17.5613 27.3333 16.666 26.438 16.666 25.3333V14.6667C16.666 14.27 16.7473 13.8953 16.874 13.5427C15.5907 14.0067 14.666 15.2253 14.666 16.6667V26C14.666 27.838 16.1613 29.3333 17.9993 29.3333H27.3327C28.774 29.3333 29.9927 28.4087 30.4567 27.1253C30.104 27.2527 29.7287 27.3333 29.3327 27.3333Z" fill="#FFA221"/>
<path d="M25.6267 20H25.9993C26.3673 20 26.666 19.7014 26.666 19.3334C26.666 18.9654 26.3673 18.6667 25.9993 18.6667H23.3327V17.3334C23.3327 16.9654 23.034 16.6667 22.666 16.6667C22.298 16.6667 21.9993 16.9654 21.9993 17.3334V18.6667H19.3327C18.9647 18.6667 18.666 18.9654 18.666 19.3334C18.666 19.7014 18.9647 20 19.3327 20H24.2793C24.1127 21.1567 23.5227 22.178 22.662 22.8987C22.1573 22.4747 21.738 21.944 21.4467 21.33C21.2894 20.9974 20.8913 20.856 20.5587 21.0134C20.226 21.1707 20.0847 21.5687 20.242 21.9014C20.5527 22.556 20.9853 23.1267 21.492 23.6167C20.9187 23.862 20.286 23.9994 19.618 23.9994C19.25 23.9994 18.9753 24.298 18.9753 24.666C18.9753 25.034 19.2973 25.3327 19.666 25.3327C20.7647 25.3327 21.7927 25.0307 22.6793 24.5127C23.5833 25.032 24.6213 25.3327 25.714 25.3327C26.082 25.3327 26.3567 25.034 26.3567 24.666C26.3567 24.298 26.0347 23.9994 25.666 23.9994C25.0327 23.9994 24.4187 23.8627 23.8527 23.622C24.8193 22.678 25.4694 21.4134 25.6267 20Z" fill="white"/>
<path d="M25.3335 6H22.2762L22.4715 5.80467C22.7322 5.544 22.7322 5.12267 22.4715 4.862C22.2108 4.60134 21.7895 4.60134 21.5288 4.862L20.1955 6.19534C19.9348 6.456 19.9348 6.87734 20.1955 7.138L21.5288 8.47134C21.6588 8.60134 21.8295 8.66667 22.0002 8.66667C22.1708 8.66667 22.3415 8.60134 22.4715 8.47134C22.7322 8.21067 22.7322 7.78934 22.4715 7.52867L22.2762 7.33334H25.3335C25.7008 7.33334 26.0002 7.63267 26.0002 8V10C26.0002 10.368 26.2988 10.6667 26.6668 10.6667C27.0348 10.6667 27.3335 10.368 27.3335 10V8C27.3335 6.89734 26.4362 6 25.3335 6Z" fill="#AFB4C2"/>
<path d="M10.4707 23.5286C10.21 23.268 9.78868 23.268 9.52802 23.5286C9.26735 23.7893 9.26735 24.2106 9.52802 24.4713L9.72335 24.6666H6.66602C6.29868 24.6666 5.99935 24.3673 5.99935 24V22C5.99935 21.632 5.70068 21.3333 5.33268 21.3333C4.96468 21.3333 4.66602 21.632 4.66602 22V24C4.66602 25.1026 5.56335 26 6.66602 26H9.72335L9.52802 26.1953C9.26735 26.456 9.26735 26.8773 9.52802 27.138C9.65802 27.268 9.82868 27.3333 9.99935 27.3333C10.17 27.3333 10.3407 27.268 10.4707 27.138L11.804 25.8046C12.0647 25.544 12.0647 25.1226 11.804 24.862L10.4707 23.5286Z" fill="#AFB4C2"/>
</svg>
