<svg width="32" height="32" viewBox="0 0 32 32" fill="none" xmlns="http://www.w3.org/2000/svg">
<path d="M24 3.3C21.65 1.85 18.95 1 16 1V3.3H24Z" fill="#ED4C5C"/>
<path d="M16 5.59999H26.8C25.95 4.74999 25 3.94999 24 3.29999H16V5.59999Z" fill="white"/>
<path d="M16 7.89998H28.65C28.1 7.04998 27.5 6.29998 26.85 5.59998H16V7.89998Z" fill="#ED4C5C"/>
<path d="M16 10.2H29.85C29.5 9.40002 29.1 8.60002 28.65 7.90002H16V10.2Z" fill="white"/>
<path d="M16 12.5H30.6C30.4 11.7 30.15 10.95 29.85 10.2H16V12.5Z" fill="#ED4C5C"/>
<path d="M16 14.85H30.95C30.9 14.05 30.75 13.3 30.6 12.55H16V14.85Z" fill="white"/>
<path d="M30.95 14.85H16V16H1C1 16.4 1 16.75 1.05 17.15H30.95C31 16.75 31 16.4 31 16C31 15.6 31 15.2 30.95 14.85Z" fill="#ED4C5C"/>
<path d="M1.40078 19.45H30.6008C30.8008 18.7 30.9008 17.95 30.9508 17.15H1.05078C1.10078 17.9 1.25078 18.7 1.40078 19.45Z" fill="white"/>
<path d="M2.14844 21.75H29.8484C30.1484 21 30.3984 20.25 30.5984 19.45H1.39844C1.59844 20.25 1.84844 21 2.14844 21.75Z" fill="#ED4C5C"/>
<path d="M3.34844 24.05H28.6484C29.0984 23.3 29.4984 22.55 29.8484 21.75H2.14844C2.49844 22.55 2.89844 23.3 3.34844 24.05Z" fill="white"/>
<path d="M5.15156 26.35H26.8516C27.5016 25.65 28.1516 24.85 28.6516 24.05H3.35156C3.85156 24.9 4.50156 25.65 5.15156 26.35Z" fill="#ED4C5C"/>
<path d="M7.94844 28.65H24.0484C25.0984 28 25.9984 27.2 26.8484 26.35H5.14844C5.99844 27.25 6.94844 28 7.94844 28.65Z" fill="white"/>
<path d="M15.9992 31C18.9492 31 21.6992 30.15 24.0492 28.65H7.94922C10.2992 30.15 13.0492 31 15.9992 31Z" fill="#ED4C5C"/>
<path d="M8 3.3C6.95 3.95 6 4.75 5.15 5.6C4.45 6.3 3.85 7.1 3.35 7.9C2.9 8.65 2.45 9.4 2.15 10.2C1.85 10.95 1.6 11.7 1.4 12.5C1.2 13.25 1.1 14 1.05 14.8C1 15.2 1 15.6 1 16H16V1C13.05 1 10.35 1.85 8 3.3Z" fill="#428BC1"/>
<path d="M12.4992 1.5L12.7492 2.25H13.4992L12.8992 2.75L13.0992 3.5L12.4992 3.05L11.8992 3.5L12.0992 2.75L11.4992 2.25H12.2492L12.4992 1.5ZM14.4992 4.5L14.7492 5.25H15.4992L14.8992 5.75L15.0992 6.5L14.4992 6.05L13.8992 6.5L14.0992 5.75L13.4992 5.25H14.2492L14.4992 4.5ZM10.4992 4.5L10.7492 5.25H11.4992L10.8992 5.75L11.0992 6.5L10.4992 6.05L9.89922 6.5L10.0992 5.75L9.49922 5.25H10.2492L10.4992 4.5ZM12.4992 7.5L12.7492 8.25H13.4992L12.8992 8.75L13.0992 9.5L12.4992 9.05L11.8992 9.5L12.0992 8.75L11.4992 8.25H12.2492L12.4992 7.5ZM8.49922 7.5L8.74922 8.25H9.49922L8.89922 8.75L9.09922 9.5L8.49922 9.05L7.89922 9.5L8.09922 8.75L7.49922 8.25H8.24922L8.49922 7.5ZM4.49922 7.5L4.74922 8.25H5.49922L4.89922 8.75L5.09922 9.5L4.49922 9.05L3.89922 9.5L4.09922 8.75L3.49922 8.25H4.24922L4.49922 7.5ZM14.4992 10.5L14.7492 11.25H15.4992L14.8992 11.75L15.0992 12.5L14.4992 12.05L13.8992 12.5L14.0992 11.75L13.4992 11.25H14.2492L14.4992 10.5ZM10.4992 10.5L10.7492 11.25H11.4992L10.8992 11.75L11.0992 12.5L10.4992 12.05L9.89922 12.5L10.0992 11.75L9.49922 11.25H10.2492L10.4992 10.5ZM6.49922 10.5L6.74922 11.25H7.49922L6.89922 11.75L7.09922 12.5L6.49922 12.05L5.89922 12.5L6.09922 11.75L5.49922 11.25H6.24922L6.49922 10.5ZM12.4992 13.5L12.7492 14.25H13.4992L12.8992 14.75L13.0992 15.5L12.4992 15.05L11.8992 15.5L12.0992 14.75L11.4992 14.25H12.2492L12.4992 13.5ZM8.49922 13.5L8.74922 14.25H9.49922L8.89922 14.75L9.09922 15.5L8.49922 15.05L7.89922 15.5L8.09922 14.75L7.49922 14.25H8.24922L8.49922 13.5ZM4.49922 13.5L4.74922 14.25H5.49922L4.89922 14.75L5.09922 15.5L4.49922 15.05L3.89922 15.5L4.09922 14.75L3.49922 14.25H4.24922L4.49922 13.5ZM5.89922 6.5L6.49922 6.05L7.09922 6.5L6.84922 5.75L7.44922 5.25H6.69922L6.49922 4.5L6.24922 5.25H5.54922L6.14922 5.7L5.89922 6.5ZM1.89922 12.5L2.49922 12.05L3.09922 12.5L2.84922 11.75L3.44922 11.25H2.74922L2.49922 10.5L2.24922 11.25H1.74922C1.74922 11.3 1.69922 11.35 1.69922 11.4L2.09922 11.7L1.89922 12.5Z" fill="white"/>
</svg>
