<svg width="16" height="16" viewBox="0 0 16 16" fill="none" xmlns="http://www.w3.org/2000/svg">
<path d="M5.59375 12.3267V5.55334C5.59375 5.28667 5.67375 5.02667 5.82042 4.80667L7.64042 2.1C7.92708 1.66667 8.64042 1.36 9.24708 1.58667C9.90042 1.80667 10.3337 2.54 10.1937 3.19334L9.84708 5.37334C9.82042 5.57334 9.87375 5.75334 9.98708 5.89334C10.1004 6.02 10.2671 6.1 10.4471 6.1H13.1871C13.7137 6.1 14.1671 6.31334 14.4337 6.68667C14.6871 7.04667 14.7337 7.51334 14.5671 7.98667L12.9271 12.98C12.7204 13.8067 11.8204 14.48 10.9271 14.48H8.32708C7.88042 14.48 7.25375 14.3267 6.96708 14.04L6.11375 13.38C5.78708 13.1333 5.59375 12.74 5.59375 12.3267Z" fill="#333333"/>
<path d="M3.47203 4.25333H2.78536C1.75203 4.25333 1.33203 4.65333 1.33203 5.63999V12.3467C1.33203 13.3333 1.75203 13.7333 2.78536 13.7333H3.47203C4.50536 13.7333 4.92536 13.3333 4.92536 12.3467V5.63999C4.92536 4.65333 4.50536 4.25333 3.47203 4.25333Z" fill="#333333"/>
</svg>
