<svg width="32" height="32" viewBox="0 0 32 32" fill="none" xmlns="http://www.w3.org/2000/svg">
<path d="M30.6673 12L18.3749 2.16601C17.7011 1.62698 16.8639 1.33331 16.001 1.33331C15.1381 1.33331 14.3002 1.62698 13.6264 2.16601L1.33398 12V28C1.33398 29.4727 2.52789 30.6666 4.00065 30.6666H28.0007C29.4734 30.6666 30.6673 29.4727 30.6673 28V12Z" fill="#E6E6E5"/>
<path opacity="0.2" d="M1.57208 12.1666L13.6265 2.49933C14.3002 1.96027 15.1375 1.66665 16.0003 1.66665C16.8632 1.66665 17.7011 1.96027 18.3748 2.49933L30.441 12.1584L30.6673 12L18.3748 2.166C17.7011 1.62693 16.8639 1.33331 16.001 1.33331C15.1381 1.33331 14.3002 1.62693 13.6265 2.166L1.33398 12L1.57208 12.1666Z" fill="white"/>
<path d="M24.0007 24H8.00065C6.52789 24 5.33398 22.8061 5.33398 21.3333V6.66667C5.33398 5.19391 6.52789 4 8.00065 4H24.0007C25.4734 4 26.6673 5.19391 26.6673 6.66667V21.3333C26.6673 22.8061 25.4734 24 24.0007 24Z" fill="#2D98D4"/>
<path opacity="0.2" d="M24.0007 4H8.00065C6.52791 4 5.33398 5.19385 5.33398 6.66667V7C5.33398 5.52718 6.52791 4.33333 8.00065 4.33333H24.0007C25.4734 4.33333 26.6673 5.52718 26.6673 7V6.66667C26.6673 5.19385 25.4734 4 24.0007 4Z" fill="white"/>
<path d="M30.6667 12L4 30.6667H28C29.4728 30.6667 30.6667 29.4728 30.6667 28V12Z" fill="#F0F0F0"/>
<path d="M1.33398 12L28.0006 30.6667H4.00065C2.52789 30.6667 1.33398 29.4728 1.33398 28V12Z" fill="#F5F5F5"/>
<path opacity="0.2" d="M1.6674 28.3333V12.5667L27.0483 30.3333H27.5245L1.33398 12V27.6667C1.33398 28.2363 1.51579 28.7616 1.82007 29.1948C1.72453 28.9248 1.6674 28.6369 1.6674 28.3333Z" fill="white"/>
<path opacity="0.2" d="M16 22.2667L16.2381 22.4333L30.6667 12.3333V12L16 22.2667Z" fill="white"/>
<path opacity="0.05" d="M28.0007 30.3333H27.5245H27.0483H4.00065C3.09749 30.3333 2.30241 29.8817 1.82007 29.1948C1.68058 28.9961 1.57463 28.7755 1.49308 28.5421C1.47713 28.4971 1.46444 28.4524 1.45093 28.4063C1.38232 28.17 1.33398 27.9251 1.33398 27.6666V28C1.33398 29.4727 2.52791 30.6666 4.00065 30.6666H28.0007C29.4734 30.6666 30.6673 29.4727 30.6673 28V27.6666C30.6673 29.1394 29.4734 30.3333 28.0007 30.3333Z" fill="#010101"/>
<path d="M22.6673 8H9.33398V9.33333H22.6673V8Z" fill="white"/>
<path d="M22.6673 12H9.33398V13.3333H22.6673V12Z" fill="white"/>
<path d="M20 16H12V17.3333H20V16Z" fill="white"/>
<path d="M1.33398 12L16.0007 22.2667L30.6673 12H1.33398Z" fill="url(#paint0_linear_3132_7018)"/>
<path d="M26.6673 8.79995V6.66665C26.6673 5.19383 25.4734 3.99998 24.0007 3.99998H20.6673L18.3748 2.166C17.7011 1.62693 16.8639 1.33331 16.001 1.33331C15.1381 1.33331 14.3002 1.62693 13.6265 2.166L11.334 3.99998H8.00065C6.52791 3.99998 5.33398 5.19383 5.33398 6.66665V8.79995L1.33398 12V28C1.33398 29.4727 2.52791 30.6666 4.00065 30.6666H28.0007C29.4734 30.6666 30.6673 29.4727 30.6673 28V12L26.6673 8.79995Z" fill="url(#paint1_linear_3132_7018)"/>
<defs>
<linearGradient id="paint0_linear_3132_7018" x1="16.0007" y1="12" x2="16.0007" y2="22.2667" gradientUnits="userSpaceOnUse">
<stop stop-color="#010101" stop-opacity="0"/>
<stop offset="1" stop-color="#010101" stop-opacity="0.1"/>
</linearGradient>
<linearGradient id="paint1_linear_3132_7018" x1="1.55355" y1="11.5291" x2="32.0031" y2="25.728" gradientUnits="userSpaceOnUse">
<stop stop-color="white" stop-opacity="0.2"/>
<stop offset="1" stop-color="white" stop-opacity="0"/>
</linearGradient>
</defs>
</svg>
