<svg width="24" height="24" viewBox="0 0 24 24" fill="none" xmlns="http://www.w3.org/2000/svg">
<g clip-path="url(#clip0_3264_5754)">
<path d="M21.8323 1.81678C20.4655 0.645233 18.655 0 16.7344 0C14.8137 0 13.0032 0.645233 11.6364 1.81678C10.2386 3.01495 9.46875 4.61708 9.46875 6.32811C9.46875 8.03914 10.2386 9.64128 11.6364 10.8394C11.8869 11.0541 12.1524 11.251 12.4306 11.4296C11.9168 12.2037 11.3162 12.9153 10.6406 13.5483C12.1142 13.4264 13.5115 13.0359 14.7841 12.4268C15.4116 12.5779 16.0663 12.6562 16.7344 12.6562C18.655 12.6562 20.4655 12.011 21.8323 10.8394C23.2301 9.64128 24 8.03914 24 6.32811C24 4.61708 23.2301 3.01495 21.8323 1.81678Z" fill="#FFDC40"/>
<path d="M21.8323 1.81678C20.4655 0.645233 18.655 0 16.7344 0V12.6562C18.655 12.6562 20.4655 12.011 21.8323 10.8394C23.2302 9.64128 24 8.03914 24 6.32811C24 4.61708 23.2302 3.01495 21.8323 1.81678Z" fill="#FFAB15"/>
<path d="M4.52534 19.4747C8.21529 23.1646 12.4031 24.9594 13.8791 23.4834L15.6608 21.7017C16.0298 21.3327 16.0298 20.7345 15.6608 20.3655L13.4337 18.1384C13.0647 17.7694 12.4664 17.7694 12.0974 18.1384L10.7612 19.4747C8.02483 18.1785 5.82148 15.9752 4.52534 13.2389L5.8616 11.9026C6.2306 11.5336 6.2306 10.9353 5.8616 10.5663L3.63453 8.33925C3.26553 7.97025 2.66727 7.97025 2.29827 8.33925L0.516598 10.1209C-0.9594 11.5969 0.835394 15.7847 4.52534 19.4747Z" fill="#4DAEFF"/>
<path d="M16.7344 7.26562C17.2521 7.26562 17.6719 6.84589 17.6719 6.32812C17.6719 5.81036 17.2521 5.39062 16.7344 5.39062C16.2166 5.39062 15.7969 5.81036 15.7969 6.32812C15.7969 6.84589 16.2166 7.26562 16.7344 7.26562Z" fill="white"/>
<path d="M13.4531 7.26562C13.9709 7.26562 14.3906 6.84589 14.3906 6.32812C14.3906 5.81036 13.9709 5.39062 13.4531 5.39062C12.9354 5.39062 12.5156 5.81036 12.5156 6.32812C12.5156 6.84589 12.9354 7.26562 13.4531 7.26562Z" fill="white"/>
<path d="M20.0156 7.26562C20.5334 7.26562 20.9531 6.84589 20.9531 6.32812C20.9531 5.81036 20.5334 5.39062 20.0156 5.39062C19.4979 5.39062 19.0781 5.81036 19.0781 6.32812C19.0781 6.84589 19.4979 7.26562 20.0156 7.26562Z" fill="#DCF4FF"/>
<path d="M15.6608 20.3656L13.4337 18.1385C13.0647 17.7695 12.4665 17.7695 12.0975 18.1385L10.7612 19.4748C9.39302 18.8267 8.15815 17.9518 7.10323 16.897L4.52539 19.4748C8.21534 23.1648 12.4031 24.9596 13.8791 23.4836L15.6608 21.7019C16.0298 21.3329 16.0298 20.7346 15.6608 20.3656Z" fill="#008BFF"/>
<path d="M16.7344 5.39062V7.26562C17.2522 7.26562 17.6719 6.8459 17.6719 6.32812C17.6719 5.81034 17.2522 5.39062 16.7344 5.39062Z" fill="#DCF4FF"/>
</g>
<defs>
<clipPath id="clip0_3264_5754">
<rect width="24" height="24" fill="white"/>
</clipPath>
</defs>
</svg>
