<svg width="24" height="24" viewBox="0 0 24 24" fill="none" xmlns="http://www.w3.org/2000/svg">
<g clip-path="url(#clip0_3174_8093)">
<path d="M8.62646 5.25L7.57728 2.25C7.29336 1.43819 7.92159 0.75 8.70227 0.75H13.0574C13.8381 0.75 14.4315 1.42684 14.1824 2.25L13.1264 5.25H8.62646Z" fill="#FFCA28"/>
<path d="M12.3047 0.75C13.0854 0.75 13.6788 1.42685 13.4297 2.25L12.3735 5.25H13.1235L14.1797 2.25C14.4288 1.42685 13.8354 0.75 13.0547 0.75H12.3047Z" fill="#ECB200"/>
<path d="M7.87501 10.5C7.87501 12.375 4.125 14.261 4.125 18.011C4.125 21.386 6.74351 23.25 10.875 23.25C15.0065 23.25 17.625 21.386 17.625 18.011C17.625 14.261 13.875 12.375 13.875 10.5H7.87501Z" fill="#FFCA28"/>
<path d="M10.8765 13.8731C10.6702 13.8768 10.5059 14.0167 10.5007 14.2474V14.6238H10.1272C9.51047 14.6238 9 15.1306 9 15.7474V16.4974C9 17.1141 9.51047 17.6216 10.1272 17.6216H10.5007V19.1216H10.1272C9.91297 19.1216 9.75073 18.9623 9.75073 18.7481C9.75073 18.2476 9 18.2476 9 18.7481C9 19.3649 9.51047 19.8724 10.1272 19.8724H10.5007V20.2488C10.5115 20.7399 11.2328 20.7598 11.2507 20.2488V19.8724H11.6243C12.241 19.8724 12.7515 19.3649 12.7515 18.7481V17.9981C12.7515 17.3814 12.241 16.8746 11.6243 16.8746H11.2507V15.3738H11.6243C11.8385 15.3738 12.0007 15.5331 12.0007 15.7474C12.0007 16.2479 12.7515 16.2479 12.7515 15.7474C12.7515 15.1306 12.241 14.6238 11.6243 14.6238H11.2507V14.2474C11.2517 14.0374 11.0879 13.8694 10.8765 13.8731ZM10.1272 15.3738H10.5007V16.8746H10.1272C9.91297 16.8746 9.75073 16.7116 9.75073 16.4974V15.7474C9.75073 15.5332 9.91297 15.3738 10.1272 15.3738ZM11.2507 17.6216H11.6243C11.8385 17.6216 12.0007 17.7839 12.0007 17.9981V18.7481C12.0007 18.9623 11.8385 19.1216 11.6243 19.1216H11.2507V17.6216Z" fill="#ECB200"/>
<path d="M7.87524 10.5C7.87524 10.7254 7.82409 10.9452 7.73828 11.1643C8.00714 11.2112 8.29286 11.25 8.62524 11.25H13.1252C13.4447 11.25 13.7249 11.1114 13.9287 10.8984C13.8965 10.7669 13.8752 10.6344 13.8752 10.5L7.87524 10.5Z" fill="#ECB200"/>
<path d="M13.125 10.5C13.125 12.75 16.875 14.636 16.875 18.011C16.875 21.2808 14.3885 23.1261 10.5 23.2389C10.625 23.2426 10.7463 23.25 10.875 23.25C15.0065 23.25 17.625 21.3861 17.625 18.0111C17.625 14.2611 13.875 12.3751 13.875 10.5001L13.125 10.5Z" fill="#ECB200"/>
<path d="M4.47287 5.25488H6.02713C6.21985 5.25488 6.375 5.41003 6.375 5.60275V10.9026C6.375 11.0953 6.21985 11.2505 6.02713 11.2505H4.47287C4.28015 11.2505 4.125 11.0953 4.125 10.9026V5.60275C4.125 5.41003 4.28015 5.25488 4.47287 5.25488Z" fill="#E4EFF8"/>
<path d="M14.4258 6.1311C14.5485 5.99766 14.625 5.82145 14.625 5.625C14.625 5.2095 14.2905 4.875 13.875 4.875H9.37499C8.00649 4.875 7.56508 5.49284 6.375 5.60229V10.5139C6.91521 10.5776 7.61961 10.875 8.625 10.875H13.125C13.7482 10.875 14.25 10.3733 14.25 9.75C14.25 9.54849 14.1956 9.36101 14.1035 9.19775C14.4168 8.99845 14.625 8.65033 14.625 8.25C14.625 8.02094 14.5571 7.80846 14.3166 7.6311C14.4544 7.42546 14.625 7.10999 14.625 6.75C14.6304 6.50089 14.5597 6.26502 14.4258 6.1311Z" fill="#FFC6A0"/>
<path d="M14.6067 6.5293C14.4182 6.88335 14.0486 7.12476 13.6179 7.12476H12.375C12.1672 7.12476 12 7.29201 12 7.49976C12 7.70751 12.1672 7.87476 12.375 7.87476H13.6179C13.8866 7.87476 14.1763 7.76756 14.3225 7.62134C14.5069 7.43834 14.625 7.1048 14.625 6.74976C14.6267 6.67375 14.6189 6.60032 14.6067 6.5293Z" fill="#FFAF7A"/>
<path d="M12.3711 8.625C12.1633 8.625 11.9961 8.79225 11.9961 9C11.9961 9.20775 12.1633 9.375 12.3711 9.375H13.4961C14.1193 9.375 14.6211 8.87325 14.6211 8.25C14.6211 8.11963 14.602 7.99379 14.5391 7.875C14.3827 8.30799 13.9843 8.625 13.4961 8.625H12.3711Z" fill="#FFAF7A"/>
<path d="M4.125 5.25391V11.2495H4.87499V5.25391H4.125Z" fill="#C4DCF0"/>
<path d="M13.125 10.1255H8.625C7.61961 10.1255 6.91521 9.82809 6.375 9.7644V10.5144C6.91521 10.5781 7.61961 10.8755 8.625 10.8755H13.125C13.7482 10.8755 14.25 10.3737 14.25 9.75049C14.25 9.62012 14.2207 9.49867 14.1797 9.38281C14.0234 9.8158 13.6132 10.1255 13.125 10.1255Z" fill="#FFAF7A"/>
<path d="M7.12499 5.4502C6.90229 5.51954 6.66087 5.57625 6.375 5.60254V10.5142C6.59222 10.5398 6.84578 10.6042 7.12499 10.6709V5.4502Z" fill="#FFAF7A"/>
<path d="M5.625 5.25391V11.2495H6.0271C6.21982 11.2495 6.375 11.0943 6.375 10.9016V5.60181C6.375 5.40909 6.21982 5.25391 6.0271 5.25391H5.625Z" fill="#C4DCF0"/>
<path d="M13.7256 5.62451H12.375C12.1672 5.62451 12 5.79176 12 5.99951C12 6.20726 12.1672 6.37451 12.375 6.37451H13.7256C13.9981 6.37451 14.244 6.27454 14.4382 6.1145C14.553 5.98301 14.625 5.8136 14.625 5.62451C14.625 5.49714 14.5912 5.37926 14.5357 5.27441C14.3321 5.48924 14.0466 5.62451 13.7256 5.62451Z" fill="#FFAF7A"/>
<path d="M19.4625 4.50098C19.2549 4.52064 19.1032 4.70591 19.1248 4.91333L19.4595 8.24949H18.3749C18.0659 8.25016 17.8903 8.60321 18.0761 8.85007L20.3237 11.8479C20.4737 12.0483 20.7743 12.0483 20.9243 11.8479L23.1741 8.85007C23.3608 8.60213 23.1828 8.24773 22.8724 8.24949H21.7878L22.1225 4.91333C22.1446 4.69241 21.971 4.50076 21.7489 4.50098H19.4625Z" fill="#E4EFF8"/>
<path d="M18.8605 12.4836L18.3317 13.0124C17.9773 13.3669 18.509 13.8986 18.8634 13.5441L19.3922 13.0153C19.7555 12.6414 19.2237 12.1386 18.8605 12.4836Z" fill="#68A4D4"/>
<path d="M21.8592 13.0158L22.3879 13.5446C22.7424 13.9116 23.2857 13.3653 22.9167 13.0129L22.3879 12.484C22.0121 12.1288 21.5026 12.6642 21.8592 13.0158Z" fill="#68A4D4"/>
<path d="M20.2501 13.1207V13.8678C20.2501 14.3683 21.0008 14.3683 21.0008 13.8678V13.1207C20.9817 12.587 20.2391 12.6433 20.2501 13.1207Z" fill="#68A4D4"/>
<path d="M10.8765 13.5001C10.6702 13.5037 10.5059 13.6436 10.5007 13.8743V14.2508H10.1272C9.51047 14.2508 9 14.7576 9 15.3743V16.1243C9 16.7411 9.51047 17.2486 10.1272 17.2486H10.5007V18.7486H10.1272C9.91297 18.7486 9.75073 18.5893 9.75073 18.3751C9.75073 17.8746 9 17.8746 9 18.3751C9 18.9918 9.51047 19.4993 10.1272 19.4993H10.5007V19.8758C10.5115 20.3669 11.2328 20.3868 11.2507 19.8758V19.4993H11.6243C12.241 19.4993 12.7515 18.9918 12.7515 18.3751V17.6251C12.7515 17.0083 12.241 16.5015 11.6243 16.5015H11.2507V15.0008H11.6243C11.8385 15.0008 12.0007 15.1601 12.0007 15.3743C12.0007 15.8748 12.7515 15.8748 12.7515 15.3743C12.7515 14.7576 12.241 14.2508 11.6243 14.2508H11.2507V13.8743C11.2517 13.6644 11.0879 13.4963 10.8765 13.5001ZM10.1272 15.0008H10.5007V16.5015H10.1272C9.91297 16.5015 9.75073 16.3386 9.75073 16.1243V15.3743C9.75073 15.1601 9.91297 15.0008 10.1272 15.0008ZM11.2507 17.2486H11.6243C11.8385 17.2486 12.0007 17.4108 12.0007 17.6251V18.3751C12.0007 18.5893 11.8385 18.7486 11.6243 18.7486H11.2507V17.2486Z" fill="#E4EFF8"/>
<path d="M1.125 4.875H4.12503C4.33278 4.875 4.50003 5.04225 4.50003 5.25V11.25C4.50003 11.4577 4.33278 11.625 4.12503 11.625H1.125C0.91725 11.625 0.75 11.4577 0.75 11.25V5.25C0.75 5.04225 0.91725 4.875 1.125 4.875Z" fill="#68A4D4"/>
<path d="M3.75 4.875V11.625H4.125C4.33275 11.625 4.5 11.4578 4.5 11.25V5.25C4.5 5.04225 4.33275 4.875 4.125 4.875H3.75Z" fill="#4992CB"/>
<path d="M1.87498 10.125C1.66788 10.125 1.5 10.2929 1.5 10.5C1.5 10.7071 1.66788 10.875 1.87498 10.875C2.08207 10.875 2.24995 10.7071 2.24995 10.5C2.24995 10.2929 2.08207 10.125 1.87498 10.125Z" fill="#E4EFF8"/>
<path d="M21.375 4.50098C21.597 4.50076 21.7706 4.69241 21.7485 4.91333L21.4138 8.24951H21.7859L22.1206 4.91333C22.1427 4.69241 21.9691 4.50076 21.7471 4.50098H21.375Z" fill="#C4DCF0"/>
<path d="M22.5 8.24903C22.8104 8.24727 22.9884 8.60168 22.8018 8.84962L20.5518 11.8474C20.5199 11.89 20.4801 11.9218 20.4375 11.9463C20.5953 12.037 20.8057 12.0053 20.9238 11.8474L23.1738 8.84962C23.3605 8.60168 23.1825 8.24727 22.8721 8.24903H22.5Z" fill="#C4DCF0"/>
<path d="M18.946 12.428C19.1323 12.5399 19.2276 12.798 19.0156 13.0161L18.4868 13.545C18.4612 13.5706 18.4333 13.5817 18.4062 13.5984C18.5386 13.6816 18.7141 13.6927 18.8618 13.545L19.3906 13.0161C19.6631 12.7358 19.4325 12.3828 19.1467 12.3694C19.0807 12.3663 19.0124 12.3898 18.946 12.428Z" fill="#4992CB"/>
<path d="M22.095 12.3678C22.0329 12.3716 21.9773 12.3964 21.9258 12.4286C21.9546 12.4456 21.9837 12.458 22.0115 12.4843L22.5403 13.0131C22.7553 13.2185 22.6575 13.4848 22.4707 13.6027C22.819 13.821 23.2565 13.339 22.9153 13.0131L22.3865 12.4843C22.2925 12.3954 22.19 12.3621 22.095 12.3678Z" fill="#4992CB"/>
<path d="M20.6133 12.7415C20.5509 12.7439 20.4921 12.7652 20.4375 12.795C20.5395 12.8517 20.619 12.9543 20.625 13.1209V13.868C20.625 14.0297 20.5436 14.133 20.4375 14.1902C20.6598 14.3096 21 14.2065 21 13.868V13.1209C20.9904 12.854 20.7999 12.7345 20.6133 12.7415Z" fill="#4992CB"/>
</g>
<defs>
<clipPath id="clip0_3174_8093">
<rect width="24" height="24" fill="white"/>
</clipPath>
</defs>
</svg>
