<svg width="101" height="100" viewBox="0 0 101 100" fill="none" xmlns="http://www.w3.org/2000/svg">
    <g clip-path="url(#clip0_3132_7091)">
        <path d="M100.112 77.956L90.0834 62.4999C89.6918 61.9517 88.6725 60.4165 88 60.4165H13C12.3275 60.4165 11.3084 61.9515 10.9166 62.4999L0.8875 77.956C0.635262 78.3092 0.499775 78.7325 0.5 79.1665V81.2499C0.501086 82.3546 0.940415 83.4138 1.72157 84.1949C2.50272 84.9761 3.56188 85.4154 4.6666 85.4165H96.3334C97.4381 85.4154 98.4973 84.9761 99.2784 84.1949C100.06 83.4138 100.499 82.3546 100.5 81.2499V79.1665C100.5 78.7325 100.365 78.3092 100.112 77.956Z" fill="#EAEFF0"/>
        <path d="M83.9242 14.5835H17.0746C15.4418 14.5854 13.8764 15.2348 12.7218 16.3894C11.5672 17.544 10.9178 19.1095 10.916 20.7423V62.5001H90.0828V20.7423C90.081 19.1095 89.4316 17.544 88.277 16.3894C87.1225 15.2348 85.557 14.5854 83.9242 14.5835Z" fill="#2D4A60"/>
        <path d="M10.916 20.7424V62.5002H90.0828L13.1967 15.9639C12.4845 16.5401 11.9101 17.2682 11.5155 18.095C11.1209 18.9218 10.9161 19.8263 10.916 20.7424Z" fill="#263F52"/>
        <path d="M83.8342 18.75H17.1674C16.6148 18.75 16.0849 18.9695 15.6942 19.3602C15.3035 19.7509 15.084 20.2808 15.084 20.8334V58.3334H85.9174V20.8334C85.9174 20.2809 85.6979 19.751 85.3072 19.3603C84.9166 18.9696 84.3867 18.7501 83.8342 18.75Z" fill="#00AAE5"/>
        <path d="M17.8014 18.75H17.1674C16.6148 18.75 16.0849 18.9695 15.6942 19.3602C15.3035 19.7509 15.084 20.2808 15.084 20.8334V58.3334H83.2002L17.8014 18.75Z" fill="#009AE0"/>
        <path d="M4.6666 85.4165H96.3334C97.4381 85.4154 98.4973 84.9761 99.2784 84.1949C100.06 83.4138 100.499 82.3546 100.5 81.2499V79.1665H0.5V81.2499C0.501086 82.3546 0.940414 83.4138 1.72157 84.1949C2.50272 84.9761 3.56188 85.4154 4.6666 85.4165Z" fill="#BAC2C6"/>
        <path d="M10.888 72.9165H90.1107C90.2936 72.9166 90.4733 72.8685 90.6317 72.7771C90.7901 72.6858 90.9217 72.5543 91.0132 72.3959C91.1047 72.2375 91.1528 72.0579 91.1528 71.875C91.1529 71.6921 91.1047 71.5124 91.0132 71.354L87.7125 65.6257C87.5297 65.3086 87.2667 65.0452 86.9498 64.8621C86.6329 64.6789 86.2734 64.5825 85.9074 64.5825H15.0912C14.7252 64.5825 14.3656 64.6789 14.0488 64.8621C13.7319 65.0452 13.4688 65.3086 13.2861 65.6257L9.98531 71.354C9.89383 71.5124 9.84569 71.6921 9.8457 71.875C9.84572 72.0579 9.8939 72.2376 9.98541 72.396C10.0769 72.5544 10.2085 72.6858 10.367 72.7772C10.5254 72.8686 10.7051 72.9166 10.888 72.9165Z" fill="#BAC2C6"/>
        <path d="M43.5578 74.4299L43.2621 77.5549C43.2552 77.6271 43.2636 77.7 43.2866 77.7689C43.3096 77.8377 43.3467 77.901 43.3956 77.9547C43.4445 78.0083 43.504 78.0512 43.5704 78.0805C43.6368 78.1098 43.7086 78.1249 43.7812 78.1248H57.2187C57.2913 78.1248 57.363 78.1097 57.4293 78.0803C57.4957 78.051 57.5552 78.0081 57.604 77.9545C57.6528 77.9008 57.6899 77.8376 57.7128 77.7688C57.7358 77.6999 57.7441 77.6271 57.7373 77.5549L57.4416 74.4299C57.4294 74.3008 57.3695 74.1809 57.2736 74.0936C57.1777 74.0064 57.0527 73.958 56.923 73.958H44.0763C43.9467 73.958 43.8217 74.0064 43.7258 74.0936C43.6299 74.1809 43.57 74.3008 43.5578 74.4299Z" fill="#BAC2C6"/>
    </g>
    <defs>
        <clipPath id="clip0_3132_7091">
            <rect width="100" height="100" fill="white" transform="translate(0.5)"/>
        </clipPath>
    </defs>
</svg>
