<svg width="24" height="24" viewBox="0 0 24 24" fill="none" xmlns="http://www.w3.org/2000/svg">
    <path d="M2.38281 9.34973V11.9974V13.7625V19.9403C2.38281 20.9111 3.17305 21.7054 4.14791 21.7054H12.0909H20.0338C21.0091 21.7054 21.7989 20.9111 21.7989 19.9403V13.7625V11.9974V9.34973H2.38281Z" fill="#F39C12"/>
    <path d="M2.38281 8.46704V11.1147V12.8798V19.0577C2.38281 20.0285 3.17305 20.8228 4.14791 20.8228H12.0909H20.0338C21.0091 20.8228 21.7989 20.0285 21.7989 19.0577V12.8798V11.1147V8.46704H2.38281Z" fill="#EF4D4D"/>
    <path d="M3.2651 6.70203C2.29024 6.70203 1.5 7.49632 1.5 8.46713V10.2322H22.6812V8.46713C22.6812 7.49632 21.8913 6.70203 20.9161 6.70203H19.151H12.9732H11.2081H5.0302H3.2651Z" fill="#CB465F"/>
    <path d="M14.7387 5.81946H9.44336V21.7054H14.7387V5.81946Z" fill="url(#paint0_linear_3499_4947)"/>
    <path d="M8.4581 2.28928C7.57679 2.20103 6.71657 2.64226 6.24475 3.3483C5.55848 4.40736 5.9686 5.73121 7.15731 6.349C7.53954 6.61376 7.94896 6.70204 8.36102 6.70204H8.56489H11.4775H12.7007H15.6122H15.8161C16.2283 6.70204 16.6475 6.61376 17.0296 6.349C18.2184 5.73121 18.6191 4.40736 17.9325 3.3483C17.2467 2.28924 15.7331 1.9362 14.5444 2.55398C14.1622 2.73049 13.8621 2.99528 13.6521 3.3483H13.6327C13.6044 3.43656 13.5797 3.43662 13.555 3.52488L12.0891 5.73125L10.6232 3.52488C10.5985 3.43662 10.5738 3.43656 10.5455 3.3483H10.5261C10.3155 2.99528 10.0247 2.73049 9.6424 2.55398C9.27093 2.37747 8.85869 2.28928 8.4581 2.28928ZM8.31248 3.3483C8.55121 3.3483 8.79824 3.43662 9.02117 3.52488C9.09592 3.52488 9.16317 3.61311 9.22495 3.61311C9.26846 3.70137 9.30456 3.70132 9.34145 3.78958H9.37057C9.39043 3.78958 9.41117 3.87781 9.42882 3.87781H9.45795H9.46765C9.48177 3.96607 9.50384 3.96615 9.51619 3.96615L10.5455 5.55468H8.48723H8.37073H8.32219H8.22511H8.17657C8.12009 5.55468 8.06704 5.5547 8.01153 5.46645C7.93263 5.46645 7.85338 5.46647 7.77854 5.37821C7.63001 5.37821 7.49727 5.20166 7.39992 5.1134C7.10806 4.76038 7.06491 4.31909 7.32226 3.87781C7.53672 3.61305 7.91454 3.3483 8.31248 3.3483ZM15.8744 3.3483C16.2724 3.3483 16.6501 3.61305 16.8646 3.87781C17.1223 4.31909 17.0693 4.76038 16.7772 5.1134C16.6801 5.20166 16.5574 5.37821 16.4083 5.37821C16.3342 5.46647 16.2547 5.46645 16.1753 5.46645C16.1206 5.5547 16.057 5.55468 16.0006 5.55468H15.952H15.8549H15.8064H15.6899H13.6327L14.6608 3.96615C14.6732 3.96615 14.6953 3.96607 14.7094 3.87781H14.7191C14.7173 3.87781 14.7217 3.87781 14.7191 3.87781H14.7482C14.7659 3.87781 14.7871 3.78958 14.8065 3.78958H14.8356C14.8727 3.70132 14.9186 3.70137 14.9618 3.61311C15.0245 3.61311 15.0915 3.52488 15.1657 3.52488C15.389 3.43662 15.6361 3.3483 15.8744 3.3483Z" fill="#C0392B"/>
    <path d="M8.4581 2.28928C7.57679 2.20103 6.71657 2.64226 6.24475 3.3483C5.55848 4.40736 5.9686 5.73121 7.15731 6.349C7.53954 6.61376 7.94896 6.70204 8.36102 6.70204H8.56489H11.4775H12.7007H15.6122H15.8161C16.2283 6.70204 16.6475 6.61376 17.0296 6.349C18.2184 5.73121 18.6191 4.40736 17.9325 3.3483C17.2467 2.28924 15.7331 1.9362 14.5444 2.55398C14.1622 2.73049 13.8621 2.99528 13.6521 3.3483H13.6327C13.6044 3.43656 13.5797 3.43662 13.555 3.52488L12.0891 5.73125L10.6232 3.52488C10.5985 3.43662 10.5738 3.43656 10.5455 3.3483H10.5261C10.3155 2.99528 10.0247 2.73049 9.6424 2.55398C9.27093 2.37747 8.85869 2.28928 8.4581 2.28928ZM8.31248 3.3483C8.55121 3.3483 8.79824 3.43662 9.02117 3.52488C9.09592 3.52488 9.16317 3.61311 9.22495 3.61311C9.26846 3.70137 9.30456 3.70132 9.34145 3.78958H9.37057C9.39043 3.78958 9.41117 3.87781 9.42882 3.87781H9.45795H9.46765C9.48177 3.96607 9.50384 3.96615 9.51619 3.96615L10.5455 5.55468H8.48723H8.37073H8.32219H8.22511H8.17657C8.12009 5.55468 8.06704 5.5547 8.01153 5.46645C7.93263 5.46645 7.85338 5.46647 7.77854 5.37821C7.63001 5.37821 7.49727 5.20166 7.39992 5.1134C7.10806 4.76038 7.06491 4.31909 7.32226 3.87781C7.53672 3.61305 7.91454 3.3483 8.31248 3.3483ZM15.8744 3.3483C16.2724 3.3483 16.6501 3.61305 16.8646 3.87781C17.1223 4.31909 17.0693 4.76038 16.7772 5.1134C16.6801 5.20166 16.5574 5.37821 16.4083 5.37821C16.3342 5.46647 16.2547 5.46645 16.1753 5.46645C16.1206 5.5547 16.057 5.55468 16.0006 5.55468H15.952H15.8549H15.8064H15.6899H13.6327L14.6608 3.96615C14.6732 3.96615 14.6953 3.96607 14.7094 3.87781H14.7191C14.7173 3.87781 14.7217 3.87781 14.7191 3.87781H14.7482C14.7659 3.87781 14.7871 3.78958 14.8065 3.78958H14.8356C14.8727 3.70132 14.9186 3.70137 14.9618 3.61311C15.0245 3.61311 15.0915 3.52488 15.1657 3.52488C15.389 3.43662 15.6361 3.3483 15.8744 3.3483Z" fill="url(#paint1_linear_3499_4947)"/>
    <path d="M21.7989 10.2324H2.38281V12.8801H21.7989V10.2324Z" fill="#EF4D4D"/>
    <path d="M14.7387 20.823H9.44336V21.7055H14.7387V20.823Z" fill="#EF4D4D"/>
    <path d="M9.44322 10.2324H2.38281V11.115H9.44322V10.2324Z" fill="#F6C511"/>
    <path d="M21.7987 10.2324H14.7383V11.115H21.7987V10.2324Z" fill="#F6C511"/>
    <defs>
        <linearGradient id="paint0_linear_3499_4947" x1="14.4317" y1="10.2896" x2="9.04688" y2="10.8897" gradientUnits="userSpaceOnUse">
            <stop stop-color="#FBC33E"/>
            <stop offset="0.0995261" stop-color="#F6E343"/>
            <stop offset="0.494792" stop-color="#FFCC50"/>
            <stop offset="1" stop-color="#F94E3E"/>
        </linearGradient>
        <linearGradient id="paint1_linear_3499_4947" x1="17.5515" y1="3.50276" x2="10.7154" y2="9.84518" gradientUnits="userSpaceOnUse">
            <stop stop-color="#FBC33E"/>
            <stop offset="0.0995261" stop-color="#F6E343"/>
            <stop offset="0.494792" stop-color="#FFCC50"/>
            <stop offset="1" stop-color="#F94E3E"/>
        </linearGradient>
    </defs>
</svg>
