<svg width="32" height="32" viewBox="0 0 32 32" fill="none" xmlns="http://www.w3.org/2000/svg">
<g clip-path="url(#clip0_38_9687)">
<path d="M29.1098 2.42237C27.2873 0.860311 24.8734 0 22.3125 0C19.7516 0 17.3376 0.860311 15.5152 2.42237C13.6514 4.01993 12.625 6.15611 12.625 8.43748C12.625 10.7189 13.6514 12.855 15.5152 14.4526C15.8492 14.7388 16.2032 15.0013 16.5742 15.2395C15.8891 16.2717 15.0882 17.2204 14.1875 18.0643C16.1523 17.9018 18.0153 17.3812 19.7122 16.5691C20.5487 16.7706 21.4217 16.875 22.3125 16.875C24.8734 16.875 27.2873 16.0147 29.1098 14.4526C30.9735 12.855 32 10.7189 32 8.43748C32 6.15611 30.9735 4.01993 29.1098 2.42237Z" fill="#FFDC40"/>
<path d="M29.1098 2.42237C27.2874 0.860311 24.8734 0 22.3125 0V16.875C24.8734 16.875 27.2874 16.0147 29.1098 14.4526C30.9735 12.855 32 10.7189 32 8.43748C32 6.15611 30.9735 4.01993 29.1098 2.42237Z" fill="#FFAB15"/>
<path d="M6.03379 25.9662C10.9537 30.8862 16.5375 33.2792 18.5054 31.3112L20.881 28.9357C21.373 28.4437 21.373 27.646 20.881 27.154L17.9116 24.1845C17.4196 23.6925 16.6219 23.6925 16.1299 24.1845L14.3482 25.9662C10.6998 24.238 7.76197 21.3002 6.03379 17.6518L7.81547 15.8701C8.30747 15.3781 8.30747 14.5804 7.81547 14.0884L4.84604 11.119C4.35404 10.627 3.55635 10.627 3.06435 11.119L0.688797 13.4946C-1.2792 15.4626 1.11386 21.0463 6.03379 25.9662Z" fill="#4DAEFF"/>
<path d="M22.3125 9.6875C23.0029 9.6875 23.5625 9.12785 23.5625 8.4375C23.5625 7.74714 23.0029 7.1875 22.3125 7.1875C21.6221 7.1875 21.0625 7.74714 21.0625 8.4375C21.0625 9.12785 21.6221 9.6875 22.3125 9.6875Z" fill="white"/>
<path d="M17.9375 9.6875C18.6279 9.6875 19.1875 9.12785 19.1875 8.4375C19.1875 7.74714 18.6279 7.1875 17.9375 7.1875C17.2471 7.1875 16.6875 7.74714 16.6875 8.4375C16.6875 9.12785 17.2471 9.6875 17.9375 9.6875Z" fill="white"/>
<path d="M26.6875 9.6875C27.3779 9.6875 27.9375 9.12785 27.9375 8.4375C27.9375 7.74714 27.3779 7.1875 26.6875 7.1875C25.9971 7.1875 25.4375 7.74714 25.4375 8.4375C25.4375 9.12785 25.9971 9.6875 26.6875 9.6875Z" fill="#DCF4FF"/>
<path d="M20.8814 27.1542L17.912 24.1847C17.42 23.6927 16.6223 23.6927 16.1303 24.1847L14.3486 25.9664C12.5244 25.1023 10.8779 23.9358 9.4713 22.5293L6.03418 25.9664C10.9541 30.8863 16.5378 33.2794 18.5058 31.3114L20.8814 28.9358C21.3734 28.4438 21.3734 27.6462 20.8814 27.1542Z" fill="#008BFF"/>
<path d="M22.3125 7.1875V9.6875C23.0029 9.6875 23.5625 9.12787 23.5625 8.4375C23.5625 7.74712 23.0029 7.1875 22.3125 7.1875Z" fill="#DCF4FF"/>
</g>
<defs>
<clipPath id="clip0_38_9687">
<rect width="32" height="32" fill="white"/>
</clipPath>
</defs>
</svg>
