<svg width="32" height="32" viewBox="0 0 32 32" fill="none" xmlns="http://www.w3.org/2000/svg">
<path d="M26.7849 5.95063C26.7849 5.95063 26.7849 5.92063 26.7499 5.90563C25.3739 4.44079 23.7123 3.27337 21.8678 2.47535C20.0232 1.67733 18.0347 1.26562 16.0249 1.26562C14.0151 1.26562 12.0267 1.67733 10.1821 2.47535C8.33754 3.27337 6.67599 4.44079 5.29994 5.90563H5.27494C5.27494 5.90563 5.27494 5.94063 5.23994 5.95063C2.69666 8.67618 1.28223 12.2652 1.28223 15.9931C1.28223 19.721 2.69666 23.31 5.23994 26.0356C5.23994 26.0356 5.26994 26.0806 5.28994 26.1006H5.32494C6.70114 27.5616 8.36159 28.7258 10.2042 29.5215C12.0469 30.3172 14.0328 30.7277 16.0399 30.7277C18.0471 30.7277 20.033 30.3172 21.8756 29.5215C23.7183 28.7258 25.3787 27.5616 26.7549 26.1006H26.7899C26.7899 26.1006 26.8199 26.0556 26.8399 26.0356C29.3832 23.31 30.7977 19.721 30.7977 15.9931C30.7977 12.2652 29.3832 8.67618 26.8399 5.95063H26.7849Z" fill="#CDE8FF"/>
<path d="M26.7996 26.0356C29.3429 23.31 30.7573 19.721 30.7573 15.9931C30.7573 12.2652 29.3429 8.67618 26.7996 5.95063C26.7996 5.95063 26.7996 5.92063 26.7646 5.90563C25.3885 4.44079 23.727 3.27337 21.8824 2.47535C20.0379 1.67733 18.0494 1.26562 16.0396 1.26562C14.0298 1.26562 12.0413 1.67733 10.1968 2.47535C8.35217 3.27337 6.69068 4.44079 5.31463 5.90563H5.28963C5.28963 5.90563 5.28963 5.94063 5.25463 5.95063C2.71131 8.67618 1.29688 12.2652 1.29688 15.9931C1.29688 19.721 2.71131 23.31 5.25463 26.0356C5.25463 26.0356 5.28463 26.0806 5.30463 26.1006H5.33963C6.71583 27.5616 8.37627 28.7258 10.2189 29.5215C12.0616 30.3172 14.0475 30.7277 16.0546 30.7277C18.0617 30.7277 20.0476 30.3172 21.8903 29.5215C23.7329 28.7258 25.3934 27.5616 26.7696 26.1006H26.8046C26.8046 26.1006 26.7796 26.0556 26.7996 26.0356ZM26.1996 24.4456C25.0253 23.3181 23.674 22.3908 22.1996 21.7006C22.5373 19.8195 22.7046 17.9118 22.6996 16.0006C22.7046 14.0895 22.5373 12.1817 22.1996 10.3006C23.6734 9.60933 25.0245 8.68218 26.1996 7.55563C28.1691 9.92913 29.247 12.9164 29.247 16.0006C29.247 19.0849 28.1691 22.0721 26.1996 24.4456ZM10.8196 16.0006C10.814 14.2816 10.9562 12.5653 11.2446 10.8706C12.7757 11.3916 14.3822 11.6569 15.9996 11.6556C17.617 11.6569 19.2235 11.3916 20.7546 10.8706C21.043 12.5653 21.1852 14.2816 21.1796 16.0006C21.1828 17.7212 21.0406 19.439 20.7546 21.1356C17.6729 20.098 14.3363 20.098 11.2546 21.1356C10.9652 19.4393 10.8197 17.7215 10.8196 16.0006ZM19.3196 3.18063C21.5139 3.75488 23.5235 4.88447 25.1546 6.46063C24.1721 7.40293 23.0507 8.18878 21.8296 8.79063C21.3996 6.76843 20.5533 4.8579 19.3446 3.18063H19.3196ZM20.4496 9.39063C17.5698 10.4058 14.4294 10.4058 11.5496 9.39063C12.5246 5.29063 14.3246 2.75063 15.9996 2.75063C17.6746 2.75063 19.4996 5.29063 20.4496 9.39063ZM10.1446 8.79063C8.92352 8.18878 7.80212 7.40293 6.81962 6.46063C8.45073 4.88447 10.4603 3.75488 12.6546 3.18063C11.437 4.85581 10.5822 6.76648 10.1446 8.79063ZM12.6446 28.8206C10.4503 28.2464 8.44073 27.1168 6.80963 25.5406C7.79453 24.599 8.91747 23.8133 10.1396 23.2106C10.5764 25.2359 11.4332 27.1471 12.6546 28.8206H12.6446ZM11.5496 22.6106C14.4294 21.5954 17.5698 21.5954 20.4496 22.6106C19.4996 26.7106 17.6746 29.2506 15.9996 29.2506C14.3246 29.2506 12.5246 26.7106 11.5496 22.6106ZM21.8496 23.2106C23.0717 23.8133 24.1947 24.599 25.1796 25.5406C23.5485 27.1168 21.5389 28.2464 19.3446 28.8206C20.5624 27.1462 21.4158 25.2351 21.8496 23.2106ZM5.79463 7.55563C6.97728 8.68443 8.33698 9.61168 9.81962 10.3006C9.48193 12.1817 9.31458 14.0895 9.31962 16.0006C9.31458 17.9118 9.48193 19.8195 9.81962 21.7006C8.34517 22.3908 6.99393 23.3181 5.81962 24.4456C3.85012 22.0721 2.77215 19.0849 2.77215 16.0006C2.77215 12.9164 3.85012 9.92913 5.81962 7.55563H5.79463Z" fill="#008BFF"/>
</svg>
