<svg width="50" height="50" viewBox="0 0 50 50" fill="none" xmlns="http://www.w3.org/2000/svg">
<path d="M25 10.1562C26.9416 10.1562 28.5156 8.58225 28.5156 6.64062C28.5156 4.699 26.9416 3.125 25 3.125C23.0584 3.125 21.4844 4.699 21.4844 6.64062C21.4844 8.58225 23.0584 10.1562 25 10.1562Z" fill="#00CF66"/>
<path d="M21.4945 17.1869C21.0084 17.1883 20.5313 17.0555 20.116 16.803C19.7006 16.5505 19.363 16.1882 19.1405 15.7561C18.9179 15.3239 18.8191 14.8387 18.8548 14.3539C18.8905 13.8691 19.0594 13.4037 19.3429 13.0088C19.9966 12.1236 20.8489 11.4041 21.8313 10.9084C22.8137 10.4126 23.8988 10.1543 24.9992 10.1543C26.0996 10.1543 27.1846 10.4126 28.167 10.9084C29.1494 11.4041 30.0017 12.1236 30.6554 13.0088C30.9389 13.4037 31.1078 13.8691 31.1435 14.3539C31.1793 14.8387 31.0804 15.3239 30.8579 15.7561C30.6353 16.1882 30.2977 16.5505 29.8824 16.803C29.467 17.0555 28.9899 17.1883 28.5039 17.1869H21.4945Z" fill="#00CF66"/>
<path d="M40.7104 24.2188C42.6521 24.2188 44.2261 22.6448 44.2261 20.7031C44.2261 18.7615 42.6521 17.1875 40.7104 17.1875C38.7688 17.1875 37.1948 18.7615 37.1948 20.7031C37.1948 22.6448 38.7688 24.2188 40.7104 24.2188Z" fill="#FD3730"/>
<path d="M37.2049 31.2494C36.7188 31.2508 36.2418 31.118 35.8264 30.8655C35.411 30.613 35.0735 30.2507 34.8509 29.8186C34.6284 29.3864 34.5295 28.9012 34.5652 28.4164C34.601 27.9316 34.7699 27.4662 35.0534 27.0713C35.707 26.1861 36.5594 25.4666 37.5418 24.9709C38.5242 24.4751 39.6092 24.2168 40.7096 24.2168C41.81 24.2168 42.8951 24.4751 43.8775 24.9709C44.8599 25.4666 45.7122 26.1861 46.3659 27.0713C46.6492 27.4659 46.8181 27.9311 46.8539 28.4156C46.8898 28.9001 46.7912 29.3851 46.569 29.8172C46.3468 30.2492 46.0097 30.6116 45.5948 30.8643C45.1799 31.117 44.7032 31.2503 44.2174 31.2494H37.2049Z" fill="#FD3730"/>
<path d="M9.28955 24.2188C11.2312 24.2188 12.8052 22.6448 12.8052 20.7031C12.8052 18.7615 11.2312 17.1875 9.28955 17.1875C7.34792 17.1875 5.77393 18.7615 5.77393 20.7031C5.77393 22.6448 7.34792 24.2188 9.28955 24.2188Z" fill="#FAC100"/>
<path d="M5.78098 31.2494C5.29489 31.2508 4.81785 31.118 4.40247 30.8655C3.98709 30.613 3.64952 30.2507 3.42698 29.8186C3.20443 29.3864 3.10557 28.9012 3.14129 28.4164C3.17701 27.9316 3.34593 27.4662 3.62941 27.0713C4.28309 26.1861 5.13541 25.4666 6.11781 24.9709C7.1002 24.4751 8.18525 24.2168 9.28566 24.2168C10.3861 24.2168 11.4711 24.4751 12.4535 24.9709C13.4359 25.4666 14.2882 26.1861 14.9419 27.0713C15.2252 27.4659 15.3941 27.9311 15.43 28.4156C15.4658 28.9001 15.3672 29.3851 15.1451 29.8172C14.9229 30.2492 14.5858 30.6116 14.1709 30.8643C13.7559 31.117 13.2793 31.2503 12.7935 31.2494H5.78098Z" fill="#FAC100"/>
<path d="M25 39.8438C26.9416 39.8438 28.5156 38.2698 28.5156 36.3281C28.5156 34.3865 26.9416 32.8125 25 32.8125C23.0584 32.8125 21.4844 34.3865 21.4844 36.3281C21.4844 38.2698 23.0584 39.8438 25 39.8438Z" fill="#009AE0"/>
<path d="M21.4945 46.8744C21.0084 46.8758 20.5313 46.743 20.116 46.4905C19.7006 46.238 19.363 45.8757 19.1405 45.4436C18.9179 45.0114 18.8191 44.5262 18.8548 44.0414C18.8905 43.5566 19.0594 43.0912 19.3429 42.6963C19.9966 41.8111 20.8489 41.0916 21.8313 40.5959C22.8137 40.1001 23.8988 39.8418 24.9992 39.8418C26.0996 39.8418 27.1846 40.1001 28.167 40.5959C29.1494 41.0916 30.0017 41.8111 30.6554 42.6963C30.9389 43.0912 31.1078 43.5566 31.1435 44.0414C31.1793 44.5262 31.0804 45.0114 30.8579 45.4436C30.6353 45.8757 30.2977 46.238 29.8824 46.4905C29.467 46.743 28.9899 46.8758 28.5039 46.8744H21.4945Z" fill="#009AE0"/>
<path d="M18.607 7.28353C18.4337 6.90738 18.1181 6.61543 17.7296 6.47187C17.3411 6.3283 16.9114 6.34486 16.5351 6.51791C13.9724 7.6985 11.6812 9.39598 9.80545 11.5038C9.52843 11.8126 9.38539 12.2187 9.40781 12.6329C9.43022 13.0471 9.61626 13.4354 9.92499 13.7124C10.2337 13.9895 10.6398 14.1325 11.054 14.1101C11.4682 14.0877 11.8566 13.9016 12.1336 13.5929C13.7251 11.8048 15.6681 10.3638 17.8414 9.3601C18.0282 9.27428 18.1963 9.15242 18.336 9.00153C18.4756 8.85063 18.5841 8.67365 18.6552 8.48074C18.7264 8.28782 18.7587 8.08277 18.7504 7.87733C18.7422 7.67189 18.6934 7.4701 18.607 7.28353Z" fill="#8FA5A5"/>
<path d="M38.9665 35.0249C37.6427 36.8658 35.9712 38.4297 34.0462 39.6281C33.8718 39.737 33.7206 39.8793 33.6011 40.0467C33.4817 40.2141 33.3964 40.4034 33.3501 40.6037C33.3038 40.8041 33.2975 41.0116 33.3314 41.2145C33.3653 41.4173 33.4388 41.6115 33.5478 41.7859C33.6567 41.9603 33.799 42.1115 33.9664 42.231C34.1338 42.3504 34.3231 42.4357 34.5235 42.482C34.7238 42.5283 34.9314 42.5346 35.1342 42.5007C35.337 42.4668 35.5312 42.3933 35.7056 42.2843C37.9735 40.8698 39.9432 39.0259 41.504 36.8562C41.7461 36.5197 41.8445 36.1008 41.7777 35.6918C41.7109 35.2827 41.4843 34.9169 41.1478 34.6749C40.8113 34.4329 40.3924 34.3345 39.9834 34.4013C39.5743 34.4681 39.2086 34.6947 38.9665 35.0312V35.0249Z" fill="#8FA5A5"/>
<path d="M37.868 13.594C38.0042 13.7491 38.1698 13.8756 38.3553 13.9663C38.5407 14.0569 38.7422 14.11 38.9483 14.1223C39.1543 14.1347 39.3608 14.1061 39.5557 14.0382C39.7506 13.9703 39.9301 13.8644 40.0839 13.7267C40.2377 13.589 40.3627 13.4223 40.4516 13.236C40.5406 13.0497 40.5918 12.8477 40.6022 12.6416C40.6126 12.4354 40.5821 12.2292 40.5124 12.035C40.4427 11.8407 40.3352 11.6621 40.1961 11.5096C38.3203 9.40177 36.0292 7.70429 33.4664 6.5237C33.2792 6.43095 33.0752 6.3767 32.8667 6.36415C32.6581 6.3516 32.4492 6.38101 32.2522 6.45063C32.0552 6.52025 31.8741 6.62868 31.7198 6.76949C31.5654 6.9103 31.4409 7.08064 31.3535 7.27044C31.2661 7.46023 31.2177 7.66562 31.2111 7.87445C31.2045 8.08329 31.2399 8.29132 31.3151 8.48626C31.3903 8.68119 31.5038 8.85906 31.649 9.00934C31.7941 9.15962 31.9679 9.27927 32.1601 9.3612C34.3334 10.3649 36.2764 11.8059 37.868 13.594Z" fill="#8FA5A5"/>
<path d="M15.955 39.6284C14.0301 38.43 12.3585 36.8662 11.0347 35.0253C10.9149 34.8587 10.7634 34.7173 10.5889 34.6093C10.4144 34.5012 10.2204 34.4285 10.0179 34.3954C9.60879 34.3286 9.18994 34.4271 8.85344 34.6691C8.51695 34.9111 8.29038 35.2768 8.22357 35.6859C8.15676 36.095 8.25518 36.5138 8.49719 36.8503C10.058 39.0201 12.0277 40.864 14.2956 42.2784C14.6479 42.4985 15.0731 42.5696 15.4778 42.4761C15.8824 42.3826 16.2334 42.1322 16.4534 41.78C16.6735 41.4278 16.7446 41.0025 16.6511 40.5979C16.5576 40.1932 16.3072 39.8422 15.955 39.6222V39.6284Z" fill="#8FA5A5"/>
</svg>
