<svg width="32" height="32" viewBox="0 0 32 32" fill="none" xmlns="http://www.w3.org/2000/svg">
<path d="M6.66667 12C5.19387 12 4 13.2 4 14.6667V16V24V25.3333C4 26.8 5.19387 28 6.66667 28H9.33333H22.6667H25.3333C26.8067 28 28 26.8 28 25.3333V16V14.6667C28 13.2 26.8067 12 25.3333 12H22.6667H6.66667Z" fill="#F1C40F"/>
<path d="M6.66667 16C5.19387 16 4 17.2 4 18.6667V20V28V29.3333C4 30.8 5.19387 32 6.66667 32H9.33333H22.6667H25.3333C26.8067 32 28 30.8 28 29.3333V20V18.6667C28 17.2 26.8067 16 25.3333 16H22.6667H6.66667Z" fill="#F39C12"/>
<path d="M16.0003 1.33398C10.8457 1.33398 6.66699 5.46732 6.66699 10.6673H10.667C10.667 7.73398 13.0549 5.33398 16.0003 5.33398C18.9457 5.33398 21.3337 7.73398 21.3337 10.6673H25.3337C25.3337 5.46732 21.155 1.33398 16.0003 1.33398Z" fill="#BDC3C7"/>
<path d="M6.66699 18.668V20.0013H25.3337V18.668H6.66699ZM6.66699 21.3346V22.668H25.3337V21.3346H6.66699ZM6.66699 24.0013V25.3346H25.3337V24.0013H6.66699ZM6.66699 26.668V28.0013H25.3337V26.668H6.66699Z" fill="#E67E22"/>
<path d="M6.66699 12V13.3333C6.66699 14 7.56246 14.6667 8.66699 14.6667C9.77153 14.6667 10.667 14 10.667 13.3333V12C10.667 12.6667 9.77153 13.3333 8.66699 13.3333C7.56246 13.3333 6.66699 12.6667 6.66699 12Z" fill="#7F8C8D"/>
<path d="M21.333 12V13.3333C21.333 14 22.229 14.6667 23.333 14.6667C24.437 14.6667 25.333 14 25.333 13.3333V12C25.333 12.6667 24.437 13.3333 23.333 13.3333C22.229 13.3333 21.333 12.6667 21.333 12Z" fill="#7F8C8D"/>
<path d="M16.0003 3.25C15.5323 3.25 15.0683 3.29507 14.6257 3.37493C14.2963 3.4344 13.9763 3.52547 13.667 3.62507C13.3777 3.71813 13.1031 3.8332 12.8337 3.9584C12.6923 4.024 12.5525 4.0928 12.417 4.16667C12.2411 4.26253 12.0819 4.39093 11.917 4.5C11.7626 4.602 11.6029 4.67893 11.4587 4.79173C11.2711 4.938 11.0855 5.08653 10.917 5.25C10.8678 5.29827 10.8395 5.36707 10.7921 5.41667C10.5675 5.6492 10.3503 5.86413 10.167 6.12507C9.98006 6.3908 9.80646 6.66707 9.66699 6.9584C9.66166 6.9696 9.67233 6.98867 9.66699 7C9.51886 7.31453 9.37913 7.6612 9.29206 8C8.95473 8.7792 8.03553 9.33333 6.95873 9.33333C6.87873 9.33333 6.84779 9.33573 6.79206 9.33333C6.77806 9.3328 6.76966 9.3352 6.75033 9.33333L6.66699 10.6667V12V13.3333H10.667V12V10.6667C10.667 10.2985 10.721 9.93053 10.7921 9.58333C11.2893 7.15307 13.423 5.33333 16.0003 5.33333C18.9457 5.33333 21.3337 7.7212 21.3337 10.6667V12V13.3333H25.3337V12V10.6667L25.251 9.33333C25.231 9.3352 25.223 9.3328 25.2083 9.33333H25.0417C23.9657 9.33333 23.0457 8.7792 22.7083 8C22.6217 7.6612 22.4817 7.31453 22.3337 7C22.3283 6.98867 22.339 6.9696 22.3337 6.9584C22.1937 6.66707 22.0203 6.3908 21.8337 6.12507C21.6497 5.86413 21.4337 5.6492 21.2083 5.41667C21.1603 5.366 21.135 5.2992 21.083 5.25C20.915 5.08653 20.7297 4.938 20.5417 4.79173C20.403 4.6828 20.2323 4.59867 20.083 4.5C19.9203 4.39213 19.7577 4.2616 19.5843 4.16667C19.4497 4.09333 19.307 4.02347 19.167 3.9584C18.8977 3.8332 18.623 3.71813 18.3337 3.62507C18.0243 3.52547 17.7043 3.4344 17.375 3.37493C16.9323 3.29507 16.4683 3.25 16.0003 3.25Z" fill="#95A5A6"/>
</svg>
