<svg width="40" height="40" viewBox="0 0 40 40" fill="none" xmlns="http://www.w3.org/2000/svg">
<path d="M23.334 5.91669V7.58335C29.4173 8.41669 34.1673 13.6667 34.1673 20C34.1673 26.3334 29.4173 31.5834 23.334 32.4167V34.0834C30.334 33.25 35.834 27.25 35.834 20C35.834 12.75 30.334 6.75002 23.334 5.91669Z" fill="#81D4FA"/>
<path d="M11.666 26.6666H5.83268C4.91602 26.6666 4.16602 25.9166 4.16602 25V15C4.16602 14.0833 4.91602 13.3333 5.83268 13.3333H11.666V26.6666Z" fill="#546E7A"/>
<path d="M21.666 35L11.666 26.6667V13.3333L21.666 5V35Z" fill="#78909C"/>
<path d="M23.334 14.4167V16.1667C24.834 16.8334 25.834 18.25 25.834 20C25.834 21.75 24.834 23.1667 23.334 23.8334V25.5834C25.7507 24.8334 27.5007 22.6667 27.5007 20C27.5007 17.3334 25.7507 15.1667 23.334 14.4167Z" fill="#03A9F4"/>
<path d="M23.334 10.1667V11.8334C27.1673 12.5834 30.0007 16 30.0007 20C30.0007 24 27.1673 27.4167 23.334 28.1667V29.8334C28.084 29 31.6673 24.9167 31.6673 20C31.6673 15.0834 28.084 10.9167 23.334 10.1667Z" fill="#4FC3F7"/>
</svg>
