<svg width="50" height="50" viewBox="0 0 50 50" fill="none" xmlns="http://www.w3.org/2000/svg">
<path d="M37.5 4.16602H27.0834C27.0834 5.31185 26.1459 6.24935 25 6.24935C23.8542 6.24935 22.9167 5.31185 22.9167 4.16602H12.5C10.2084 4.16602 8.33337 6.04102 8.33337 8.33268V41.666C8.33337 43.9577 10.2084 45.8327 12.5 45.8327H37.5C39.7917 45.8327 41.6667 43.9577 41.6667 41.666V8.33268C41.6667 6.04102 39.7917 4.16602 37.5 4.16602Z" fill="#455A64"/>
<path d="M37.5 42.7077H12.5C11.875 42.7077 11.4584 42.291 11.4584 41.666V8.33268C11.4584 7.70768 11.875 7.29102 12.5 7.29102H37.5C38.125 7.29102 38.5417 7.70768 38.5417 8.33268V41.666C38.5417 42.291 38.125 42.7077 37.5 42.7077Z" fill="white"/>
<path d="M27.0833 4.16602C27.0833 5.31185 26.1458 6.24935 25 6.24935C23.8542 6.24935 22.9167 5.31185 22.9167 4.16602H15.625V8.33268C15.625 9.47852 16.5625 10.416 17.7083 10.416H32.2917C33.4375 10.416 34.375 9.47852 34.375 8.33268V4.16602H27.0833Z" fill="#90A4AE"/>
<path d="M25 0C22.7084 0 20.8334 1.875 20.8334 4.16667C20.8334 6.45833 22.7084 8.33333 25 8.33333C27.2917 8.33333 29.1667 6.45833 29.1667 4.16667C29.1667 1.875 27.2917 0 25 0ZM25 6.25C23.8542 6.25 22.9167 5.3125 22.9167 4.16667C22.9167 3.02083 23.8542 2.08333 25 2.08333C26.1459 2.08333 27.0834 3.02083 27.0834 4.16667C27.0834 5.3125 26.1459 6.25 25 6.25Z" fill="#90A4AE"/>
<path d="M34.375 20.832H21.875V22.9154H34.375V20.832Z" fill="#CFD8DC"/>
<path d="M19.7917 19.791H15.625V23.9577H19.7917V19.791Z" fill="#CFD8DC"/>
<path d="M34.375 30.207H21.875V32.2904H34.375V30.207Z" fill="#03A9F4"/>
<path d="M19.7917 29.166H15.625V33.3327H19.7917V29.166Z" fill="#03A9F4"/>
</svg>
