<svg width="100" height="100" viewBox="0 0 100 100" fill="none" xmlns="http://www.w3.org/2000/svg">
    <path fill-rule="evenodd" clip-rule="evenodd" d="M40.8203 100C40.2344 100 39.8437 99.8048 39.4531 99.2188L33.0078 89.2579L22.4609 94.7266C21.875 94.9219 21.2891 94.9219 20.8984 94.5313C20.5078 94.1407 20.1172 93.5548 20.3125 92.9688L27.7344 65.8204C27.9297 65.0391 28.7109 64.4532 29.2969 64.8438C30.0781 65.0391 30.6641 65.8204 30.2734 66.4063L46.2891 71.6798C46.6797 71.0938 47.2656 70.5079 48.0469 70.7032C48.8281 71.0938 49.2187 71.6798 49.0234 72.461L41.9922 98.8282C41.7969 99.4141 41.4062 99.8048 40.8203 99.8048C40.8203 100 40.8203 100 40.8203 100Z" fill="#FE5417"/>
    <path fill-rule="evenodd" clip-rule="evenodd" d="M26.7578 69.336L27.7344 65.8204C27.9297 65.0391 28.7109 64.4532 29.2969 64.8438C30.0781 65.0391 30.6641 65.8204 30.2734 66.4063L46.2891 71.6798C46.6797 71.0938 47.2656 70.5079 48.0469 70.7032C48.8281 71.0938 49.2188 71.6798 49.0234 72.461L48.0469 76.3673L38.2812 73.0469L27.1484 69.5313C26.9531 69.5313 26.7578 69.5313 26.7578 69.336Z" fill="#E74E17"/>
    <path fill-rule="evenodd" clip-rule="evenodd" d="M59.5703 100C59.375 100 59.375 100 59.1797 100C58.7891 99.8047 58.2031 99.414 58.2031 98.8281L50.9766 72.4609C50.7812 71.6797 51.3672 70.8984 51.9531 70.7031C52.7344 70.5078 53.5156 71.0937 53.7109 71.6797L69.7266 66.4062C69.3359 65.625 69.9219 64.8437 70.7031 64.6484C71.2891 64.4531 72.2656 65.039 72.2656 65.625L79.6875 93.164C79.8828 93.75 79.6875 94.3359 79.2969 94.5312C78.9062 94.9219 78.125 94.9219 77.7344 94.7265L66.9922 89.4531L60.5469 99.414C60.5469 99.8047 59.9609 100 59.5703 100Z" fill="#FE5417"/>
    <path fill-rule="evenodd" clip-rule="evenodd" d="M52.1484 76.1719L50.9766 72.4609C50.7812 71.6797 51.3672 70.8984 51.9531 70.7031C52.7344 70.5078 53.5156 71.0937 53.7109 71.6797L69.7266 66.4062C69.3359 65.625 69.9219 64.8437 70.7031 64.6484C71.2891 64.4531 72.2656 65.039 72.2656 65.625L73.2422 69.3359C73.2422 69.3359 73.0469 69.3359 72.8516 69.5312L52.1484 76.1719Z" fill="#E74E17"/>
    <path fill-rule="evenodd" clip-rule="evenodd" d="M50 74.4141C49.8047 74.4141 49.6094 74.4141 49.6094 74.2188L39.0625 70.7031L28.5156 67.3828C28.125 67.3828 27.9297 67.1875 27.7344 66.9922L14.8438 49.0234C14.6484 48.8281 14.6484 48.4375 14.6484 48.2422V26.1719C14.6484 25.7812 14.6484 25.5859 14.8438 25.1953L27.7344 7.42188C27.9297 7.22656 28.125 7.03125 28.5156 6.83594L39.0625 3.51562L49.6094 0C50 0 50.1953 0 50.3906 0L71.4844 6.83594C71.875 7.03125 72.0703 7.22656 72.2656 7.42188L85.1562 25.1953C85.3516 25.5859 85.3516 25.7812 85.3516 26.1719V48.2422C85.3516 48.4375 85.3516 48.8281 85.1562 49.0234L72.2656 66.7969C72.0703 67.1875 71.875 67.3828 71.4844 67.3828L50.3906 74.2188C50.3906 74.2188 50.1953 74.4141 50 74.4141Z" fill="#FFDF4C"/>
    <path fill-rule="evenodd" clip-rule="evenodd" d="M50 64.6484C34.7656 64.6484 22.4609 52.3438 22.4609 37.3047C22.4609 22.0703 34.9609 9.76562 50 9.76562C65.2344 9.76562 77.5391 22.0703 77.5391 37.1094C77.5391 52.3438 65.2344 64.6484 50 64.6484Z" fill="#FCCF47"/>
    <path fill-rule="evenodd" clip-rule="evenodd" d="M50 63.6719C35.3516 63.6719 23.4375 51.9531 23.4375 37.3047C23.4375 22.6562 35.5469 10.7422 50 10.7422C64.6484 10.7422 76.5625 22.4609 76.5625 37.1094C76.5625 51.7578 64.6484 63.6719 50 63.6719Z" fill="#FE904A"/>
    <mask id="mask0_787_29109" style="mask-type:luminance" maskUnits="userSpaceOnUse" x="23" y="10" width="54" height="54">
        <path d="M50 63.6719C35.3516 63.6719 23.4375 51.9531 23.4375 37.3047C23.4375 22.6562 35.5469 10.7422 50 10.7422C64.6484 10.7422 76.5625 22.4609 76.5625 37.1094C76.5625 51.7578 64.6484 63.6719 50 63.6719Z" fill="white"/>
    </mask>
    <g mask="url(#mask0_787_29109)">
        <path fill-rule="evenodd" clip-rule="evenodd" d="M42.3828 54.2969C41.9922 54.2969 41.7969 54.2969 41.6016 54.1016C41.0156 53.7109 40.8203 53.125 41.0156 52.5391L44.3359 42.5781L35.9375 36.5234C35.3516 36.3281 35.1562 35.5469 35.3516 34.9609C35.5469 34.375 36.1328 33.9844 36.7188 33.9844H47.0703L50.1953 24.2188C50.3906 23.6328 50.9766 23.2422 51.5625 23.2422C52.3438 23.2422 52.7344 23.6328 52.9297 24.2188L56.0547 33.9844H66.6016C67.1875 33.9844 67.5781 34.375 67.9688 34.9609C67.9688 35.5469 67.9688 36.1328 67.3828 36.5234L58.9844 42.7734L62.3047 52.5391C62.5 53.125 62.3047 53.7109 61.7188 54.1016C61.3281 54.4922 60.7422 54.4922 60.1562 54.1016L51.7578 48.0469L43.3594 54.1016C42.9688 54.2969 42.7734 54.2969 42.3828 54.2969Z" fill="#E78445"/>
    </g>
    <path fill-rule="evenodd" clip-rule="evenodd" d="M14.8438 49.0234L27.5391 66.4062L27.7344 66.9922C27.9297 67.1875 28.125 67.3828 28.5156 67.3828L39.0625 70.7031L48.6328 74.0234L49.6094 74.2188C49.6094 74.4141 49.8047 74.4141 50 74.4141C50.1953 74.4141 50.3906 74.2188 50.3906 74.2188L51.3672 73.8281L55.6641 72.4609L51.5625 71.0938L45.3125 68.9453L34.7656 65.625C34.375 65.625 34.1797 65.4297 33.9844 65.2344L20.8984 47.2656C20.8984 47.0703 20.7031 46.6797 20.7031 46.4844V24.4141C20.7031 24.0234 20.8984 23.8281 20.8984 23.4375L33.9844 5.66406C34.1797 5.46875 34.375 5.27344 34.7656 5.07812L45.3125 1.75781L50.3906 0C50.1953 0 49.8047 0 49.6094 0L39.0625 3.51562L28.5156 6.83594C28.125 7.03125 27.9297 7.22656 27.7344 7.42188L14.8438 25.1953C14.6484 25.5859 14.6484 25.7812 14.6484 26.1719V48.2422C14.6484 48.4375 14.6484 48.8281 14.8438 49.0234Z" fill="#F5D854"/>
    <path fill-rule="evenodd" clip-rule="evenodd" d="M40.8203 52.7344C40.4297 52.7344 40.2344 52.7344 40.0391 52.5391C39.4531 52.1484 39.2578 51.5625 39.4531 50.9766L42.7734 41.0156L34.375 34.9609C33.7891 34.7656 33.5938 33.9844 33.7891 33.3984C33.9844 32.8125 34.5703 32.4219 35.1562 32.4219H45.5078L48.6328 22.6562C48.8281 22.0703 49.4141 21.6797 50 21.6797C50.7812 21.6797 51.1719 22.0703 51.3672 22.6562L54.4922 32.4219H65.0391C65.625 32.4219 66.0156 32.8125 66.4062 33.3984C66.4062 33.9844 66.4062 34.5703 65.8203 34.9609L57.4219 41.2109L60.7422 50.9766C60.9375 51.5625 60.7422 52.1484 60.1562 52.5391C59.7656 52.9297 59.1797 52.9297 58.5938 52.5391L50.1953 46.4844L41.7969 52.5391C41.4062 52.7344 41.2109 52.7344 40.8203 52.7344Z" fill="#FFDF4C"/>
</svg>
