<svg width="512" height="512" viewBox="0 0 512 512" fill="none" xmlns="http://www.w3.org/2000/svg">
    <g clip-path="url(#clip0_4113_31066)">
        <path d="M255 512.256C388.344 512.256 496.44 404.16 496.44 270.816C496.44 137.472 388.344 29.376 255 29.376C121.656 29.376 13.5601 137.472 13.5601 270.816C13.5601 404.16 121.656 512.256 255 512.256Z"
              fill="#E18A04"/>
        <path d="M339.964 468.963C464.773 422.025 527.901 282.797 480.963 157.987C434.025 33.1779 294.797 -29.9496 169.987 16.988C45.178 63.9256 -17.9495 203.154 28.9881 327.963C75.9257 452.773 215.154 515.9 339.964 468.963Z"
              fill="#F1C411"/>
        <path d="M255 14.376C207.248 14.376 160.568 28.5362 120.863 55.066C81.1584 81.5957 50.2125 119.304 31.9384 163.421C13.6644 207.538 8.88311 256.084 18.1991 302.919C27.5151 349.753 50.5101 392.774 84.2761 426.54C118.042 460.306 161.063 483.301 207.897 492.617C254.732 501.933 303.278 497.151 347.395 478.877C391.512 460.603 429.22 429.657 455.75 389.953C482.28 350.248 496.44 303.568 496.44 255.816C496.445 224.108 490.204 192.71 478.072 163.415C465.94 134.119 448.156 107.501 425.736 85.0804C403.315 62.6596 376.696 44.8754 347.401 32.7438C318.106 20.6122 286.708 14.3707 255 14.376ZM255 468.096C213.005 468.096 171.954 455.643 137.037 432.311C102.12 408.979 74.9068 375.817 58.838 337.018C42.7692 298.219 38.5669 255.527 46.7625 214.34C54.9582 173.153 75.1837 135.321 104.881 105.629C134.579 75.937 172.414 55.7187 213.603 47.5308C254.792 39.3429 297.483 43.5532 336.279 59.6294C375.075 75.7055 408.232 102.925 431.557 137.846C454.882 172.768 467.328 213.821 467.32 255.816C467.309 312.12 444.935 366.114 405.119 405.923C365.302 445.732 311.304 468.096 255 468.096Z"
              fill="#E18A04"/>
        <path d="M255 1.4961C207.248 1.4961 160.568 15.6563 120.863 42.1861C81.1587 68.7158 50.2127 106.424 31.9387 150.541C13.6647 194.658 8.88335 243.204 18.1994 290.039C27.5154 336.873 50.5103 379.894 84.2763 413.66C118.042 447.426 161.063 470.421 207.898 479.737C254.732 489.053 303.278 484.272 347.395 465.998C391.513 447.724 429.22 416.778 455.75 377.073C482.28 337.368 496.44 290.688 496.44 242.936C496.445 211.228 490.204 179.83 478.072 150.535C465.941 121.24 448.157 94.6213 425.736 72.2005C403.315 49.7797 376.697 31.9956 347.401 19.8639C318.106 7.73229 286.708 1.49084 255 1.4961ZM255 455.256C213.007 455.256 171.957 442.804 137.041 419.474C102.126 396.144 74.9121 362.984 58.8421 324.187C42.7721 285.391 38.5674 242.701 46.7598 201.515C54.9522 160.328 75.1738 122.497 104.867 92.8032C134.561 63.1097 172.393 42.8882 213.579 34.6958C254.765 26.5034 297.455 30.708 336.252 46.778C375.048 62.848 408.208 90.0616 431.538 124.977C454.868 159.893 467.32 200.943 467.32 242.936C467.31 299.244 444.937 353.242 405.121 393.057C365.306 432.873 311.308 455.245 255 455.256Z"
              fill="url(#paint0_linear_4113_31066)"/>
        <path d="M178.56 127.736H339.44C340.967 127.736 342.433 128.343 343.513 129.423C344.593 130.504 345.2 131.969 345.2 133.496V173.776C345.205 174.534 345.06 175.286 344.772 175.987C344.485 176.688 344.061 177.325 343.525 177.861C342.989 178.397 342.352 178.821 341.65 179.109C340.949 179.396 340.198 179.542 339.44 179.536H240.32C239.546 179.536 238.781 179.691 238.068 179.993C237.356 180.295 236.712 180.737 236.174 181.293C235.637 181.85 235.217 182.509 234.939 183.231C234.662 183.953 234.533 184.723 234.56 185.496V237.136C234.554 237.894 234.7 238.646 234.987 239.347C235.275 240.048 235.699 240.685 236.235 241.221C236.771 241.757 237.408 242.181 238.109 242.469C238.811 242.756 239.562 242.902 240.32 242.896H323.32C324.08 242.896 324.832 243.047 325.533 243.339C326.235 243.631 326.872 244.058 327.407 244.598C327.942 245.137 328.366 245.776 328.653 246.48C328.94 247.183 329.085 247.937 329.08 248.696V288.936C329.085 289.694 328.94 290.446 328.652 291.147C328.365 291.848 327.941 292.485 327.405 293.021C326.869 293.557 326.232 293.981 325.53 294.269C324.829 294.556 324.078 294.702 323.32 294.696H240.32C238.792 294.696 237.327 295.303 236.247 296.383C235.167 297.464 234.56 298.929 234.56 300.456V395.216C234.549 396.741 233.939 398.2 232.861 399.278C231.783 400.356 230.324 400.966 228.8 400.976H178.56C177.032 400.976 175.567 400.369 174.487 399.289C173.407 398.209 172.8 396.744 172.8 395.216V133.496C172.8 131.969 173.407 130.504 174.487 129.423C175.567 128.343 177.032 127.736 178.56 127.736Z"
              fill="#E18A04"/>
        <path d="M178.56 110.615H339.44C340.2 110.615 340.952 110.766 341.653 111.057C342.355 111.349 342.992 111.777 343.527 112.316C344.062 112.856 344.486 113.495 344.773 114.199C345.06 114.902 345.205 115.655 345.2 116.415V156.655C345.205 157.413 345.06 158.165 344.772 158.866C344.485 159.567 344.061 160.204 343.525 160.74C342.989 161.276 342.352 161.7 341.65 161.988C340.949 162.275 340.198 162.421 339.44 162.415H240.32C239.56 162.415 238.808 162.566 238.106 162.857C237.405 163.149 236.768 163.577 236.233 164.116C235.697 164.656 235.274 165.295 234.987 165.999C234.7 166.702 234.555 167.455 234.56 168.215V220.215C234.555 220.973 234.7 221.725 234.988 222.426C235.275 223.127 235.699 223.764 236.235 224.3C236.771 224.836 237.408 225.26 238.109 225.548C238.811 225.835 239.562 225.981 240.32 225.975H323.32C324.848 225.975 326.313 226.582 327.393 227.662C328.473 228.743 329.08 230.208 329.08 231.735V271.815C329.075 272.566 328.922 273.309 328.629 274.001C328.337 274.693 327.911 275.321 327.376 275.848C326.841 276.376 326.208 276.793 325.512 277.075C324.816 277.358 324.071 277.501 323.32 277.495H240.32C238.792 277.495 237.327 278.102 236.247 279.182C235.167 280.263 234.56 281.728 234.56 283.255V378.095C234.549 379.62 233.939 381.079 232.861 382.157C231.783 383.235 230.324 383.845 228.8 383.855H178.56C177.032 383.855 175.567 383.248 174.487 382.168C173.407 381.088 172.8 379.623 172.8 378.095V116.415C172.795 115.655 172.94 114.902 173.227 114.199C173.514 113.495 173.937 112.856 174.473 112.316C175.008 111.777 175.645 111.349 176.346 111.057C177.048 110.766 177.8 110.615 178.56 110.615Z"
              fill="url(#paint1_linear_4113_31066)"/>
        <g style="mix-blend-mode:overlay" opacity="0.15">
            <path d="M255 242.936C370.494 242.936 464.12 188.888 464.12 122.216C464.12 55.5443 370.494 1.49609 255 1.49609C139.506 1.49609 45.8799 55.5443 45.8799 122.216C45.8799 188.888 139.506 242.936 255 242.936Z"
                  fill="white"/>
        </g>
    </g>
    <defs>
        <linearGradient id="paint0_linear_4113_31066" x1="428.125" y1="64.6236" x2="108.701" y2="432.981"
                        gradientUnits="userSpaceOnUse">
            <stop stop-color="#FED64A"/>
            <stop offset="0.123016" stop-color="#FEF14E"/>
            <stop offset="0.248796" stop-color="#FFDF6C"/>
            <stop offset="0.482583" stop-color="#FCFF67"/>
            <stop offset="0.743348" stop-color="#FED545"/>
            <stop offset="0.82597" stop-color="#FECA45"/>
            <stop offset="1" stop-color="#FEED44"/>
        </linearGradient>
        <linearGradient id="paint1_linear_4113_31066" x1="320.81" y1="146.336" x2="147.081" y2="272.742"
                        gradientUnits="userSpaceOnUse">
            <stop stop-color="#FED64A"/>
            <stop offset="0.123016" stop-color="#FEF14E"/>
            <stop offset="0.248796" stop-color="#FFDF6C"/>
            <stop offset="0.482583" stop-color="#FCFF67"/>
            <stop offset="0.743348" stop-color="#FED545"/>
            <stop offset="0.82597" stop-color="#FECA45"/>
            <stop offset="1" stop-color="#FEED44"/>
        </linearGradient>
        <clipPath id="clip0_4113_31066">
            <rect width="512" height="512" fill="white"/>
        </clipPath>
    </defs>
</svg>
