<svg width="101" height="100" viewBox="0 0 101 100" fill="none" xmlns="http://www.w3.org/2000/svg">
    <g clip-path="url(#clip0_3969_9006)">
        <path fill-rule="evenodd" clip-rule="evenodd" d="M96.5527 43.4482V78.9482C96.553 80.4057 95.634 81.7048 94.2596 82.1896L74.1389 89.3276L70.6906 90.5517L52.8975 96.8793C52.5145 97.0146 52.1228 97.124 51.7251 97.2069C50.5872 97.4368 49.4147 97.4368 48.2768 97.2069C47.8791 97.124 47.4874 97.0146 47.1044 96.8793L31.0354 91.1724L27.5871 89.9482L5.74232 82.1896C4.36791 81.7048 3.44885 80.4057 3.44922 78.9482V43.4482H96.5527Z" fill="#2980BA"/>
        <path fill-rule="evenodd" clip-rule="evenodd" d="M100 28.4131L100 39.7924C100.005 41.2513 99.0843 42.5529 97.7069 43.0338L96.5517 43.4476L77.5862 50.1889L74.1379 51.4131L52.8966 58.9476C51.0241 59.62 48.976 59.62 47.1035 58.9476L27.5862 52.0165L24.138 50.7924L3.4483 43.4476L2.29312 43.0338C0.915744 42.5529 -0.00504287 41.2513 2.07802e-05 39.7924L2.12999e-08 28.4131H100Z" fill="#3B97D3"/>
        <path fill-rule="evenodd" clip-rule="evenodd" d="M51.7256 66.3443V97.2063C50.5877 97.4362 49.4153 97.4362 48.2773 97.2063V66.3443C48.2773 65.392 49.0493 64.6201 50.0015 64.6201C50.9537 64.6201 51.7256 65.392 51.7256 66.3443Z" fill="#285680"/>
        <path fill-rule="evenodd" clip-rule="evenodd" d="M31.0342 53.2407V91.1718L27.5859 89.9476V52.0166L31.0342 53.2407Z" fill="#F0C419"/>
        <path fill-rule="evenodd" clip-rule="evenodd" d="M74.1397 51.4131V89.3269L70.6914 90.551V52.6372L74.1397 51.4131Z" fill="#F0C419"/>
        <path fill-rule="evenodd" clip-rule="evenodd" d="M82.6911 21.0518L98.8463 26.7931C99.5383 27.031 100.003 27.6821 100.003 28.4138C100.003 29.1456 99.5383 29.7966 98.8463 30.0345L52.898 46.3449C51.0255 47.0173 48.9774 47.0173 47.1049 46.3449L1.15661 30.0345C0.464611 29.7966 0 29.1456 0 28.4138C0 27.6821 0.464611 27.031 1.15661 26.7931L17.3118 21.0518H82.6911Z" fill="#84B5CB"/>
        <path fill-rule="evenodd" clip-rule="evenodd" d="M77.5889 38.7579V50.1889L74.1406 51.4131V39.8958L72.7613 39.2924H72.7441L50.8648 29.9131L28.2096 39.6372L27.5889 39.8958V52.0165L24.1406 50.7924V38.7579C24.1426 38.5765 24.1717 38.3963 24.2268 38.2234C24.3855 37.7521 24.7363 37.37 25.1923 37.1717L46.4682 28.0683L46.4855 28.051L46.0544 27.8614L47.4165 24.6889L50.8648 26.1717L54.9337 24.4131L56.1923 27.3269L56.2958 27.5855L55.2441 28.051L76.5372 37.1717C76.8064 37.2842 77.0392 37.4693 77.2096 37.7062H77.2268C77.4604 38.0071 77.5877 38.377 77.5889 38.7579Z" fill="#F3D55B"/>
        <path fill-rule="evenodd" clip-rule="evenodd" d="M63.7932 19.7931C63.7888 20.4373 63.7136 21.0791 63.5691 21.7069C63.1151 23.3711 62.2149 24.8795 60.9657 26.069C57.9694 28.7844 54.0424 30.2415 50.0001 30.138C45.9578 30.2415 42.0309 28.7844 39.0346 26.069C37.7854 24.8795 36.8852 23.3711 36.4312 21.7069C36.2867 21.0791 36.2115 20.4373 36.207 19.7931C36.207 16.1724 38.6898 12.9828 42.4657 11.138C47.236 8.885 52.7643 8.885 57.5346 11.138C61.3105 12.9828 63.7932 16.1724 63.7932 19.7931Z" fill="#DF4D60"/>
        <path fill-rule="evenodd" clip-rule="evenodd" d="M36.2078 19.7927C36.2123 20.4369 36.2874 21.0786 36.4319 21.7064H36.4147C34.6817 21.4646 32.9235 21.4646 31.1905 21.7064C31.1733 21.7237 31.1733 21.7237 31.1561 21.7064C31.1388 21.6892 31.1388 21.7237 31.1216 21.7237C26.3251 22.4793 21.9871 25.0082 18.9664 28.8099L17.3112 22.7754L15.363 15.603C14.3938 11.9875 16.4697 8.25543 20.0526 7.17197C27.7184 4.68404 36.1196 6.1704 42.4664 11.1375C38.6905 12.9823 36.2078 16.172 36.2078 19.7927Z" fill="#FB7B76"/>
        <path fill-rule="evenodd" clip-rule="evenodd" d="M39.0377 26.0688C28.8998 37.0861 18.9688 28.8102 18.9688 28.8102C21.9894 25.0085 26.3274 22.4796 31.1239 21.724C31.1412 21.724 31.1412 21.7067 31.1584 21.7067C31.1756 21.7067 31.1756 21.724 31.1929 21.7067C32.9259 21.4649 34.684 21.4649 36.417 21.7067H36.4343C36.8883 23.3709 37.7885 24.8793 39.0377 26.0688Z" fill="#FF5364"/>
        <path fill-rule="evenodd" clip-rule="evenodd" d="M81.0377 28.81C81.0377 28.81 71.1067 37.0859 60.9688 26.0687C62.218 24.8791 63.1182 23.3707 63.5722 21.7066H63.5894C70.2505 20.8373 76.8779 23.5354 81.0377 28.81Z" fill="#FF5364"/>
        <path fill-rule="evenodd" clip-rule="evenodd" d="M84.6386 15.603L82.6903 22.7754L81.0352 28.8099C76.8753 23.5353 70.248 20.8372 63.5869 21.7064H63.5696C63.7142 21.0786 63.7893 20.4369 63.7938 19.7927C63.7938 16.172 61.311 12.9823 57.5352 11.1375C63.882 6.1704 72.2831 4.68404 79.9489 7.17197C83.5319 8.25543 85.6078 11.9875 84.6386 15.603Z" fill="#FB7B76"/>
    </g>
    <defs>
        <clipPath id="clip0_3969_9006">
            <rect width="100" height="100" fill="white" transform="translate(0.5)"/>
        </clipPath>
    </defs>
</svg>
