<svg width="92" height="100" viewBox="0 0 92 100" fill="none" xmlns="http://www.w3.org/2000/svg">
    <g clip-path="url(#clip0_3411_12407)">
        <path fill-rule="evenodd" clip-rule="evenodd" d="M91.7617 81.695C91.7617 91.8085 91.7617 100 45.999 100C0.236328 100 0.236328 91.8085 0.236328 81.695C0.236328 53.8577 20.7245 22.0339 45.999 22.0339C71.2736 22.0339 91.7617 53.8577 91.7617 81.695Z" fill="#F0C419"/>
        <path d="M81.3095 9.97116C81.0364 8.74062 80.5641 7.56297 79.9112 6.48472C75.6841 -0.469514 64.6434 -1.96104 55.3027 3.1576C51.1371 5.31859 47.8494 8.85672 45.9994 13.1695C44.1499 8.85732 40.8627 5.31972 36.6977 3.1593C27.3553 -1.96443 16.3146 -0.471209 12.0858 6.48811C11.4333 7.56575 10.9616 8.74288 10.6892 9.97286C9.97987 13.2417 10.7998 16.6556 12.9163 19.2457C15.1947 22.0654 18.62 23.7115 22.2451 23.7288H40.5909C36.9095 27.0712 32.44 33.322 32.44 44.0678C32.44 45.0039 33.1989 45.7627 34.135 45.7627C35.071 45.7627 35.8299 45.0039 35.8299 44.0678C35.8299 30.6068 43.6265 25.2542 45.9994 23.9339C48.3722 25.2525 56.1689 30.6017 56.1689 44.0678C56.1689 45.0039 56.9277 45.7627 57.8638 45.7627C58.7998 45.7627 59.5587 45.0039 59.5587 44.0678C59.5587 33.322 55.0892 27.0712 51.4078 23.7288H69.7536C73.3763 23.7094 76.7987 22.0636 79.0756 19.2457C81.1948 16.6562 82.0173 13.2416 81.3095 9.97116ZM15.5604 17.1186C14.0751 15.3351 13.4987 12.9646 13.9994 10.6983C14.1916 9.83279 14.5237 9.00442 14.9824 8.24574C16.8926 5.10506 20.7112 3.46438 25.0977 3.46438C28.5917 3.51105 32.0189 4.42858 35.0689 6.13388C40.4752 8.85683 43.9857 14.2912 44.2451 20.339H22.2451C19.6463 20.3239 17.1919 19.1415 15.5604 17.1186ZM76.4383 17.1186C74.8068 19.1415 72.3524 20.3239 69.7536 20.339H47.7536C48.0131 14.2908 51.5235 8.85598 56.9299 6.13218C64.7078 1.86438 73.7146 2.81862 77.0163 8.24235C77.4767 9.0036 77.8099 9.83485 78.0028 10.7034C78.5006 12.9686 77.9231 15.3368 76.4383 17.1186Z" fill="#B19046"/>
        <path d="M45.9995 88.1355C56.2964 88.1355 64.6436 79.7883 64.6436 69.4915C64.6436 59.1946 56.2964 50.8474 45.9995 50.8474C35.7027 50.8474 27.3555 59.1946 27.3555 69.4915C27.3555 79.7883 35.7027 88.1355 45.9995 88.1355Z" fill="#F3D55B"/>
        <path d="M45.9991 89.8306C34.7662 89.8306 25.6602 80.7245 25.6602 69.4916C25.6602 58.2587 34.7662 49.1526 45.9991 49.1526C57.232 49.1526 66.3381 58.2587 66.3381 69.4916C66.326 80.7194 57.227 89.8184 45.9991 89.8306ZM45.9991 52.5424C36.6384 52.5424 29.05 60.1308 29.05 69.4916C29.05 78.8523 36.6384 86.4407 45.9991 86.4407C55.3599 86.4407 62.9483 78.8523 62.9483 69.4916C62.938 60.1351 55.3556 52.5527 45.9991 52.5424Z" fill="#F9EAB0"/>
        <path fill-rule="evenodd" clip-rule="evenodd" d="M46 67.7965C43.244 67.7965 40.9152 66.244 40.9152 64.4067C40.9152 62.9559 42.3779 61.6948 44.3474 61.2237C44.4334 62.0718 45.1475 62.7171 46 62.7171C46.8524 62.7171 47.5665 62.0718 47.6525 61.2237C49.622 61.6948 51.0847 62.9559 51.0847 64.4067C51.0847 65.3428 51.8436 66.1016 52.7796 66.1016C53.7157 66.1016 54.4745 65.3428 54.4745 64.4067C54.4745 61.1321 51.5576 58.3948 47.6949 57.7643V57.627C47.6949 56.691 46.936 55.9321 46 55.9321C45.0639 55.9321 44.3051 56.691 44.3051 57.627V57.7643C40.4423 58.3948 37.5254 61.1321 37.5254 64.4067C37.5254 68.1457 41.3271 71.1864 46 71.1864C48.7559 71.1864 51.0847 72.7389 51.0847 74.5762C51.0847 76.027 49.622 77.2881 47.6525 77.7592C47.5665 76.9111 46.8524 76.2658 46 76.2658C45.1475 76.2658 44.4334 76.9111 44.3474 77.7592C42.3779 77.2881 40.9152 76.027 40.9152 74.5762C40.9152 73.6401 40.1564 72.8813 39.2203 72.8813C38.2842 72.8813 37.5254 73.6401 37.5254 74.5762C37.5254 77.8508 40.4423 80.5881 44.3051 81.2186V81.3559C44.3051 82.2919 45.0639 83.0508 46 83.0508C46.936 83.0508 47.6949 82.2919 47.6949 81.3559V81.2186C51.5576 80.5881 54.4745 77.8508 54.4745 74.5762C54.4745 70.8372 50.6728 67.7965 46 67.7965Z" fill="#B19046"/>
    </g>
    <defs>
        <clipPath id="clip0_3411_12407">
            <rect width="91.5254" height="100" fill="white" transform="translate(0.236328)"/>
        </clipPath>
    </defs>
</svg>
