<svg width="101" height="100" viewBox="0 0 101 100" fill="none" xmlns="http://www.w3.org/2000/svg">
    <path d="M92.2172 21.173C90.0083 19.3858 87.2247 18.4633 84.3857 18.5773C81.5468 18.6915 78.8463 19.8347 76.788 21.7934C74.7297 23.7522 73.4544 26.3928 73.1999 29.2226C72.9453 32.0525 73.7291 34.8783 75.4047 37.173L62.9985 50.5323L55.9516 25.9698C57.8338 24.9709 59.4094 23.4795 60.5102 21.655C61.6108 19.8305 62.1955 17.7412 62.2016 15.6104C62.2018 14.0603 61.8939 12.5256 61.296 11.0954C60.6982 9.66526 59.8221 8.36812 58.7188 7.27933C57.6153 6.19051 56.3068 5.33175 54.8688 4.75289C53.4308 4.17403 51.8921 3.88659 50.3422 3.90729C47.7405 3.94701 45.2261 4.85142 43.1953 6.47797C41.1644 8.1045 39.7327 10.3606 39.1257 12.8907C38.5186 15.4209 38.771 18.0811 39.8427 20.452C40.9146 22.8228 42.7449 24.7697 45.0453 25.9854L37.9985 50.5323L25.6547 37.1573C27.4152 34.7359 28.1796 31.7314 27.79 28.7631C27.4005 25.7948 25.8868 23.0892 23.561 21.2042C21.3177 19.3215 18.451 18.347 15.5251 18.4725C12.5992 18.5981 9.82644 19.8145 7.75272 21.8823C5.679 23.9501 4.45467 26.7195 4.32085 29.645C4.18702 32.5704 5.15339 35.44 7.02966 37.6886C8.73441 39.7869 11.1147 41.2283 13.764 41.7667V87.5011C13.764 88.6309 13.9868 89.7497 14.4197 90.7934C14.8525 91.837 15.487 92.7851 16.2866 93.5833C17.0863 94.3815 18.0355 95.0142 19.0799 95.4451C20.1244 95.8761 21.2435 96.0969 22.3735 96.0948H78.6235C80.9027 96.0948 83.0885 95.1894 84.7 93.5778C86.3118 91.9661 87.2172 89.7803 87.2172 87.5011V41.7667C89.3961 41.3244 91.4041 40.2703 93.0058 38.7281C94.6077 37.1859 95.7369 35.2194 96.2614 33.0587C96.7861 30.898 96.6844 28.6325 95.9682 26.5276C95.2519 24.4226 93.9508 22.5653 92.2172 21.173Z" fill="url(#paint0_linear_3913_8932)"/>
    <path d="M22.3793 89.8428C21.7577 89.8428 21.1615 89.5958 20.7219 89.1563C20.2824 88.7167 20.0355 88.1206 20.0355 87.4991V40.3428L40.8637 62.9053L50.5043 29.6866L60.1449 62.9522L80.9886 40.3428V87.4991C80.9886 87.8081 80.9276 88.1142 80.8088 88.3995C80.6901 88.6849 80.516 88.9439 80.2966 89.1619C80.0774 89.3797 79.8171 89.552 79.531 89.6689C79.2447 89.7856 78.9383 89.8449 78.6293 89.8428H22.3793ZM80.4574 33.4834C80.0144 32.8611 79.7041 32.1544 79.5455 31.4072C79.3871 30.66 79.3837 29.8881 79.5355 29.1397C79.751 28.1356 80.2472 27.2133 80.9665 26.4803C81.6857 25.7474 82.5982 25.2336 83.598 24.9991C84.0183 24.9014 84.4479 24.8491 84.8793 24.8428C86.1227 24.832 87.3316 25.2516 88.3011 26.0303C89.1116 26.6791 89.7207 27.5453 90.0571 28.5275C90.3935 29.5097 90.4432 30.5675 90.2007 31.5769C89.9582 32.5864 89.4333 33.5061 88.6874 34.2283C87.9415 34.9505 87.0054 35.4453 85.9886 35.6553L82.5355 36.3428L80.4574 33.4834ZM15.0199 35.6397C13.7863 35.3919 12.6797 34.7169 11.8949 33.7334C11.3722 33.0844 11.0024 32.3259 10.8131 31.5144C10.6237 30.703 10.6196 29.8592 10.8011 29.0459C11.0365 28.0558 11.5449 27.1517 12.2686 26.4363C12.9923 25.7209 13.9022 25.2228 14.8949 24.9991C15.6957 24.8159 16.5274 24.8156 17.3283 24.9981C18.1294 25.1806 18.879 25.5411 19.5215 26.053C20.164 26.5649 20.6829 27.215 21.0396 27.9549C21.3965 28.6949 21.5819 29.5056 21.5824 30.3272C21.5751 31.4777 21.2091 32.5974 20.5355 33.5303L18.473 36.3428L15.0199 35.6397ZM47.973 20.4366C46.8929 19.8705 46.0337 18.9586 45.5326 17.8467C45.0316 16.7349 44.9177 15.4872 45.2091 14.303C45.5007 13.1189 46.1807 12.0666 47.1405 11.3144C48.1004 10.5621 49.2847 10.1533 50.5043 10.1533C51.7238 10.1533 52.908 10.5621 53.868 11.3144C54.8279 12.0666 55.5079 13.1189 55.7993 14.303C56.0908 15.4872 55.9769 16.7349 55.476 17.8467C54.9749 18.9586 54.1157 19.8705 53.0355 20.4366L50.5043 21.7803L47.973 20.4366Z" fill="#FFDC89"/>
    <defs>
        <linearGradient id="paint0_linear_3913_8932" x1="4.30859" y1="3.90625" x2="111.454" y2="73.071" gradientUnits="userSpaceOnUse">
            <stop stop-color="#F2D207"/>
            <stop offset="1" stop-color="#FFA329"/>
        </linearGradient>
    </defs>
</svg>
