<svg width="101" height="100" viewBox="0 0 101 100" fill="none" xmlns="http://www.w3.org/2000/svg">
    <path d="M85.918 14.5835H15.0846C9.33167 14.5835 4.66797 19.2472 4.66797 25.0002V75.0002C4.66797 80.7531 9.33167 85.4168 15.0846 85.4168H85.918C91.6709 85.4168 96.3346 80.7531 96.3346 75.0002V25.0002C96.3346 19.2472 91.6709 14.5835 85.918 14.5835Z" fill="#FF9500"/>
    <path d="M85.9174 14.5835H15.0841C13.1061 14.5902 11.1708 15.16 9.5047 16.2262C7.8386 17.2925 6.51051 18.811 5.67578 20.6043L43.3174 56.4585C45.2574 58.3001 47.8301 59.3268 50.5049 59.3268C53.1798 59.3268 55.7525 58.3001 57.6924 56.4585L95.3258 20.6043C94.4923 18.8101 93.1645 17.2907 91.4981 16.2243C89.8317 15.1579 87.8958 14.5887 85.9174 14.5835Z" fill="#FAC100"/>
</svg>
