<svg width="26" height="35" viewBox="0 0 26 35" fill="none" xmlns="http://www.w3.org/2000/svg">
    <path d="M34.5629 16.0469L27.5004 21.9219L29.7348 31C29.8375 31.3805 29.8516 31.7795 29.7761 32.1664C29.7005 32.5532 29.5372 32.9176 29.2988 33.2314C29.0603 33.5453 28.7531 33.8003 28.4008 33.9769C28.0484 34.1535 27.6602 34.2469 27.266 34.25C26.7833 34.2478 26.3114 34.1068 25.9067 33.8437L18.016 28.8594H17.9848L10.6567 33.5C10.1833 33.7987 9.63153 33.9493 9.07205 33.9326C8.51256 33.9159 7.97078 33.7326 7.51605 33.4063C7.04756 33.0644 6.69273 32.5895 6.49768 32.0434C6.30262 31.4972 6.27636 30.905 6.4223 30.3438L8.53167 22.0469L1.43792 16.0469C1.03546 15.7106 0.742966 15.2614 0.598148 14.7574C0.45333 14.2533 0.46283 13.7174 0.625422 13.2188C0.783755 12.7277 1.08581 12.2954 1.49251 11.9778C1.89921 11.6602 2.39184 11.472 2.90667 11.4375L12.1254 10.8437L15.6254 2.125C15.8131 1.64751 16.1398 1.23735 16.5633 0.947631C16.9867 0.657913 17.4874 0.501973 18.0004 0.5C18.5135 0.501973 19.0141 0.657913 19.4376 0.947631C19.861 1.23735 20.1877 1.64751 20.3754 2.125L23.8129 10.7969L33.0942 11.4375C33.6096 11.4699 34.1033 11.6574 34.5104 11.9752C34.9174 12.2931 35.219 12.7265 35.3754 13.2188C35.538 13.7174 35.5475 14.2533 35.4027 14.7574C35.2579 15.2614 34.9654 15.7106 34.5629 16.0469Z" fill="white"/>
</svg>
