<svg width="56" height="56" viewBox="0 0 56 56" fill="none" xmlns="http://www.w3.org/2000/svg">
    <path d="M50.6477 44.86C50.0244 45.7323 49.353 46.5643 48.6386 47.3526C47.3257 48.8 45.8653 50.1022 44.2805 51.2279C40.5292 53.8988 36.0799 55.5909 31.2378 55.9352C25.9017 56.3145 20.8259 55.0053 16.4844 52.4375C15.5611 51.8921 14.6709 51.2908 13.8188 50.6353C12.4231 49.5621 11.1268 48.3472 9.95312 47.01C5.97136 42.4775 3.38039 36.5326 2.95602 29.8868C2.7024 25.9329 3.24114 22.1153 4.42805 18.6071C4.87397 17.2874 5.41271 16.0114 6.03601 14.7878C10.2134 6.57229 18.1885 0.73928 27.6589 0.0645602C36.9005 -0.59268 45.358 3.81747 50.5814 11.0454C50.9162 11.5068 51.2362 11.9788 51.5428 12.463C54.036 16.3977 55.6158 21.0525 55.9407 26.1129C56.3883 33.1066 54.3609 39.6738 50.6477 44.86V44.86Z" fill="url(#paint0_linear_3173_6962)"/>
    <path d="M43.4418 47.3504C38.8932 48.9289 34.2566 50.2241 29.5637 51.2275C28.9039 47.3749 27.3043 37.9708 26.6445 34.1182C26.5749 33.7145 26.5053 33.3019 26.5666 32.8964C26.6428 32.3825 26.9197 31.928 27.2048 31.5033C28.5061 29.5718 30.1207 27.9094 31.8198 26.3712C33.1824 25.1389 35.4103 22.4994 37.3482 22.5187C39.1451 22.5361 39.0059 24.9693 39.0722 26.3293C39.1949 28.8428 39.4253 31.346 39.9077 33.8158C40.4464 36.5794 42.2185 44.8386 43.4435 47.3522L43.4418 47.3504Z" fill="url(#paint1_linear_3173_6962)"/>
    <path d="M16.482 52.4372C15.5586 51.8918 14.6685 51.2905 13.8164 50.635C13.9341 50.3833 14.0518 50.1334 14.1695 49.8852C14.9304 48.2718 15.7344 46.6741 16.6262 45.1359C16.8483 44.7513 17.5197 43.2254 18.0783 42.8565C18.1927 42.7796 18.3021 42.7517 18.4016 42.7919C18.5242 42.8408 19.2172 43.2481 20.0327 43.6012C22.637 44.7304 25.4285 45.3124 28.2449 45.3037H28.298C28.3444 45.3037 28.3891 45.3037 28.4356 45.302C28.482 45.3002 28.5267 45.3002 28.5731 45.2985H28.5847C32.7389 45.2373 38.2457 44.5416 41.4202 40.6855C47.5437 41.5333 48.1852 46.0361 48.6361 47.3523C47.3232 48.7997 45.8628 50.1019 44.2781 51.2276C40.5267 53.8985 36.0775 55.5906 31.2354 55.9349C25.8993 56.3142 20.8235 55.005 16.482 52.4372Z" fill="url(#paint2_linear_3173_6962)"/>
    <path d="M9.95312 47.0104C13.242 44.6856 16.7712 42.4762 18.0758 42.658C18.2101 42.6772 18.3195 42.7209 18.404 42.7925C18.5565 42.9219 18.4455 43.4131 18.2366 43.9987C17.8421 45.0946 17.1011 46.5245 17.1011 46.5245C18.0493 48.5644 17.6846 50.6847 16.4844 52.4379C15.5611 51.8925 14.6709 51.2912 13.8189 50.6357C12.4231 49.5625 11.1268 48.3476 9.95312 47.0104Z" fill="url(#paint3_linear_3173_6962)"/>
    <path d="M43.3202 44.2204C43.3202 44.2204 40.9829 41.0758 41.4222 40.686C42.3422 39.8679 46.9704 42.1351 50.6472 44.8602C50.0239 45.7324 49.3525 46.5644 48.6381 47.3528C47.3252 48.8001 45.8648 50.1024 44.28 51.2281C44.1375 50.8103 44.0214 50.5219 43.9385 50.396C42.7367 48.5659 42.372 46.3512 43.3202 44.2204V44.2204Z" fill="url(#paint4_linear_3173_6962)"/>
    <path d="M40.1168 28.2888C39.7455 30.6014 38.5453 32.6745 37.2175 34.5588C35.8897 36.4432 34.4094 38.2296 33.3435 40.2887C32.692 41.5438 32.2013 42.9107 31.3377 44.0102C29.6137 46.2074 26.7542 46.966 24.077 47.3698C22.8586 47.5551 21.6154 47.6827 20.4152 47.396C19.2217 47.1058 18.0729 46.328 17.5988 45.1324C16.9539 43.5068 17.6933 41.5682 17.1297 39.9024C16.6108 38.3712 14.9879 37.3521 14.7476 35.7055C14.5834 34.5903 14.9515 32.9874 15.2482 31.9037C15.9759 29.245 17.6021 26.8101 17.6137 23.9609C17.6137 22.8771 17.3733 21.8178 17.3302 20.7358C17.2987 19.8426 17.4297 18.8847 17.8905 18.1628C17.9834 18.002 18.0928 17.8604 18.2154 17.7276C19.1868 16.7225 20.7666 16.7487 22.0712 17.1769C22.3945 17.2853 22.7492 17.4129 23.0675 17.2871C23.341 17.1752 23.5217 16.9182 23.6842 16.67C24.5014 15.4534 25.375 14.2526 26.5155 13.3629C27.6493 12.4766 29.0932 11.933 30.4856 12.1847C30.7326 12.2354 30.9796 12.3036 31.1984 12.4032C32.2726 12.8157 33.1744 13.6722 33.8275 14.6738C34.6166 15.8852 35.0774 17.3063 35.4919 18.7152C35.6692 19.3252 37.7115 14.5655 38.0961 15.0636C38.5768 15.7051 37.7413 17.6891 38.3563 18.1838C40.1301 19.6084 40.4798 25.971 40.1201 28.2871L40.1168 28.2888Z" fill="url(#paint5_linear_3173_6962)"/>
    <path d="M21.8182 32.7014C22.6206 32.2521 23.3267 31.6369 24.0545 31.0618C24.4142 30.7786 24.8916 30.4937 25.2811 30.7262C25.737 30.9988 25.6591 31.712 25.4701 32.2277C24.6811 34.3759 23.0864 36.0627 21.5331 37.6831C21.4469 37.7723 21.3557 37.8667 21.2397 37.8999C21.1303 37.9313 21.0143 37.9086 20.9032 37.8806C19.8108 37.6062 17.0789 36.1239 17.4768 34.5577C17.8265 33.1786 20.8137 33.2625 21.8182 32.6996V32.7014Z" fill="#101828"/>
    <path d="M39.5707 15.032C38.281 14.8205 37.0693 14.4098 35.947 13.8487L34.9922 20.3039C36.1144 20.8633 37.3279 21.2723 38.6175 21.4838C45.8583 22.6742 52.6432 17.4495 53.7721 9.81432C53.9362 8.70085 53.9578 7.60312 53.8749 6.52637C51.5972 12.3769 45.7572 16.0494 39.5707 15.032V15.032Z" fill="#101828"/>
    <path d="M13.6434 16.5161C14.948 16.4427 16.1913 16.163 17.3633 15.726L17.6932 22.2494C16.5228 22.6864 15.2763 22.9626 13.9733 23.036C6.65464 23.4468 0.406812 17.5247 0.0172555 9.80732C-0.0391059 8.68337 0.0454362 7.58739 0.229439 6.52637C1.93354 12.5884 7.39231 16.8657 13.6434 16.5161V16.5161Z" fill="#101828"/>
    <path d="M25.9038 11.0718C24.8877 10.876 23.8151 10.9809 22.7708 11.1487C20.6705 11.4896 18.5487 12.1119 16.8097 13.3564C15.0708 14.601 13.7646 16.5482 13.7695 18.5567C13.7745 20.5633 15.3377 22.4861 17.433 22.6067C18.0746 22.6434 18.7244 22.5228 19.3609 22.369C21.6419 21.8201 23.8748 20.829 25.6137 19.2628C27.0907 17.9309 28.019 16.2598 28.523 14.4297C29.0103 12.6625 27.6378 11.4074 25.9055 11.0718H25.9038Z" fill="url(#paint6_linear_3173_6962)"/>
    <path d="M37.9471 33.6154C37.9156 33.6696 37.8808 33.729 37.841 33.7937C36.8729 35.4001 36.0441 37.0904 35.2932 38.8191C34.7859 39.9885 34.098 40.9464 33.0205 42.0284C31.5385 43.5177 29.8344 44.9038 28.2695 46.2987C28.8961 45.9823 28.5795 46.1274 29.2045 45.8128C30.1991 45.3111 32.427 43.7764 33.3023 43.0772C35.1307 41.6194 35.9529 39.8574 36.7585 37.6252C36.9309 37.1498 37.2724 36.5275 37.5973 35.9874C38.2919 34.832 38.8257 33.5734 39.129 32.2415C39.2401 31.7555 39.3048 31.322 39.265 31.0703C38.8721 31.6751 38.3101 32.9878 37.9455 33.6136L37.9471 33.6154Z" fill="#F79009"/>
    <path d="M21.2309 23.8757C21.1116 23.6729 20.9491 23.4807 20.732 23.4195C20.5032 23.3548 20.2512 23.4527 20.0772 23.624C19.9263 23.7726 19.8335 23.9718 19.7639 24.1781C19.8003 24.1991 19.8418 24.2218 19.8766 24.2428C20.049 24.3529 20.2032 24.477 20.2728 24.6099C20.3441 24.7427 20.3175 24.8843 20.165 24.9629C20.0291 25.0329 19.8169 25.0399 19.6081 25.0276C19.5766 25.8125 19.8285 26.6497 20.6126 26.8298C20.669 26.8438 20.7286 26.8508 20.785 26.8368C20.8646 26.8176 20.9259 26.7546 20.9823 26.6917C21.6321 25.9453 21.7398 24.7357 21.2326 23.8757H21.2309Z" fill="#101828"/>
    <path d="M28.9419 22.9929C28.8225 22.7901 28.6601 22.5978 28.4429 22.5367C28.2141 22.472 27.9622 22.5699 27.7881 22.7412C27.6373 22.8898 27.5444 23.089 27.4748 23.2953C27.5113 23.3163 27.5527 23.339 27.5875 23.36C27.7599 23.4701 27.9141 23.5942 27.9837 23.727C28.055 23.8599 28.0285 24.0015 27.876 24.0801C27.74 24.1501 27.5279 24.157 27.319 24.1448C27.2875 24.9297 27.5395 25.7669 28.3235 25.947C28.3799 25.961 28.4396 25.9679 28.4959 25.954C28.5755 25.9347 28.6369 25.8718 28.6932 25.8089C29.343 25.0625 29.4508 23.8529 28.9435 22.9929H28.9419Z" fill="#101828"/>
    <path d="M30.0418 33.9805C30.123 34.9995 29.7865 36.0658 29.1881 36.9101C28.598 37.7683 27.7873 38.4326 26.9071 38.9115C26.0236 39.3905 25.0654 39.6911 24.094 39.8275C23.1243 39.969 22.1379 39.9411 21.1914 39.7401C22.1529 39.6492 23.0895 39.5233 23.9995 39.2908C24.9063 39.0549 25.7865 38.735 26.6038 38.291C27.4193 37.8487 28.1719 37.2824 28.7869 36.5692C29.4019 35.8578 29.8429 34.9786 30.0418 33.9822V33.9805Z" fill="#00093F"/>
    <path d="M38.6827 9.42983C37.9682 8.98759 37.1543 8.62751 36.2044 8.52438C35.6126 8.46145 34.9777 8.49816 34.3395 8.5943C31.4071 9.03479 28.3984 10.8177 26.434 13.0988C25.5157 14.1651 24.5476 15.4202 24.9421 16.4794C25.3946 17.6995 26.6014 18.57 27.8679 19.1171C29.3797 19.7709 31.1534 20.0506 32.9089 20.325C33.8273 20.4683 34.7689 20.6134 35.7817 20.4596C38.5451 20.0436 41.0979 17.3726 41.514 14.9919C41.9301 12.6112 40.6056 10.6254 38.681 9.43158L38.6827 9.42983Z" fill="url(#paint7_linear_3173_6962)"/>
    <defs>
        <linearGradient id="paint0_linear_3173_6962" x1="18.2217" y1="2.61836" x2="42.6948" y2="52.3884" gradientUnits="userSpaceOnUse">
            <stop stop-color="#E16E56"/>
            <stop offset="1" stop-color="#E85D2C"/>
        </linearGradient>
        <linearGradient id="paint1_linear_3173_6962" x1="32.2408" y1="15.4691" x2="37.9002" y2="61.5204" gradientUnits="userSpaceOnUse">
            <stop stop-color="#FEDF89"/>
            <stop offset="1" stop-color="#F79009"/>
        </linearGradient>
        <linearGradient id="paint2_linear_3173_6962" x1="30.8342" y1="41.9179" x2="32.3266" y2="66.2231" gradientUnits="userSpaceOnUse">
            <stop stop-color="#0691AE"/>
            <stop offset="0.36" stop-color="#047B9C"/>
            <stop offset="1" stop-color="#024C74"/>
        </linearGradient>
        <linearGradient id="paint3_linear_3173_6962" x1="14.1106" y1="43.1614" x2="15.2585" y2="61.8367" gradientUnits="userSpaceOnUse">
            <stop stop-color="#0691AE"/>
            <stop offset="0.36" stop-color="#047B9C"/>
            <stop offset="1" stop-color="#024C74"/>
        </linearGradient>
        <linearGradient id="paint4_linear_3173_6962" x1="45.8896" y1="40.7559" x2="47.1149" y2="60.6823" gradientUnits="userSpaceOnUse">
            <stop stop-color="#0691AE"/>
            <stop offset="0.36" stop-color="#047B9C"/>
            <stop offset="1" stop-color="#024C74"/>
        </linearGradient>
        <linearGradient id="paint5_linear_3173_6962" x1="25.9469" y1="16.2418" x2="31.608" y2="62.2931" gradientUnits="userSpaceOnUse">
            <stop stop-color="#FEDF89"/>
            <stop offset="1" stop-color="#F79009"/>
        </linearGradient>
        <linearGradient id="paint6_linear_3173_6962" x1="21.1943" y1="22.6137" x2="21.1943" y2="10.9652" gradientUnits="userSpaceOnUse">
            <stop stop-color="#0691AE"/>
            <stop offset="0.36" stop-color="#047B9C"/>
            <stop offset="1" stop-color="#024C74"/>
        </linearGradient>
        <linearGradient id="paint7_linear_3173_6962" x1="33.2222" y1="20.5243" x2="33.2222" y2="8.49291" gradientUnits="userSpaceOnUse">
            <stop stop-color="#0691AE"/>
            <stop offset="0.36" stop-color="#047B9C"/>
            <stop offset="1" stop-color="#024C74"/>
        </linearGradient>
    </defs>
</svg>
