<svg width="56" height="56" viewBox="0 0 56 56" fill="none" xmlns="http://www.w3.org/2000/svg">
    <path d="M50.3542 44.86C49.697 45.7323 48.989 46.5643 48.2356 47.3526C47.2515 48.3822 46.1888 49.3366 45.0561 50.2071C44.8341 50.3784 44.6103 50.5444 44.3848 50.7088C44.1401 50.8853 43.8919 51.0583 43.6402 51.2279C42.2051 52.198 40.6721 53.0388 39.057 53.7328C38.176 54.1103 37.2706 54.4459 36.3459 54.7343C36.3214 54.7413 36.2969 54.7483 36.2742 54.7571C34.2413 55.3828 32.1035 55.7866 29.8871 55.9352C27.8437 56.0733 25.837 55.9876 23.8915 55.701C21.0284 55.2797 18.2963 54.4215 15.7687 53.1891C15.5484 53.0825 15.3282 52.9724 15.1114 52.8588C14.8492 52.7224 14.5888 52.5826 14.3301 52.4375C13.4281 51.9323 12.5559 51.3782 11.7186 50.7787C11.6522 50.7315 11.5858 50.6843 11.5193 50.6353C10.1384 49.6285 8.85193 48.4976 7.67729 47.2582C7.59688 47.1761 7.51997 47.0939 7.44306 47.01C3.24441 42.4775 0.512323 36.5326 0.06484 29.8868C-0.202601 25.9329 0.365492 22.1153 1.61705 18.6071C2.08725 17.2874 2.65534 16.0114 3.31258 14.7878C7.71749 6.57229 16.127 0.73928 26.1132 0.0645602C35.8582 -0.59268 44.7764 3.81747 50.2843 11.0454C50.6374 11.5068 50.9747 11.9788 51.2981 12.463C53.9271 16.3977 55.5929 21.0525 55.9355 26.1129C56.4074 33.1066 54.2697 39.6738 50.3542 44.86Z" fill="url(#paint0_linear_3173_6980)"/>
    <path d="M23.892 55.7006C21.0289 55.2793 18.2968 54.421 15.7692 53.1887C15.5489 53.0821 15.3287 52.972 15.1119 52.8583C14.9092 50.981 14.7152 49.1002 14.5421 47.2194C14.4774 46.5132 14.4145 45.8053 14.3586 45.0973C14.2397 43.5923 14.1488 42.0838 14.1156 40.577C14.0509 37.6894 14.1995 34.807 14.7763 31.9805C14.7991 31.8686 14.8218 31.7585 14.848 31.6484C14.9441 31.2009 15.0525 30.7551 15.1731 30.3147C15.4388 29.3445 15.7604 28.3919 16.1433 27.462C16.2027 27.3186 16.2621 27.1753 16.3268 27.032C17.3931 24.5778 18.8981 22.2932 20.8855 20.4858C21.7228 19.7237 23.1684 18.5175 23.0653 20.0488C23.0548 20.1799 23.0355 20.3302 23.0023 20.5033C22.9883 20.5819 22.9691 20.6588 22.9516 20.7357C22.9481 20.7532 22.9446 20.7707 22.9394 20.7899C22.9184 20.8791 22.8957 20.9682 22.8712 21.0574V21.0661C22.8468 21.1448 22.8258 21.2234 22.8013 21.3003C22.4237 22.5117 21.7595 23.6321 21.1495 24.7334C19.9713 26.8624 18.9068 29.1068 18.5782 31.519C18.5677 31.5977 18.5572 31.6763 18.5485 31.755C18.5485 31.7777 18.545 31.7987 18.5415 31.8214C18.5345 31.8896 18.5275 31.956 18.5205 32.0224C18.4681 32.573 18.4523 33.1272 18.4611 33.6813C18.4611 33.7582 18.4628 33.8316 18.4646 33.9068C18.4663 34.0291 18.4698 34.1515 18.4751 34.2756C18.4751 34.2896 18.4768 34.3018 18.4751 34.314C18.4786 34.3735 18.4803 34.4294 18.4838 34.4871C18.5048 34.9625 18.5397 35.4397 18.5782 35.9152V35.9239C18.5904 36.0847 18.6044 36.2456 18.6201 36.4064C18.6324 36.5462 18.6446 36.6878 18.6586 36.8294C18.6691 36.9552 18.6813 37.0793 18.6953 37.2052C18.7827 38.0827 18.8928 38.9602 19.0344 39.8307C19.0536 39.9548 19.0746 40.0789 19.0956 40.2012C19.1026 40.2397 19.1096 40.2781 19.1166 40.3166C19.1201 40.3358 19.1236 40.3551 19.1271 40.3725C19.1498 40.5159 19.1777 40.6592 19.2057 40.8008C19.2354 40.9633 19.2686 41.1242 19.3019 41.285C19.3263 41.4108 19.3543 41.5384 19.3823 41.6643C19.391 41.6975 19.398 41.7325 19.405 41.7657C19.4399 41.9265 19.4784 42.0856 19.5186 42.2446C19.5553 42.4037 19.5955 42.5627 19.6392 42.7218C19.648 42.762 19.6602 42.804 19.6707 42.8442C19.7423 43.1169 19.8193 43.3878 19.9014 43.6587C19.9101 43.6832 19.9171 43.7077 19.9241 43.7321C20.0552 44.1569 20.1986 44.5782 20.3541 44.9942C20.6723 45.8402 21.0428 46.667 21.4204 47.4903C21.9728 48.6964 22.5391 49.8973 22.9674 51.1506C23.4708 52.6189 23.7819 54.1536 23.892 55.7006Z" fill="url(#paint1_linear_3173_6980)"/>
    <path d="M18.9575 41.9576C19.2564 42.5379 19.585 43.1025 19.9084 43.6671C19.141 41.1587 18.7879 38.5298 18.5799 35.9148C18.4873 34.7751 18.4191 33.6337 18.4908 32.4993C18.5065 32.1654 18.538 31.8368 18.5799 31.5064C18.905 29.0977 19.9731 26.8533 21.1495 24.7242C21.8923 23.3818 22.7121 22.0184 23.0041 20.4941C22.6859 20.7371 22.3993 21.036 22.2734 21.1584C20.7439 22.6092 19.4941 24.3467 18.5904 26.245C18.0783 27.32 17.6815 28.4562 17.4053 29.6151C16.4212 33.7368 17.0137 38.1959 18.9575 41.9576Z" fill="#FDB022"/>
    <path d="M21.7278 47.0082C21.6264 47.1707 21.5215 47.3333 21.4184 47.4906C21.1247 47.9363 20.8276 48.3401 20.5601 48.6198C19.8924 49.3172 18.0448 51.0705 15.7672 53.189C15.5469 53.0824 15.3267 52.9723 15.1099 52.8587C14.8477 52.7223 14.5873 52.5825 14.3286 52.4374C13.4266 51.9322 12.5544 51.3781 11.7171 50.7786C11.6507 50.7314 11.5843 50.6842 11.5178 50.6352C10.1369 49.6284 8.85042 48.4974 7.67578 47.2581C9.16681 45.5993 10.2593 44.3338 10.4795 43.9614C10.8134 43.3933 11.2084 42.8637 11.6699 42.39C11.9828 42.0684 12.2904 41.7572 12.633 41.4846C13.0945 41.1175 13.5909 40.8151 14.1136 40.5774C15.3581 40.0058 16.7373 39.803 18.0815 39.9865C18.1671 39.997 18.2545 40.011 18.3419 40.0267C18.5954 40.0704 18.8454 40.1281 19.0936 40.2015H19.0953C19.1093 40.205 19.1233 40.2085 19.1355 40.2138C19.1478 40.2173 19.1583 40.219 19.1687 40.2243C19.6564 40.3711 20.1319 40.5721 20.5881 40.8291C20.866 40.9864 21.1125 41.1961 21.338 41.4234C21.5075 41.5964 21.6701 41.78 21.7977 41.988C22.0721 42.4337 22.2627 42.9196 22.3675 43.4196C22.4165 43.6416 22.4479 43.867 22.4619 44.0925C22.5266 45.0941 22.2766 46.1202 21.7278 47.0082Z" fill="#1D2939"/>
    <path d="M34.5763 34.8092C34.8455 36.2775 35.1426 37.793 35.9904 39.0236C33.5083 41.3501 30.264 42.7241 26.9586 43.5264C24.3856 44.1504 21.608 44.4388 19.1451 43.4722C18.8654 43.3621 18.577 43.2257 18.418 42.9723C18.2257 42.6681 18.4791 42.4234 18.5683 42.0756C18.827 41.0617 19.2116 40.0252 19.6853 39.0935C20.8616 36.7827 21.3109 34.1065 20.9525 31.537C20.8984 31.1437 20.8267 30.7329 20.956 30.3589C21.0627 30.053 21.2934 29.8065 21.5259 29.5793C24.0639 27.0884 27.5179 25.5711 31.0611 25.3229C31.7935 25.2722 32.5818 25.0782 33.0049 25.7354C33.4086 26.3612 33.3492 27.7631 33.4698 28.4885C33.8212 30.5983 34.19 32.7064 34.5763 34.811V34.8092Z" fill="url(#paint2_linear_3173_6980)"/>
    <path d="M33.8496 27.4681C33.708 27.9103 33.521 28.342 33.32 28.7616L33.1714 29.0744C33.056 29.3192 32.8323 29.5639 32.5701 29.7911C31.8342 30.4256 30.9147 30.8032 29.9499 30.9343C28.1302 31.1947 24.0784 31.6719 21.5893 31.9534C20.2503 32.1072 18.9026 32.0845 17.5654 31.9411C16.4467 31.8223 15.3455 31.6999 14.2478 31.5828C13.0154 31.4534 11.8985 30.8172 11.1538 29.8488C10.8235 29.4223 10.57 28.9294 10.4109 28.391C10.2169 27.7565 10.1837 27.0957 10.2903 26.4472C10.4197 25.6082 10.7885 24.8006 11.3426 24.1207L15.0413 19.5864C16.9344 17.2651 19.4777 15.5521 22.3357 14.6554C24.3231 14.0436 26.4137 13.8356 28.4833 14.0541C30.7714 14.2953 32.6819 15.9366 33.3322 18.1426L33.8811 19.9919C34.5977 22.4181 34.5942 25.0156 33.8478 27.4628L33.8496 27.4681Z" fill="url(#paint3_linear_3173_6980)"/>
    <path d="M23.5262 20.117C23.1574 20.5872 22.9214 21.1466 22.5858 21.6413C22.2414 22.1482 21.7415 22.6149 21.1018 22.6603C20.4113 22.7093 19.7506 22.3981 20.0862 21.699C20.6473 20.5296 22.3114 19.8094 23.5262 20.117Z" fill="#101828"/>
    <path d="M15.5239 26.8824C16.106 26.9785 16.744 27.0467 17.1636 27.4627C17.5953 27.8892 17.66 28.6076 17.3925 29.153C17.1251 29.6983 16.5762 30.0707 15.9872 30.2227C15.3998 30.3748 14.7758 30.3259 14.1832 30.193C13.29 29.992 12.3951 29.5603 11.9074 28.7859C11.4249 28.022 11.4459 26.4314 12.5244 26.1325C13.325 25.9122 14.7006 26.7478 15.5239 26.8824Z" fill="#F79009"/>
    <path d="M11.7516 28.8187C11.6398 29.2067 11.43 29.5528 11.1538 29.8517C10.8235 29.4252 10.57 28.9323 10.4109 28.3939C10.2169 27.7594 10.1837 27.0987 10.2903 26.4502C10.3428 26.4397 10.39 26.4362 10.4389 26.4327C11.5594 26.4205 12.0138 27.9517 11.7534 28.8169L11.7516 28.8187Z" fill="#F79009"/>
    <path d="M12.9832 26.1667C12.9674 26.2262 12.9255 26.2768 12.8835 26.324C12.6318 26.6107 12.3661 26.8851 12.0882 27.1456C11.4275 27.7609 10.2616 27.1036 10.8769 26.2803C11.1723 25.8853 13.1387 25.6004 12.9832 26.1685V26.1667Z" fill="#101828"/>
    <path d="M39.0571 53.733C38.1762 54.1106 37.2707 54.4462 36.346 54.7346C36.3216 54.7416 36.2971 54.7486 36.2744 54.7573C34.2415 55.3831 32.1037 55.7869 29.8872 55.9355C27.8439 56.0736 25.8372 55.9879 23.8917 55.7013C21.0285 55.28 18.2964 54.4217 15.7688 53.1894C15.5486 53.0828 15.3283 52.9727 15.1116 52.859C14.8494 52.7227 14.5889 52.5829 14.3302 52.4378C13.4283 51.9326 12.556 51.3785 11.7188 50.7789C12.3585 48.781 13.2517 46.8757 14.3582 45.098C15.1797 43.7748 16.1202 42.5197 17.162 41.3521L18.1705 40.2212L18.3436 40.0271L18.9571 39.3384H18.9589L19.3819 38.863C19.2735 39.3 19.1844 39.7597 19.1372 40.2142C19.1319 40.2579 19.1267 40.3016 19.1232 40.347V40.3523C19.0428 41.2909 19.1529 42.1981 19.6703 42.8449C19.6703 42.8466 19.6721 42.8484 19.6738 42.8501C19.8573 43.0808 20.0933 43.2766 20.3905 43.4304C20.9918 43.7416 21.7102 43.6052 22.3692 43.42C22.4216 43.406 22.4758 43.3902 22.5283 43.3745C25.1992 42.5949 27.8246 41.6632 30.3889 40.5847C31.0689 40.2998 31.9499 39.7265 32.7784 39.3489C33.1175 39.1951 34.2187 38.6917 34.7589 38.5186C34.8585 38.4872 34.9372 38.4662 34.9913 38.4609C34.9913 38.4609 35.299 38.8525 35.6486 39.3297C35.8076 39.5429 35.9737 39.7737 36.1258 39.9939C36.9998 41.2577 37.6186 42.7959 38.0556 44.495C38.7775 47.3022 39.0012 50.5482 39.0571 53.733Z" fill="#1D2939"/>
    <path d="M45.0548 50.2074C44.8328 50.3787 44.609 50.5448 44.3836 50.7091C44.1388 50.8856 43.8906 51.0587 43.6389 51.2282C42.2038 52.1984 40.6709 53.0391 39.0557 53.7331C38.1747 54.1106 37.2693 54.4463 36.3446 54.7347C36.3201 54.6718 36.2957 54.6088 36.2712 54.5476C35.0651 51.4817 34.0373 48.9838 33.7244 48.5101C33.3608 47.9595 33.0584 47.3722 32.8364 46.7499C32.6861 46.3269 32.541 45.9144 32.4484 45.4879C32.139 44.0738 32.2666 42.6317 32.77 41.3364C33.186 40.2614 33.8607 39.2895 34.7574 38.5187C34.948 38.3544 35.149 38.2006 35.3605 38.0555C35.3832 38.0397 35.4077 38.024 35.4304 38.01C35.6769 37.851 35.9461 37.7356 36.224 37.6429C36.4547 37.566 36.6907 37.5014 36.9337 37.4786C37.3357 37.4402 37.7377 37.4559 38.1275 37.5223C38.1275 37.5223 38.1293 37.5223 38.1293 37.5241C38.5977 37.6045 39.0505 37.7566 39.4735 37.9751C40.2513 38.3719 40.9278 38.9836 41.4102 39.751C41.8035 40.3768 42.1636 41.0165 42.3437 41.5077C42.6426 42.3205 43.2858 44.3622 44.0654 46.923C44.3783 47.949 44.7122 49.0607 45.0548 50.2074Z" fill="#1D2939"/>
    <path d="M44.3862 50.7092C44.1415 50.8857 43.8933 51.0588 43.6416 51.2283C42.2065 52.1985 40.6735 53.0392 39.0584 53.7332C38.1774 54.1107 37.2719 54.4464 36.3473 54.7348C36.3228 54.7418 36.2983 54.7488 36.2756 54.7575C36.2738 54.6876 36.2721 54.6177 36.2738 54.5477C36.2756 53.679 36.3385 52.812 36.4661 51.9537C36.7912 49.746 37.5236 47.6188 37.9134 45.4215C37.9676 45.1139 38.0148 44.8045 38.0568 44.4951C38.0778 44.3413 38.097 44.1875 38.1145 44.0319C38.1284 43.9095 38.1407 43.7872 38.1529 43.6648C38.1652 43.525 38.1774 43.3869 38.1896 43.2471C38.2001 43.1282 38.2089 43.0093 38.2158 42.8905C38.2228 42.7961 38.2281 42.7017 38.2333 42.6073C38.2386 42.5321 38.2421 42.4552 38.2456 42.3801C38.2456 42.3346 38.2508 42.2874 38.2526 42.2402C38.2578 42.1161 38.263 41.9903 38.2665 41.8662C38.27 41.7368 38.2735 41.6057 38.2753 41.4746C38.277 41.3802 38.2788 41.2841 38.2788 41.1897C38.2893 40.1094 38.2438 39.0274 38.1652 37.9507C38.1547 37.8091 38.1442 37.6658 38.1319 37.5242C38.1319 37.5224 38.1302 37.5224 38.1302 37.5224C38.1162 37.3406 38.1022 37.1606 38.0847 36.9806C38.0603 36.7114 38.0341 36.4404 38.0061 36.1712C37.9781 35.8881 37.9484 35.6031 37.9117 35.32C37.7928 34.3044 37.6285 33.2958 37.3471 32.3152C37.3244 32.2348 37.3017 32.1544 37.2772 32.0757C37.2545 32.0006 37.23 31.9236 37.2055 31.8485C36.5553 29.8768 35.3999 28.12 34.1116 26.4804C33.8913 26.1973 33.6676 25.9193 33.4404 25.6449C32.4842 24.4808 31.4424 23.3079 30.8743 21.8903C30.8656 21.8693 30.8569 21.8465 30.8481 21.8238C30.0388 19.742 31.8829 20.7733 32.9282 21.4218C33.4211 21.7277 33.8983 22.0598 34.3563 22.4164C34.8894 22.8289 35.3981 23.2747 35.8823 23.7466C37.0115 24.8478 38.0061 26.0924 38.8608 27.4156C39.7174 28.7406 40.4375 30.1495 41.0283 31.6108C42.9406 36.3373 43.5699 41.4729 44.0349 46.5507C44.0454 46.6748 44.0576 46.799 44.0681 46.9231C44.1817 48.1851 44.2866 49.4471 44.3862 50.7092Z" fill="url(#paint4_linear_3173_6980)"/>
    <path d="M38.7341 42.1819C38.5471 42.8077 38.3251 43.4212 38.1101 44.0365C38.4073 41.4303 38.2762 38.7803 38.0035 36.1706C37.8881 35.0327 37.7448 33.8982 37.4686 32.797C37.3917 32.4719 37.3025 32.1537 37.1994 31.8374C36.4408 29.5283 34.9812 27.5164 33.4378 25.6355C32.4624 24.4504 31.4083 23.26 30.8438 21.8145C31.2003 21.9962 31.5377 22.2375 31.6828 22.3336C33.45 23.482 34.9969 24.9626 36.231 26.6651C36.9302 27.6282 37.528 28.6735 38.0105 29.7625C39.7287 33.636 39.9595 38.1283 38.7324 42.1819H38.7341Z" fill="#FDB022"/>
    <path d="M24.3293 18.8224C22.2702 18.0079 20.1219 17.3996 18.2481 16.1777C17.5681 15.7338 17 15.1185 16.6662 14.3773C15.9967 12.8601 16.4739 11.1331 17.7342 10.1297C17.8985 9.99864 18.0715 9.86405 18.2463 9.72945C21.3875 7.31724 25.4568 6.43276 29.3041 7.37667C29.4893 7.42212 29.5907 7.45009 29.5907 7.45009C30.5976 7.65635 32.0239 8.36603 32.9241 8.86071C36.4463 10.7975 38.9984 14.456 39.6836 18.4414C39.8688 19.5234 39.9248 20.6596 39.5595 21.6944C39.1924 22.7274 38.3306 23.6399 37.2469 23.8112C36.7137 23.8968 36.1684 23.8024 35.6387 23.6993C33.057 23.1976 25.9934 19.4814 24.3293 18.8224Z" fill="url(#paint5_linear_3173_6980)"/>
    <defs>
        <linearGradient id="paint0_linear_3173_6980" x1="16.1637" y1="2.61836" x2="39.8366" y2="53.3832" gradientUnits="userSpaceOnUse">
            <stop stop-color="#038C8C"/>
            <stop offset="1" stop-color="#5BDCC6"/>
        </linearGradient>
        <linearGradient id="paint1_linear_3173_6980" x1="22.0986" y1="21.4437" x2="15.7954" y2="71.6911" gradientUnits="userSpaceOnUse">
            <stop stop-color="#FEDF89"/>
            <stop offset="1" stop-color="#F79009"/>
        </linearGradient>
        <linearGradient id="paint2_linear_3173_6980" x1="26.8537" y1="6.93419" x2="27.2907" y2="53.9006" gradientUnits="userSpaceOnUse">
            <stop stop-color="#FEDF89"/>
            <stop offset="1" stop-color="#F79009"/>
        </linearGradient>
        <linearGradient id="paint3_linear_3173_6980" x1="22.1504" y1="6.97825" x2="22.5874" y2="53.9447" gradientUnits="userSpaceOnUse">
            <stop stop-color="#FEDF89"/>
            <stop offset="1" stop-color="#F79009"/>
        </linearGradient>
        <linearGradient id="paint4_linear_3173_6980" x1="39.2611" y1="21.9339" x2="33.4876" y2="67.9617" gradientUnits="userSpaceOnUse">
            <stop stop-color="#FEDF89"/>
            <stop offset="1" stop-color="#F79009"/>
        </linearGradient>
        <linearGradient id="paint5_linear_3173_6980" x1="32.6514" y1="2.05058" x2="26.4304" y2="21.9601" gradientUnits="userSpaceOnUse">
            <stop stop-color="#FF7765"/>
            <stop offset="0.07" stop-color="#FC7060"/>
            <stop offset="0.7" stop-color="#E4393B"/>
            <stop offset="1" stop-color="#DB242D"/>
        </linearGradient>
    </defs>
</svg>
