<svg width="56" height="56" viewBox="0 0 56 56" fill="none" xmlns="http://www.w3.org/2000/svg">
    <path d="M50.3542 44.86C49.7686 45.6379 49.1411 46.3843 48.4769 47.0957C48.3982 47.1813 48.3178 47.267 48.2356 47.3526C47.4963 48.127 46.7114 48.8576 45.8864 49.5428C45.6137 49.7701 45.3375 49.9903 45.0561 50.2071C44.939 50.298 44.8201 50.3871 44.703 50.4745C44.5964 50.5532 44.4915 50.6318 44.3848 50.7088C44.1401 50.8853 43.8919 51.0583 43.6402 51.2279C43.2557 51.4866 42.8659 51.7383 42.4673 51.9778C41.7279 52.4253 40.9658 52.8395 40.1827 53.2171C39.8471 53.3814 39.508 53.537 39.1636 53.6856C39.1287 53.7013 39.092 53.717 39.057 53.7328C38.6917 53.8901 38.3211 54.0387 37.947 54.1802C37.4209 54.3813 36.886 54.5665 36.3459 54.7343C36.3214 54.7413 36.2969 54.7483 36.2742 54.7571C35.9037 54.8707 35.5313 54.9773 35.1538 55.077C35.0681 55.0997 34.9842 55.1206 34.8986 55.1416C34.8706 55.1486 34.8409 55.1556 34.8129 55.1626C34.4825 55.2448 34.1504 55.3217 33.8148 55.3916C33.3936 55.4807 32.9688 55.5611 32.5405 55.6293C31.7365 55.7622 30.9184 55.86 30.0881 55.9195C30.0497 55.9247 30.0095 55.9265 29.971 55.9282C29.957 55.93 29.943 55.9317 29.9291 55.9317C29.9151 55.9335 29.9011 55.9335 29.8871 55.9352H29.8801C29.8487 55.9387 29.8154 55.9405 29.784 55.9422C29.5865 55.9544 29.3889 55.9667 29.1949 55.9719C29.1267 55.9772 29.0603 55.9789 28.9921 55.9807C28.3157 56.0051 27.6445 56.0051 26.9785 55.9824C26.8893 55.9789 26.8002 55.9754 26.711 55.9702C26.4733 55.9597 26.2391 55.9474 26.0031 55.93C25.8755 55.9212 25.7461 55.9107 25.6185 55.8985C25.5049 55.8898 25.3896 55.8793 25.2759 55.8688C25.1693 55.8583 25.0609 55.8478 24.9543 55.8356C24.9141 55.8321 24.8722 55.8268 24.832 55.8216C24.5173 55.7884 24.2044 55.7482 23.8915 55.701C23.694 55.673 23.4982 55.6415 23.3025 55.6083C23.2081 55.5926 23.1154 55.5769 23.021 55.5594C22.8078 55.5209 22.5945 55.4807 22.383 55.4353C22.2572 55.4108 22.1313 55.3846 22.0055 55.3549H22.0037C21.5475 55.2552 21.0948 55.1451 20.6473 55.0228C18.9552 54.563 17.3226 53.9478 15.7687 53.1891C15.6288 53.1227 15.4908 53.0528 15.3527 52.9829C15.2723 52.9427 15.1918 52.9007 15.1114 52.8588C14.9821 52.7923 14.8527 52.7242 14.7251 52.6543C14.7216 52.6525 14.7199 52.6525 14.7181 52.649C14.5888 52.5808 14.4594 52.5092 14.3301 52.4375C14.005 52.2557 13.6833 52.0669 13.367 51.8729C12.8041 51.5268 12.2535 51.1615 11.7186 50.7787C11.6522 50.7315 11.5858 50.6843 11.5193 50.6353C11.0981 50.3277 10.6856 50.0096 10.2818 49.6792C10.1507 49.5708 10.0196 49.4607 9.88848 49.3506C9.11413 48.6951 8.37648 47.9959 7.67729 47.2582C7.59688 47.1761 7.51997 47.0939 7.44306 47.01C7.04627 46.5818 6.66346 46.1413 6.29464 45.6886C5.96252 45.283 5.64439 44.8688 5.33674 44.4457C2.33896 40.3275 0.431916 35.344 0.06484 29.8868C-0.202601 25.9329 0.365492 22.1153 1.61705 18.6071C2.08725 17.2874 2.65534 16.0114 3.31258 14.7878C7.71749 6.57229 16.127 0.73928 26.1132 0.0645602C35.8582 -0.59268 44.7764 3.81747 50.2843 11.0454C50.6374 11.5068 50.9747 11.9788 51.2981 12.463C53.9271 16.3977 55.5929 21.0525 55.9355 26.1129C56.4074 33.1066 54.2697 39.6738 50.3542 44.86Z" fill="url(#paint0_linear_3173_6999)"/>
    <path d="M28.017 39.9109C27.9104 40.4737 27.7898 41.0681 27.6604 41.6799C27.594 41.9962 27.5258 42.3161 27.4542 42.6395C27.178 43.891 26.8756 45.1776 26.5784 46.3837C26.5225 46.6126 26.4665 46.8364 26.4106 47.0566C26.075 48.3956 25.7551 49.5999 25.5034 50.4984C25.3164 51.1644 25.1678 51.6608 25.0752 51.9195C25.0682 51.937 25.0612 51.9562 25.0542 51.9772C24.9633 52.2062 24.7832 52.561 24.5403 53.0033C24.4039 53.2497 24.2484 53.5242 24.0771 53.8178C23.7974 54.302 23.509 54.781 23.2118 55.2547C23.1506 55.356 23.086 55.4574 23.0213 55.5588C22.808 55.5203 22.5948 55.4801 22.3833 55.4347C22.2574 55.4102 22.1316 55.384 22.0057 55.3543H22.004C21.5477 55.2547 21.095 55.1445 20.6475 55.0222C18.9555 54.5625 17.3229 53.9472 15.7689 53.1885C15.6291 53.1221 15.491 53.0522 15.3529 52.9823C15.2725 52.9421 15.1921 52.9001 15.1117 52.8582C14.9823 52.7918 14.853 52.7236 14.7254 52.6537C14.7219 52.6519 14.7201 52.6519 14.7184 52.6484C14.589 52.5803 14.4597 52.5086 14.3303 52.4369C14.0052 52.2551 13.6836 52.0663 13.3672 51.8723C15.29 47.9603 17.218 44.0484 19.611 40.4091C19.6319 40.3776 19.6512 40.3479 19.6721 40.3164C19.8592 40.0315 20.0497 39.7483 20.2472 39.4687C20.464 39.161 20.6895 38.8569 20.922 38.5632C21.345 38.0301 21.7994 37.5267 22.2976 37.0739C22.6332 36.768 22.9916 36.4849 23.3726 36.2331C23.6505 36.0496 24.1085 35.8101 24.6417 35.5934C24.8147 35.5217 24.9965 35.4536 25.1835 35.3906C26.3914 34.9764 27.7863 34.7753 28.3788 35.5287C28.655 35.8783 28.4435 37.649 28.017 39.9109Z" fill="#97F8C0"/>
    <path d="M38.7323 35.4629L37.8129 37.5902L37.1347 39.1564L36.3044 41.0774L34.9515 44.2046L33.6213 47.281L30.821 53.7573L30.1917 55.2116L29.8788 55.9352C29.8474 55.9387 29.8142 55.9405 29.7827 55.9422C29.5852 55.9545 29.3876 55.9667 29.1936 55.9719C29.1255 55.9772 29.059 55.9789 28.9909 55.9807C28.3144 56.0052 27.6432 56.0052 26.9772 55.9824C26.888 55.9789 26.7989 55.9754 26.7097 55.9702C26.472 55.9597 26.2378 55.9475 26.0018 55.93C25.8742 55.9213 25.7449 55.9108 25.6173 55.8985C25.5036 55.8898 25.3883 55.8793 25.2747 55.8688L25.0527 51.9778L24.6873 45.5855L24.5143 42.5632L24.2748 38.3803L24.1367 35.9698L24.6401 35.594L25.1768 35.1937L33.2787 29.1475L38.5331 35.2322L38.7323 35.4629Z" fill="#DEF2FF"/>
    <path d="M36.1746 40.4588C36.4001 41.4586 36.6238 42.5039 36.3669 43.4968C36.0627 44.6714 35.1398 45.5664 34.327 46.4666C33.8411 47.005 33.3813 47.5661 32.9496 48.1481C33.044 48.0205 32.7258 47.1867 32.6804 47.0189C32.5738 46.6274 32.4532 46.2411 32.3186 45.8583C32.0564 45.1067 31.6683 44.411 31.3886 43.6716C31.0985 42.9025 32.0773 42.9916 32.5965 42.8395C33.2572 42.6455 33.89 42.3553 34.4703 41.9848C35.1153 41.5722 35.6974 41.0566 36.1764 40.457L36.1746 40.4588Z" fill="white"/>
    <path d="M29.4647 43.1349C28.9788 44.0281 28.1625 44.7133 27.701 45.6205C27.3671 46.2795 27.215 47.0591 26.6837 47.5712C26.0963 46.4997 25.5877 45.3863 25.1612 44.2413C24.8081 43.2957 24.5092 42.2958 24.6036 41.2907C24.635 40.9604 24.7119 40.6265 24.8867 40.3451C25.093 40.013 25.5824 39.4466 25.9635 39.7927C26.348 40.1423 26.6417 40.6352 26.9983 41.0181C27.7394 41.8116 28.5662 42.5231 29.4629 43.1349H29.4647Z" fill="white"/>
    <path d="M30.6693 52.8366C30.6867 53.3103 30.6028 53.8137 30.4682 54.3276C30.449 54.4028 30.428 54.478 30.4053 54.5549V54.5601C30.3406 54.7769 30.269 54.9954 30.1938 55.2121C30.1099 55.4533 30.0208 55.6946 29.9299 55.9323C29.9159 55.934 29.9019 55.934 29.8879 55.9358H29.8809C29.8495 55.9393 29.8162 55.941 29.7848 55.9428C29.5873 55.955 29.3897 55.9672 29.1957 55.9725C29.1275 55.9777 29.0611 55.9795 28.993 55.9812C28.3165 56.0057 27.6453 56.0057 26.9793 55.983C26.8901 55.9795 26.801 55.976 26.7118 55.9707C26.4741 55.9602 26.2399 55.948 26.0039 55.9305C26.0266 55.7278 26.0511 55.525 26.0756 55.3222C26.2504 53.8592 26.5947 52.8488 27.1523 51.5046C27.3411 51.0467 27.432 50.5537 27.6086 50.0905C27.7379 49.7532 27.9459 49.3878 28.2256 49.1239C28.2815 49.0697 28.3427 49.019 28.4056 48.9753C28.4353 48.9543 28.4651 48.9351 28.4965 48.9159C28.7867 48.7428 29.2761 48.7778 29.5803 48.9788C29.6432 49.019 29.6991 49.068 29.7428 49.1239C29.7551 49.1379 29.7656 49.1536 29.776 49.1693C29.8669 49.3039 29.9106 49.4665 29.9491 49.6238C30.0208 49.8983 30.0907 50.1744 30.1589 50.4489C30.255 50.8334 30.3529 51.2162 30.449 51.6008C30.5504 52.0063 30.6535 52.4171 30.6693 52.8366Z" fill="#FF7765"/>
    <path d="M27.6407 46.7601C27.5673 46.414 27.6145 46.0138 27.8732 45.7725C28.0375 45.6187 28.2665 45.5488 28.4902 45.5208C28.7716 45.4859 29.0583 45.5121 29.3397 45.5366L30.9286 45.6781C31.0807 45.6921 31.238 45.7061 31.3709 45.7813C31.6208 45.9211 31.7222 46.2462 31.6768 46.5294C31.6313 46.8126 31.4705 47.0625 31.301 47.295C31.0912 47.5834 30.8622 47.8579 30.6332 48.1341C30.2434 48.6043 29.3992 50.0184 28.6598 49.3367C28.3416 49.043 28.2752 48.5623 28.1598 48.169C28.02 47.6883 27.7438 47.2496 27.6389 46.7601H27.6407Z" fill="#FF3932"/>
    <path d="M24.8343 55.8211C24.5197 55.7879 24.2068 55.7477 23.8939 55.7005C23.6964 55.6725 23.5006 55.6411 23.3048 55.6079C23.2104 55.5921 23.1178 55.5764 23.0234 55.5589C22.8101 55.5205 22.5969 55.4803 22.3854 55.4348C22.2595 55.4103 22.1337 55.3841 22.0078 55.3544L22.0235 55.0712L22.2228 51.4214L22.6248 44.0625L22.7472 41.8233L22.9675 37.8047L23.4219 42.1904L23.7086 44.9504L24.5424 53.0034L24.8343 55.8211Z" fill="#61EBA9"/>
    <path d="M25.2765 55.8687C25.1699 55.8582 25.0615 55.8477 24.9549 55.8355C24.9147 55.832 24.8727 55.8268 24.8325 55.8215C24.5179 55.7883 24.205 55.7481 23.8921 55.7009C23.6946 55.6729 23.4988 55.6415 23.303 55.6083L23.2121 55.2552L22.221 51.4219L20.3297 44.1136L21.3103 42.6994L22.1948 41.4252L22.7944 40.5599L20.9223 38.5637L19.7109 37.272L21.3348 36.2302L25.1489 33.7812L25.1786 35.1936L25.1839 35.3911L25.2573 38.8871L25.2783 39.8782L25.3377 42.6977L25.3831 44.8127L25.4076 45.9507L25.5037 50.4989L25.6191 55.8984C25.5055 55.8897 25.3901 55.8792 25.2765 55.8687Z" fill="#CAFBDA"/>
    <path d="M22.3854 55.4346C22.2595 55.4102 22.1337 55.384 22.0078 55.3542L22.0235 55.0711C22.1022 54.4261 22.1407 52.0226 22.249 51.5244C22.277 52.2254 22.3557 54.732 22.3854 55.4346Z" fill="#39D89C"/>
    <path d="M30.0898 55.9195C30.0513 55.9248 30.0111 55.9265 29.9727 55.9282L30.3345 55.1102V55.1032L33.9808 46.8562L35.3022 43.8672L36.3738 41.4375L37.4558 38.9903L38.1549 37.4067L39.1356 35.1885L40.1441 35.6045L41.6526 36.2268L45.3863 37.765L45.4877 37.8069L45.888 49.5429C45.6153 49.7701 45.3391 49.9904 45.0577 50.2071C44.9406 50.298 44.8217 50.3872 44.7046 50.4746C44.598 50.5532 44.4931 50.6319 44.3865 50.7088C44.1418 50.8853 43.8936 51.0584 43.6419 51.2279C43.2573 51.4866 42.8675 51.7383 42.469 51.9778C41.7296 52.4253 40.9674 52.8396 40.1843 53.2171C39.8487 53.3814 39.5096 53.537 39.1653 53.6856C39.1303 53.7013 39.0936 53.7171 39.0587 53.7328C38.6933 53.8901 38.3228 54.0387 37.9487 54.1803C37.4225 54.3813 36.8877 54.5666 36.3475 54.7344C36.3231 54.7414 36.2986 54.7484 36.2759 54.7571C35.9053 54.8707 35.533 54.9773 35.1554 55.077C35.0698 55.0997 34.9859 55.1207 34.9002 55.1417C34.8722 55.1486 34.8425 55.1556 34.8146 55.1626C34.4842 55.2448 34.1521 55.3217 33.8165 55.3916C33.3952 55.4808 32.9704 55.5612 32.5422 55.6293C31.7381 55.7622 30.9201 55.8601 30.0898 55.9195Z" fill="#61EBA9"/>
    <path d="M48.5704 44.1846C48.5669 45.0551 48.5337 46.0462 48.4778 47.095C48.3991 47.1807 48.3187 47.2663 48.2365 47.352C47.4971 48.1263 46.7123 48.857 45.8873 49.5422C45.6146 49.7694 45.3384 49.9897 45.057 50.2064C44.9398 50.2973 44.821 50.3865 44.7039 50.4739C44.5972 50.5525 44.4924 50.6312 44.3857 50.7081C44.141 50.8846 43.8928 51.0577 43.6411 51.2272C43.2565 51.4859 42.8667 51.7376 42.4682 51.9771C41.7288 52.4246 40.9667 52.8389 40.1836 53.2164C40.4738 51.229 40.736 48.1962 40.6521 45.8819C40.6328 45.3767 40.6521 44.8716 40.708 44.3734C40.7097 44.3559 40.7115 44.3402 40.7132 44.3245C40.9352 42.4017 41.7061 40.5663 43.0013 39.105C43.7407 38.2712 44.571 37.6664 45.3856 37.7643C45.7247 37.8063 46.062 37.9706 46.3889 38.2939C46.4903 38.3918 46.6004 38.5194 46.7158 38.6663C47.9534 40.2289 48.5774 42.1884 48.5704 44.1846Z" fill="#97F8C0"/>
    <path d="M40.7198 44.3057L40.7093 44.3738L39.1658 53.6853C39.1309 53.7011 39.0941 53.7168 39.0592 53.7325C38.6939 53.8898 38.3233 54.0384 37.9492 54.18L40.7145 44.3249L40.7198 44.3057Z" fill="#39D89C"/>
    <path d="M39.5004 42.0592L39.6228 45.4153L32.5417 55.6287C31.7376 55.7616 30.9196 55.8595 30.0893 55.9189C30.0509 55.9242 30.0106 55.9259 29.9722 55.9276C29.9582 55.9294 29.9442 55.9311 29.9302 55.9311C29.9163 55.9329 29.9023 55.9329 29.8883 55.9346H29.8813C29.8498 55.9381 29.8166 55.9399 29.7852 55.9416L30.4686 54.3265L31.3671 52.1992V52.194L33.2409 47.7628L34.6148 44.5116L36.2265 40.6975L36.805 39.3288L37.464 37.7661L38.5355 35.2316L39.2592 33.5186L41.6522 36.2262L43.0034 37.7539L39.5004 42.0592Z" fill="#CAFBDA"/>
    <path d="M20.315 25.3039C20.6034 25.3703 20.8744 25.4017 21.1261 25.393C21.425 23.7149 21.5998 20.8185 20.9146 18.6283C20.156 16.2021 17.1389 14.4541 16.6565 14.9244C15.1218 16.4224 15.6199 20.5598 16.3139 21.6244C16.3139 21.6244 16.8628 22.4302 17.5742 23.4055C18.2489 24.3267 19.2033 25.0469 20.315 25.3039Z" fill="url(#paint1_linear_3173_6999)"/>
    <path d="M19.1745 23.1774C19.0312 21.7895 19.3528 20.5554 18.7166 19.2217C18.152 18.0366 17.4545 16.9738 16.6662 15.9268C16.5368 15.7555 16.411 15.5824 16.2834 15.4111C15.2171 17.1696 15.6821 20.6603 16.3096 21.6252C16.3096 21.6252 16.8585 22.431 17.5699 23.4064C18.1065 24.1388 18.8249 24.7331 19.6535 25.0792C19.4035 24.4622 19.2375 23.8189 19.171 23.1774H19.1745Z" fill="white"/>
    <path d="M40.143 35.6041C40.143 35.6041 36.8131 27.6334 35.7626 26.0584C34.4131 24.0343 33.7122 20.6292 25.703 18.8742C22.7261 18.2222 15.3619 20.8267 14.8026 21.5923C14.2432 22.3562 13.8237 24.251 12.5686 24.6513C11.3136 25.0516 6.46645 24.5412 6.30738 25.819C6.14832 27.0967 7.03979 31.0996 8.40845 31.2709C9.77712 31.4405 16.5208 34.5973 16.8302 35.099C16.9141 35.2371 17.3406 36.0551 17.9349 37.1651C19.1638 38.3747 20.3856 39.586 21.576 40.8481C24.6297 44.0888 28.9 42.4055 32.5638 41.334C33.5024 41.0596 38.2255 38.6404 38.9247 38.1754L40.1448 35.6059L40.143 35.6041Z" fill="url(#paint2_linear_3173_6999)"/>
    <path d="M39.942 36.0274C38.0297 38.4239 30.1079 40.3746 28.6308 40.0582C25.1943 39.3241 20.7265 36.7738 19.6375 33.7376C19.0379 32.063 18.4069 30.2171 18.6743 28.408C18.8631 27.1162 19.8053 24.9033 18.7862 23.7793C18.6499 23.629 18.538 23.4752 18.4471 23.3213C16.9596 23.2916 15.5105 23.0661 14.418 22.29C14.0002 23.1693 13.5283 24.3439 12.5686 24.6498C11.3136 25.0501 6.46645 24.5397 6.30738 25.8175C6.14832 27.0952 7.03979 31.0981 8.40845 31.2694C9.77712 31.439 16.5208 34.5958 16.8302 35.0975C17.1379 35.5992 20.2423 44.0332 25.911 46.1622C35.5336 49.777 39.942 36.0292 39.942 36.0292V36.0274Z" fill="white"/>
    <path d="M14.3672 25.1044C14.3672 25.1044 15.353 24.2531 15.7463 24.0713C16.1396 23.8878 17.3667 25.2005 17.3667 25.2005C17.3667 25.2005 15.7131 26.2003 14.3672 25.1044Z" fill="#2E312A"/>
    <path d="M6.30737 25.8159C6.24095 26.3472 6.35806 27.3471 6.61327 28.3487C7.27575 28.0445 7.93474 27.5394 8.38047 27.0447C8.77552 26.6077 9.07267 25.274 8.77901 24.9209C7.4925 25.0118 6.38079 25.2163 6.30737 25.8159Z" fill="#14192C"/>
    <path d="M15.6626 31.0591C15.5315 30.879 15.2256 30.9384 15.1137 31.1849C14.9616 31.5974 14.39 31.8491 13.7468 31.8859C13.5597 31.8963 10.9151 31.5083 10.0848 31.316C9.1863 31.1097 8.30357 30.7881 7.44531 30.4473C7.72674 30.9017 8.05011 31.2234 8.40845 31.2671C8.71085 31.3055 9.28594 31.4943 9.98862 31.7635C11.2419 31.968 12.4568 32.1708 12.9899 32.44C14.21 33.0552 16.2586 31.8736 15.6643 31.0591H15.6626Z" fill="#14192C"/>
    <path d="M26.2096 24.7423C26.498 24.8088 26.7689 24.8402 27.0206 24.8315C27.3195 23.1534 27.4943 20.257 26.8091 18.0668C26.0505 15.6406 23.0335 13.8926 22.551 14.3628C21.0163 15.8608 21.5145 19.9983 22.2084 21.0628C22.2084 21.0628 22.7573 21.8687 23.4687 22.844C24.1434 23.7652 25.0978 24.4854 26.2096 24.7423Z" fill="url(#paint3_linear_3173_6999)"/>
    <path d="M25.0691 22.6149C24.9257 21.227 25.2474 19.9929 24.6111 18.6592C24.0465 17.4741 23.349 16.4113 22.5607 15.3643C22.4314 15.193 22.3055 15.0199 22.1779 14.8486C21.1116 16.6071 21.5766 20.0978 22.2041 21.0627C22.2041 21.0627 22.753 21.8685 23.4644 22.8439C24.001 23.5763 24.7195 24.1706 25.548 24.5167C25.298 23.8997 25.132 23.2564 25.0656 22.6149H25.0691Z" fill="white"/>
    <path d="M16.582 24.8995C16.6047 24.723 16.5698 24.5622 16.5138 24.4118C16.3303 24.2685 16.1503 24.1531 15.9982 24.0955C15.9125 24.0885 15.8216 24.085 15.7237 24.085C15.5053 24.1933 15.1329 24.4765 14.8323 24.7195C14.8061 25.0166 14.9057 25.2858 15.0822 25.4816C15.472 25.6109 15.8548 25.6284 16.1975 25.5812C16.3985 25.4239 16.547 25.1862 16.582 24.8978V24.8995Z" fill="#221316"/>
    <path d="M15.6482 24.898C15.8056 24.898 15.9331 24.7704 15.9331 24.613C15.9331 24.4557 15.8056 24.3281 15.6482 24.3281C15.4908 24.3281 15.3633 24.4557 15.3633 24.613C15.3633 24.7704 15.4908 24.898 15.6482 24.898Z" fill="#DAD9D9"/>
    <defs>
        <linearGradient id="paint0_linear_3173_6999" x1="16.1637" y1="2.61836" x2="39.8366" y2="53.3832" gradientUnits="userSpaceOnUse">
            <stop stop-color="#DB242D"/>
            <stop offset="1" stop-color="#FFE5D6"/>
        </linearGradient>
        <linearGradient id="paint1_linear_3173_6999" x1="15.5374" y1="19.9273" x2="21.5319" y2="20.2709" gradientUnits="userSpaceOnUse">
            <stop stop-color="#FEDF89"/>
            <stop offset="1" stop-color="#F79009"/>
        </linearGradient>
        <linearGradient id="paint2_linear_3173_6999" x1="6.08136" y1="29.6484" x2="40.3694" y2="31.6134" gradientUnits="userSpaceOnUse">
            <stop stop-color="#FEDF89"/>
            <stop offset="1" stop-color="#F79009"/>
        </linearGradient>
        <linearGradient id="paint3_linear_3173_6999" x1="21.4335" y1="19.3648" x2="27.4263" y2="19.7083" gradientUnits="userSpaceOnUse">
            <stop stop-color="#FEDF89"/>
            <stop offset="1" stop-color="#F79009"/>
        </linearGradient>
    </defs>
</svg>
