<svg width="67" height="68" viewBox="0 0 67 68" fill="none" xmlns="http://www.w3.org/2000/svg">
    <g filter="url(#filter0_d_225_1706)">
        <path d="M33.5 6C39.7326 6 45.7099 8.52856 50.117 13.0294C54.5241 17.5303 57 23.6348 57 30C57 36.3652 54.5241 42.4697 50.117 46.9706C45.7099 51.4714 39.7326 54 33.5 54C27.2674 54 21.2901 51.4714 16.883 46.9706C12.4759 42.4697 10 36.3652 10 30C10 23.6348 12.4759 17.5303 16.883 13.0294C21.2901 8.52856 27.2674 6 33.5 6ZM33.5 27.0891L28.0413 21.5143C27.6633 21.1283 27.1507 20.9114 26.6162 20.9114C26.0817 20.9114 25.569 21.1283 25.1911 21.5143C24.8131 21.9003 24.6008 22.4238 24.6008 22.9697C24.6008 23.5156 24.8131 24.0391 25.1911 24.4251L30.6498 30L25.1911 35.5749C25.0039 35.766 24.8555 35.9929 24.7542 36.2426C24.6529 36.4923 24.6008 36.76 24.6008 37.0303C24.6008 37.3006 24.6529 37.5682 24.7542 37.818C24.8555 38.0677 25.0039 38.2946 25.1911 38.4857C25.3782 38.6768 25.6004 38.8285 25.8449 38.9319C26.0894 39.0353 26.3515 39.0886 26.6162 39.0886C26.8808 39.0886 27.1429 39.0353 27.3874 38.9319C27.632 38.8285 27.8541 38.6768 28.0413 38.4857L33.5 32.9109L38.9587 38.4857C39.1459 38.6768 39.368 38.8285 39.6126 38.9319C39.8571 39.0353 40.1192 39.0886 40.3838 39.0886C40.6485 39.0886 40.9106 39.0353 41.1551 38.9319C41.3996 38.8285 41.6218 38.6768 41.8089 38.4857C41.9961 38.2946 42.1445 38.0677 42.2458 37.818C42.3471 37.5682 42.3992 37.3006 42.3992 37.0303C42.3992 36.76 42.3471 36.4923 42.2458 36.2426C42.1445 35.9929 41.9961 35.766 41.8089 35.5749L36.3502 30L41.8089 24.4251C41.9961 24.234 42.1445 24.0071 42.2458 23.7574C42.3471 23.5077 42.3992 23.24 42.3992 22.9697C42.3992 22.6994 42.3471 22.4318 42.2458 22.182C42.1445 21.9323 41.9961 21.7054 41.8089 21.5143C41.6218 21.3232 41.3996 21.1715 41.1551 21.0681C40.9106 20.9647 40.6485 20.9114 40.3838 20.9114C40.1192 20.9114 39.8571 20.9647 39.6126 21.0681C39.368 21.1715 39.1459 21.3232 38.9587 21.5143L33.5 27.0891Z" fill="#E70000"/>
    </g>
    <defs>
        <filter id="filter0_d_225_1706" x="0" y="0" width="67" height="68" filterUnits="userSpaceOnUse" color-interpolation-filters="sRGB">
            <feFlood flood-opacity="0" result="BackgroundImageFix"/>
            <feColorMatrix in="SourceAlpha" type="matrix" values="0 0 0 0 0 0 0 0 0 0 0 0 0 0 0 0 0 0 127 0" result="hardAlpha"/>
            <feOffset dy="4"/>
            <feGaussianBlur stdDeviation="5"/>
            <feComposite in2="hardAlpha" operator="out"/>
            <feColorMatrix type="matrix" values="0 0 0 0 0 0 0 0 0 0 0 0 0 0 0 0 0 0 0.25 0"/>
            <feBlend mode="normal" in2="BackgroundImageFix" result="effect1_dropShadow_225_1706"/>
            <feBlend mode="normal" in="SourceGraphic" in2="effect1_dropShadow_225_1706" result="shape"/>
        </filter>
    </defs>
</svg>
