<svg width="360" height="335" viewBox="0 0 360 335" fill="none" xmlns="http://www.w3.org/2000/svg">
    <circle cx="10.023" cy="173.023" r="10.023" fill="url(#paint0_linear_225_1708)"/>
    <circle cx="221.5" cy="167.5" r="167.5" fill="url(#paint1_linear_225_1708)"/>
    <circle cx="133.28" cy="224" r="56" fill="url(#paint2_linear_225_1708)"/>
    <mask id="mask0_225_1708" style="mask-type:alpha" maskUnits="userSpaceOnUse" x="53" y="186" width="105" height="104">
        <circle cx="105.727" cy="237.995" r="51.7987" fill="url(#paint3_linear_225_1708)"/>
    </mask>
    <g mask="url(#mask0_225_1708)">
        <path d="M120.248 278.715C121.321 285.153 119.2 287.997 119.2 287.997C147.196 279.314 164.861 254.163 154.831 220.329C154.831 220.329 121.446 236.947 118.152 253.265C114.859 269.583 119.175 272.278 120.248 278.715Z" fill="url(#paint4_linear_225_1708)"/>
    </g>
    <mask id="mask1_225_1708" style="mask-type:alpha" maskUnits="userSpaceOnUse" x="77" y="168" width="113" height="113">
        <circle cx="133.371" cy="224.303" r="56.0912" fill="url(#paint5_linear_225_1708)"/>
    </mask>
    <g mask="url(#mask1_225_1708)">
        <path d="M113.107 203.552C123.32 187.99 117.97 169.509 117.97 169.509C87.3311 180.37 74.1999 205.011 78.4148 236.299C78.4148 236.299 102.894 219.115 113.107 203.552Z" fill="url(#paint6_linear_225_1708)"/>
    </g>
    <g filter="url(#filter0_d_225_1708)">
        <path d="M147.628 236.209C159.436 237.078 171.94 229.61 171.94 229.61C154.227 229.61 145.379 228.262 135.124 221.969C135.124 221.969 135.819 235.341 147.628 236.209Z" fill="#FE3D00"/>
        <path d="M118.627 297.163C113.993 288.599 116.194 285.231 122.621 279.971H124.879C124.879 279.971 122.621 284.138 122.621 286.57C122.621 289.001 123.49 289.869 122.621 292.127C121.753 294.384 118.627 297.163 118.627 297.163Z" fill="#FE3D00"/>
        <path d="M138.25 293.128C128.536 293.8 125.226 289.869 124.01 280.318L126.094 280.318C126.094 280.318 128.05 284.099 130.263 285.106C132.476 286.113 133.625 285.682 135.321 287.407C137.016 289.133 138.25 293.128 138.25 293.128Z" fill="#FE3D00"/>
        <path d="M173.676 293.342C161.173 300.462 142.418 296.121 134.083 281.36L144.328 280.318C148.266 290.077 157.083 291.444 173.676 293.342Z" fill="#FFD600"/>
        <path d="M157.7 238.988C175.934 229.089 183.054 235.167 183.054 235.167C183.054 235.167 179.233 222.49 157.7 231.173C136.166 239.856 127.657 235.862 127.657 235.862C127.657 235.862 139.466 248.886 157.7 238.988Z" fill="#FFD600"/>
        <path d="M184.269 284.139C179.059 293.169 156.484 292.127 148.496 279.797C165.678 273.115 173.038 266.836 184.269 245.76C184.269 245.76 188.437 249.754 189.479 257.395C190.521 265.036 185.137 269.725 185.137 269.725C185.137 269.725 189.479 275.108 184.269 284.139Z" fill="url(#paint7_linear_225_1708)"/>
        <path d="M139.639 247.671C127.915 252.474 109.586 266.026 107.513 265.384C107.513 265.384 106.297 277.192 124.531 281.36C142.765 285.528 156.137 278.929 161.52 276.324C166.904 273.719 187.395 257.743 187.395 235.515C183.575 245.413 153.358 242.051 139.639 247.671Z" fill="url(#paint8_linear_225_1708)"/>
        <path d="M172.113 178.902C166.73 178.074 157.005 166.399 152.837 172.303C148.67 178.208 192.258 182.376 188.437 235.167C188.437 235.167 197.12 224.401 197.12 216.412C197.12 208.424 191.563 205.819 191.563 203.388C191.563 200.957 199.551 186.891 191.563 178.902C183.575 170.914 177.497 179.731 172.113 178.902Z" fill="url(#paint9_linear_225_1708)"/>
        <path d="M187.395 234.646C191.216 198.178 144.155 167.267 132.867 179.771C121.579 192.274 138.598 201.13 138.598 201.13C138.598 201.13 135.472 217.801 146.065 223.185C156.658 228.568 176.802 216.933 187.395 234.646Z" fill="url(#paint10_linear_225_1708)"/>
        <path d="M139.466 277.54C143.479 267.547 142.893 263.133 136.34 257.569C136.34 257.569 143.807 260.868 143.807 266.425C143.807 271.982 139.466 277.54 139.466 277.54Z" fill="url(#paint11_linear_225_1708)"/>
    </g>
    <path fill-rule="evenodd" clip-rule="evenodd" d="M101.207 242.285C101.566 242.18 101.831 241.847 101.831 241.454C101.831 241.061 101.567 240.728 101.207 240.623C101.457 240.814 101.62 241.115 101.62 241.454C101.62 241.792 101.457 242.094 101.207 242.285V242.285ZM101.513 242.725C102.215 242.725 102.783 242.155 102.783 241.454C102.783 240.753 102.214 240.183 101.513 240.183C101.46 240.183 101.408 240.187 101.356 240.193C101.985 240.27 102.471 240.805 102.471 241.454C102.471 242.103 101.984 242.638 101.356 242.715C101.408 242.722 101.459 242.725 101.513 242.725V242.725ZM101.958 243.46C103.066 243.46 103.964 242.562 103.964 241.454C103.964 240.346 103.066 239.448 101.958 239.448C101.875 239.448 101.792 239.453 101.712 239.463C102.704 239.584 103.472 240.43 103.472 241.454C103.472 242.479 102.704 243.324 101.712 243.445C101.792 243.455 101.875 243.46 101.958 243.46V243.46Z" fill="#9DD8F1"/>
    <path fill-rule="evenodd" clip-rule="evenodd" d="M104.81 245.144C106.847 245.144 108.5 243.491 108.5 241.454C108.5 239.417 106.847 237.764 104.81 237.764C104.657 237.764 104.506 237.774 104.357 237.792C106.181 238.016 107.594 239.57 107.594 241.454C107.594 243.338 106.181 244.893 104.357 245.117C104.506 245.135 104.657 245.144 104.81 245.144V245.144ZM102.603 244.152C104.092 244.152 105.3 242.944 105.3 241.454C105.3 239.964 104.092 238.757 102.603 238.757C102.49 238.757 102.38 238.764 102.272 238.777C103.605 238.94 104.638 240.076 104.638 241.454C104.638 242.832 103.605 243.968 102.272 244.132C102.38 244.144 102.49 244.152 102.603 244.152ZM103.506 244.751C105.327 244.751 106.804 243.275 106.804 241.454C106.804 239.633 105.328 238.157 103.506 238.157C103.369 238.157 103.234 238.166 103.101 238.182C104.732 238.381 105.994 239.77 105.994 241.454C105.994 243.138 104.731 244.528 103.101 244.727C103.234 244.743 103.369 244.751 103.506 244.751V244.751Z" fill="#9DD8F1"/>
    <path fill-rule="evenodd" clip-rule="evenodd" d="M106.449 224.418C107.271 224.178 107.876 223.417 107.876 222.519C107.876 221.621 107.274 220.86 106.449 220.62C107.022 221.056 107.393 221.744 107.393 222.519C107.393 223.293 107.022 223.983 106.449 224.418V224.418ZM107.149 225.424C108.754 225.424 110.053 224.122 110.053 222.519C110.053 220.917 108.752 219.615 107.149 219.615C107.029 219.615 106.909 219.622 106.792 219.637C108.228 219.813 109.339 221.036 109.339 222.519C109.339 224.002 108.225 225.226 106.792 225.402C106.909 225.416 107.026 225.424 107.149 225.424V225.424ZM108.167 227.105C110.699 227.105 112.752 225.052 112.752 222.519C112.752 219.987 110.699 217.934 108.167 217.934C107.976 217.934 107.787 217.946 107.604 217.968C109.872 218.244 111.627 220.178 111.627 222.519C111.627 224.861 109.872 226.794 107.604 227.071C107.787 227.093 107.976 227.105 108.167 227.105V227.105Z" fill="#9DD8F1"/>
    <path fill-rule="evenodd" clip-rule="evenodd" d="M114.685 230.954C119.342 230.954 123.12 227.176 123.12 222.519C123.12 217.863 119.342 214.085 114.685 214.085C114.335 214.085 113.99 214.107 113.65 214.148C117.82 214.66 121.05 218.213 121.05 222.519C121.05 226.826 117.82 230.379 113.65 230.891C113.99 230.932 114.335 230.954 114.685 230.954V230.954ZM109.64 228.686C113.043 228.686 115.806 225.926 115.806 222.519C115.806 219.113 113.043 216.353 109.64 216.353C109.383 216.353 109.131 216.37 108.884 216.4C111.93 216.772 114.291 219.37 114.291 222.519C114.291 225.669 111.93 228.265 108.884 228.639C109.131 228.669 109.383 228.686 109.64 228.686ZM111.705 230.056C115.867 230.056 119.244 226.682 119.244 222.519C119.244 218.357 115.87 214.983 111.705 214.983C111.392 214.983 111.083 215.002 110.78 215.039C114.507 215.494 117.392 218.67 117.392 222.519C117.392 226.369 114.504 229.545 110.78 230C111.083 230.037 111.392 230.056 111.705 230.056V230.056Z" fill="#9DD8F1"/>
    <defs>
        <filter id="filter0_d_225_1708" x="97.4961" y="164.643" width="109.624" height="146.52" filterUnits="userSpaceOnUse" color-interpolation-filters="sRGB">
            <feFlood flood-opacity="0" result="BackgroundImageFix"/>
            <feColorMatrix in="SourceAlpha" type="matrix" values="0 0 0 0 0 0 0 0 0 0 0 0 0 0 0 0 0 0 127 0" result="hardAlpha"/>
            <feOffset dy="4"/>
            <feGaussianBlur stdDeviation="5"/>
            <feComposite in2="hardAlpha" operator="out"/>
            <feColorMatrix type="matrix" values="0 0 0 0 0 0 0 0 0 0 0 0 0 0 0 0 0 0 0.25 0"/>
            <feBlend mode="normal" in2="BackgroundImageFix" result="effect1_dropShadow_225_1708"/>
            <feBlend mode="normal" in="SourceGraphic" in2="effect1_dropShadow_225_1708" result="shape"/>
        </filter>
        <linearGradient id="paint0_linear_225_1708" x1="5.32348" y1="182.324" x2="15.015" y2="164.365" gradientUnits="userSpaceOnUse">
            <stop stop-color="#003367"/>
            <stop offset="1" stop-color="#003367" stop-opacity="0"/>
        </linearGradient>
        <linearGradient id="paint1_linear_225_1708" x1="142.964" y1="322.943" x2="304.924" y2="22.8113" gradientUnits="userSpaceOnUse">
            <stop stop-color="#003367"/>
            <stop offset="0.390625" stop-color="#003367" stop-opacity="0"/>
            <stop offset="0.515625" stop-color="#003367" stop-opacity="0"/>
        </linearGradient>
        <linearGradient id="paint2_linear_225_1708" x1="99.2916" y1="269.48" x2="170.02" y2="181.272" gradientUnits="userSpaceOnUse">
            <stop stop-color="#1A4C97"/>
            <stop offset="1" stop-color="#019FE3"/>
        </linearGradient>
        <linearGradient id="paint3_linear_225_1708" x1="74.2882" y1="280.062" x2="139.71" y2="198.472" gradientUnits="userSpaceOnUse">
            <stop stop-color="#1A4C97"/>
            <stop offset="1" stop-color="#019FE3"/>
        </linearGradient>
        <linearGradient id="paint4_linear_225_1708" x1="137.39" y1="220.329" x2="137.39" y2="287.997" gradientUnits="userSpaceOnUse">
            <stop stop-color="#23D5D5"/>
            <stop offset="1" stop-color="#236AD5"/>
        </linearGradient>
        <linearGradient id="paint5_linear_225_1708" x1="99.3274" y1="269.857" x2="170.171" y2="181.505" gradientUnits="userSpaceOnUse">
            <stop stop-color="#1A4C97"/>
            <stop offset="1" stop-color="#019FE3"/>
        </linearGradient>
        <linearGradient id="paint6_linear_225_1708" x1="117.808" y1="169.509" x2="78.9012" y2="236.299" gradientUnits="userSpaceOnUse">
            <stop stop-color="#23D5D5"/>
            <stop offset="1" stop-color="#236AD5"/>
        </linearGradient>
        <linearGradient id="paint7_linear_225_1708" x1="169.054" y1="245.76" x2="169.054" y2="290.105" gradientUnits="userSpaceOnUse">
            <stop stop-color="#FE7A00"/>
            <stop offset="1" stop-color="#FE3D00"/>
        </linearGradient>
        <linearGradient id="paint8_linear_225_1708" x1="107.339" y1="271.983" x2="187.569" y2="238.293" gradientUnits="userSpaceOnUse">
            <stop offset="0.0910577" stop-color="#FE7A00"/>
            <stop offset="1" stop-color="#FFD600"/>
        </linearGradient>
        <linearGradient id="paint9_linear_225_1708" x1="174.838" y1="170.643" x2="174.838" y2="235.167" gradientUnits="userSpaceOnUse">
            <stop stop-color="#FFD600"/>
            <stop offset="1" stop-color="#FE7A00"/>
        </linearGradient>
        <linearGradient id="paint10_linear_225_1708" x1="158.308" y1="176.945" x2="158.308" y2="234.646" gradientUnits="userSpaceOnUse">
            <stop stop-color="#FE7A00"/>
            <stop offset="1" stop-color="#FE3D00"/>
        </linearGradient>
        <linearGradient id="paint11_linear_225_1708" x1="140.073" y1="257.569" x2="140.073" y2="277.54" gradientUnits="userSpaceOnUse">
            <stop stop-color="#FE3D00"/>
            <stop offset="1" stop-color="#FE7A00"/>
        </linearGradient>
    </defs>
</svg>
