<svg width="181" height="218" viewBox="0 0 181 218" fill="none" xmlns="http://www.w3.org/2000/svg">
    <path d="M153.532 65.0888C153.532 101.036 124.441 130.178 88.555 130.178C52.669 130.178 23.5776 101.036 23.5776 65.0888C23.5776 29.1412 52.669 0 88.555 0C124.441 0 153.532 29.1412 153.532 65.0888Z" fill="url(#paint0_linear_142_32)"/>
    <path d="M73.4343 128.684C74.6792 136.166 72.2183 139.473 72.2183 139.473C104.702 129.38 125.199 100.147 113.561 60.8224C113.561 60.8224 74.824 80.1369 71.0024 99.1034C67.1808 118.07 72.1894 121.202 73.4343 128.684Z" fill="url(#paint1_linear_142_32)"/>
    <path d="M65.1481 41.3227C76.9985 23.234 70.7911 1.7536 70.7911 1.7536C35.2399 14.378 20.0036 43.0185 24.8943 79.3844C24.8943 79.3844 53.2976 59.4114 65.1481 41.3227Z" fill="url(#paint2_linear_142_32)"/>
    <path d="M96.6426 77.0078C110.344 78.017 124.852 69.3378 124.852 69.3378C104.299 69.3378 94.033 67.7701 82.1349 60.4568C82.1349 60.4568 82.9409 75.9985 96.6426 77.0078Z" fill="#FE3D00"/>
    <path d="M62.9929 147.854C57.6153 137.9 60.1696 133.986 67.6273 127.872H70.2467C70.2467 127.872 67.6273 132.716 67.6273 135.542C67.6273 138.367 68.6348 139.377 67.6273 142.001C66.6198 144.624 62.9929 147.854 62.9929 147.854Z" fill="#FE3D00"/>
    <path d="M85.7619 143.165C74.4903 143.946 70.6496 139.377 69.2392 128.275H71.6571C71.6571 128.275 73.9261 132.67 76.4937 133.84C79.0613 135.011 80.3956 134.51 82.3626 136.515C84.3296 138.521 85.7619 143.165 85.7619 143.165Z" fill="#FE3D00"/>
    <path d="M126.867 143.414C112.359 151.689 90.5977 146.643 80.9259 129.487L92.8142 128.276C97.3837 139.619 107.613 141.207 126.867 143.414Z" fill="#FFD600"/>
    <path d="M108.329 80.2371C129.487 68.7321 137.748 75.7966 137.748 75.7966C137.748 75.7966 133.315 61.0622 108.329 71.1543C83.344 81.2464 73.4706 76.604 73.4706 76.604C73.4706 76.604 87.1724 91.7421 108.329 80.2371Z" fill="#FFD600"/>
    <path d="M139.158 132.716C133.113 143.212 106.919 142.001 97.65 127.67C117.587 119.904 126.126 112.606 139.158 88.1089C139.158 88.1089 143.994 92.7513 145.203 101.632C146.412 110.513 140.166 115.963 140.166 115.963C140.166 115.963 145.203 122.22 139.158 132.716Z" fill="url(#paint3_linear_142_32)"/>
    <path d="M87.3738 90.3292C73.7694 95.9117 52.5028 111.663 50.097 110.917C50.097 110.917 48.6866 124.642 69.8436 129.487C91.0007 134.331 106.516 126.661 112.762 123.633C119.009 120.605 142.785 102.036 142.785 76.2003C138.352 87.7053 103.292 83.7974 87.3738 90.3292Z" fill="url(#paint4_linear_142_32)"/>
    <path d="M125.054 10.4C118.807 9.43739 107.523 -4.13255 102.688 2.73005C97.8516 9.59266 148.427 14.4369 143.994 75.7966C143.994 75.7966 154.069 63.2824 154.069 53.9977C154.069 44.713 147.621 41.6854 147.621 38.8597C147.621 36.0339 156.89 19.6848 147.621 10.4C138.352 1.11527 131.3 11.3626 125.054 10.4Z" fill="url(#paint5_linear_142_32)"/>
    <path d="M142.785 75.1909C147.218 32.8043 92.6128 -3.1235 79.5155 11.4091C66.4183 25.9417 86.1649 36.2356 86.1649 36.2356C86.1649 36.2356 82.538 55.6123 94.8293 61.8694C107.121 68.1265 130.494 54.6031 142.785 75.1909Z" fill="url(#paint6_linear_142_32)"/>
    <path d="M87.1722 125.046C91.8286 113.431 91.1489 108.301 83.5453 101.834C83.5453 101.834 92.2096 105.669 92.2096 112.128C92.2096 118.587 87.1722 125.046 87.1722 125.046Z" fill="url(#paint7_linear_142_32)"/>
    <path d="M0.0131059 189.506C0.12572 185.93 0.829557 182.86 2.12462 180.297C3.44783 177.706 5.24965 175.946 7.53009 175.017C9.81052 174.059 12.5133 174.186 15.6383 175.397C14.4558 175.566 13.386 175.904 12.4288 176.411C11.4997 176.89 10.7255 177.439 10.1061 178.058C9.48676 178.65 8.95184 179.396 8.50138 180.297C8.05093 181.198 7.71308 182.015 7.48786 182.747C7.26263 183.48 7.06556 184.367 6.89663 185.409C6.75587 186.423 6.67141 187.211 6.64325 187.774C6.6151 188.31 6.58695 188.985 6.55879 189.802C6.41803 192.956 6.74179 195.674 7.53009 197.955C8.31839 200.208 9.58529 201.405 11.3308 201.546C13.02 201.687 14.3573 200.828 15.3427 198.969C16.3281 197.11 16.863 194.196 16.9474 190.225C17.0037 187.155 16.5251 184.55 15.5116 182.409C14.4981 180.269 12.9919 178.889 10.993 178.27C11.8657 177.875 12.7807 177.664 13.7379 177.636C14.6952 177.608 15.6383 177.749 16.5674 178.058C17.4964 178.34 18.3833 178.847 19.2279 179.579C20.0725 180.311 20.8045 181.198 21.4238 182.24C22.0714 183.254 22.564 184.522 22.9019 186.042C23.2679 187.563 23.4227 189.225 23.3664 191.027C23.2257 196.125 22.0291 199.941 19.7769 202.475C17.5527 204.982 14.6529 206.249 11.0774 206.277C8.59992 206.277 6.48841 205.447 4.74289 203.785C2.99738 202.123 1.74455 200.053 0.984401 197.575C0.252411 195.097 -0.0713545 192.407 0.0131059 189.506Z" fill="black"/>
    <path d="M24.3793 171.426C26.7723 171.708 28.8557 171.708 30.6294 171.426C30.4041 172.919 30.2915 177.312 30.2915 184.606C30.3197 191.872 30.4041 196.505 30.5449 198.504C30.7701 201.321 31.9385 203.32 34.05 204.503C33.2054 205.63 32.037 206.249 30.5449 206.362C29.0809 206.474 27.9126 206.151 27.0398 205.39C25.6603 204.32 24.9283 202.166 24.8438 198.927C24.7875 196.899 24.7453 193.66 24.7171 189.211C24.7171 184.733 24.689 180.861 24.6327 177.594C24.6045 174.327 24.5201 172.271 24.3793 171.426Z" fill="black"/>
    <path d="M45.1143 182.916C44.5231 182.832 43.7489 182.79 42.7917 182.79C42.6227 189.718 42.6227 195.111 42.7917 198.969C42.8761 200.349 43.3547 201.461 44.2275 202.306C45.1284 203.123 46.1701 203.447 47.3525 203.278C46.7895 204.292 45.9449 205.038 44.8187 205.517C43.6926 206.024 42.5664 206.207 41.4403 206.066C40.3142 205.953 39.3006 205.39 38.3997 204.376C37.527 203.334 37.0624 201.926 37.0061 200.152C36.978 198.856 36.978 197.279 37.0061 195.421C37.0343 193.534 37.0906 191.295 37.175 188.704C37.2595 186.113 37.3158 184.226 37.344 183.043C34.8665 183.325 33.4869 183.494 33.2054 183.55C33.6559 183.128 34.2471 182.424 34.9791 181.438C35.7111 180.452 36.1756 179.861 36.3727 179.664C36.8794 179.607 37.2314 179.579 37.4284 179.579C37.4284 177.073 37.358 175.312 37.2173 174.299C40.0045 172.243 42.2427 170.243 43.9319 168.3C43.5096 169.652 43.1717 173.243 42.9184 179.072C44.4105 178.903 46.4657 178.523 49.084 177.932C48.2394 178.692 47.437 179.579 46.6768 180.593C45.9167 181.579 45.3959 182.353 45.1143 182.916Z" fill="black"/>
    <path d="M48.6326 183.846C51.2228 184.071 53.4328 184.071 55.2628 183.846C55.0376 185.395 54.9249 187.662 54.9249 190.647C54.9531 193.604 55.0376 196.125 55.1783 198.209C55.4035 201.166 56.6423 203.264 58.8946 204.503C58.3034 205.292 57.5291 205.841 56.5719 206.151C55.6147 206.489 54.6856 206.573 53.7847 206.404C52.8838 206.263 52.1096 205.939 51.4621 205.432C49.9981 204.306 49.2239 202.053 49.1394 198.673C49.0831 196.561 49.0409 194.322 49.0127 191.957C49.0127 189.591 48.9846 187.873 48.9283 186.803C48.9001 185.733 48.8016 184.747 48.6326 183.846ZM51.9688 171.891C53.095 171.891 53.8692 172.313 54.2915 173.158C54.7138 174.003 54.8968 174.96 54.8405 176.031C54.7842 177.129 54.5167 178.101 54.0381 178.945C53.5877 179.762 52.912 180.171 52.0111 180.171C50.9975 180.171 50.2655 179.734 49.8151 178.861C49.3646 177.96 49.1535 176.918 49.1816 175.735C49.2098 174.637 49.4491 173.721 49.8995 172.989C50.35 172.257 51.0398 171.891 51.9688 171.891Z" fill="black"/>
    <path d="M75.2268 202.729C75.5083 204.165 76.0996 205.193 77.0005 205.813C77.9014 206.432 79.1542 206.798 80.759 206.911C79.4639 208.206 77.9718 208.939 76.2826 209.108C74.5933 209.305 73.1153 208.911 71.8484 207.925C70.6096 206.939 69.9199 205.545 69.7791 203.743C69.7228 203.01 69.6946 202.011 69.6946 200.743C69.6946 199.448 69.7087 197.857 69.7369 195.97C69.765 194.083 69.7791 192.633 69.7791 191.619C69.7791 190.013 69.3286 189.169 68.4277 189.084C67.6394 189.028 66.8934 189.563 66.1895 190.689C65.6265 191.59 65.3308 192.632 65.3027 193.815C65.1901 199.814 65.359 203.574 65.8095 205.094C63.6416 204.841 61.4879 204.897 59.3482 205.263C59.7987 202.25 60.0661 198.547 60.1506 194.153C60.2351 189.732 59.9676 186.057 59.3482 183.128C61.0374 183.466 63.2193 183.466 65.8939 183.128C65.6405 184.423 65.4716 186.197 65.3872 188.45C65.9784 186.845 66.8089 185.592 67.8787 184.691C68.9486 183.761 69.9902 183.283 71.0038 183.254C72.0455 183.226 72.9745 183.691 73.791 184.648C74.6356 185.606 75.1142 186.972 75.2268 188.746C75.2831 189.535 75.2268 191.872 75.0579 195.759C74.889 199.645 74.9453 201.968 75.2268 202.729Z" fill="black"/>
    <path d="M108.666 188.662C111.031 188.943 113.016 190.182 114.62 192.379C116.225 194.548 116.971 196.941 116.859 199.561C116.774 201.616 116.31 203.447 115.465 205.052C114.62 206.658 113.565 207.897 112.298 208.77C111.059 209.643 109.679 210.262 108.159 210.628C106.639 210.995 105.175 211.051 103.767 210.797C102.359 210.544 101.05 209.995 99.8398 209.15C98.6292 208.305 97.7142 207.221 97.0948 205.897C101.149 207.502 104.33 207.643 106.639 206.32C108.947 204.996 110.13 202.475 110.186 198.758C110.242 196.251 109.44 194.125 107.779 192.379C106.146 190.633 103.781 189.675 100.684 189.506C102.599 188.915 104.232 188.014 105.583 186.803C106.934 185.564 107.554 184.085 107.441 182.367C107.357 181.044 106.906 180.072 106.09 179.452C105.302 178.833 104.232 178.622 102.88 178.819C100.769 179.072 99.699 180.748 99.6708 183.846C99.6708 185.704 99.8116 189.535 100.093 195.336C100.375 201.109 100.614 204.475 100.811 205.432C99.7694 205.179 98.5447 205.08 97.137 205.137C95.7294 205.193 94.4906 205.334 93.4208 205.559C93.8431 203.588 94.0261 198.702 93.9698 190.9C93.9416 183.099 93.7586 178.129 93.4208 175.988C95.8983 176.186 98.5165 176.031 101.276 175.524C104.795 174.904 107.526 175.129 109.468 176.2C111.411 177.27 112.481 179.058 112.678 181.565C112.762 182.945 112.453 184.367 111.749 185.831C111.073 187.296 110.045 188.239 108.666 188.662Z" fill="black"/>
    <path d="M135.591 189.718C135.479 190.619 135.38 191.478 135.296 192.295C135.239 193.083 135.169 194.21 135.085 195.674C135 197.11 135.014 198.42 135.127 199.603C135.239 200.786 135.408 201.968 135.634 203.151C135.887 204.334 136.309 205.306 136.9 206.066C137.52 206.826 138.266 207.277 139.139 207.418C138.547 207.953 137.829 208.39 136.985 208.727C136.14 209.065 135.282 209.248 134.409 209.277C133.536 209.333 132.706 209.079 131.917 208.516C131.129 207.953 130.566 207.094 130.228 205.939C130.003 205.235 129.848 204.25 129.764 202.982C128.666 204.954 126.92 205.939 124.527 205.939C123.795 205.939 123.063 205.784 122.331 205.475C121.599 205.165 120.839 204.644 120.051 203.912C119.262 203.179 118.615 202.067 118.108 200.574C117.629 199.054 117.39 197.265 117.39 195.209C117.39 193.294 117.629 191.605 118.108 190.14C118.615 188.676 119.276 187.535 120.093 186.718C120.937 185.902 121.796 185.296 122.669 184.902C123.542 184.479 124.443 184.212 125.372 184.099C127.061 183.902 128.468 184.339 129.595 185.409C130.749 186.451 131.199 187.662 130.946 189.042C130.664 188.676 130.228 188.394 129.637 188.197C129.046 188 128.384 187.958 127.652 188.07C126.948 188.183 126.258 188.464 125.583 188.915C124.907 189.337 124.33 190.112 123.851 191.238C123.373 192.365 123.119 193.745 123.091 195.378C123.063 196.336 123.162 197.307 123.387 198.293C123.64 199.279 124.062 200.138 124.654 200.87C125.273 201.602 126.005 201.94 126.85 201.884C127.525 201.856 128.102 201.447 128.581 200.659C129.088 199.87 129.426 198.856 129.595 197.617C129.651 193.618 129.609 190.999 129.468 189.76C131.72 189.957 133.761 189.943 135.591 189.718Z" fill="black"/>
    <path d="M138.368 171.426C140.761 171.708 142.844 171.708 144.618 171.426C144.393 172.919 144.28 177.312 144.28 184.606C144.308 191.872 144.393 196.505 144.534 198.504C144.759 201.321 145.927 203.32 148.039 204.503C147.194 205.63 146.026 206.249 144.534 206.362C143.07 206.474 141.901 206.151 141.028 205.39C139.649 204.32 138.917 202.166 138.832 198.927C138.776 196.899 138.734 193.66 138.706 189.211C138.706 184.733 138.678 180.861 138.621 177.594C138.593 174.327 138.509 172.271 138.368 171.426Z" fill="black"/>
    <path d="M148.187 183.846C150.777 184.071 152.987 184.071 154.817 183.846C154.592 185.395 154.479 187.662 154.479 190.647C154.508 193.604 154.592 196.125 154.733 198.209C154.958 201.166 156.197 203.264 158.449 204.503C157.858 205.292 157.084 205.841 156.126 206.151C155.169 206.489 154.24 206.573 153.339 206.404C152.438 206.263 151.664 205.939 151.017 205.432C149.553 204.306 148.778 202.053 148.694 198.673C148.638 196.561 148.595 194.322 148.567 191.957C148.567 189.591 148.539 187.873 148.483 186.803C148.455 185.733 148.356 184.747 148.187 183.846ZM151.523 171.891C152.649 171.891 153.424 172.313 153.846 173.158C154.268 174.003 154.451 174.96 154.395 176.031C154.339 177.129 154.071 178.101 153.593 178.945C153.142 179.762 152.466 180.171 151.566 180.171C150.552 180.171 149.82 179.734 149.37 178.861C148.919 177.96 148.708 176.918 148.736 175.735C148.764 174.637 149.004 173.721 149.454 172.989C149.904 172.257 150.594 171.891 151.523 171.891Z" fill="black"/>
    <path d="M177.284 209.53C177.453 211.389 177.776 212.811 178.255 213.797C178.762 214.782 179.677 215.543 181 216.078C180.099 217.233 178.86 217.866 177.284 217.979C175.707 218.092 174.468 217.754 173.567 216.965C172.103 215.839 171.329 213.586 171.245 210.206C171.189 208.544 171.16 206.066 171.16 202.771C170.288 204.602 168.894 205.615 166.98 205.813C164.755 206.01 162.728 205.123 160.898 203.151C159.097 201.18 158.182 198.448 158.153 194.956C158.153 191.041 159.083 188.112 160.941 186.169C162.827 184.198 165.037 183.212 167.571 183.212C169.232 183.212 170.513 183.606 171.414 184.395C172.315 185.155 172.821 186.225 172.934 187.605C171.526 186.197 170.161 185.606 168.838 185.831C168.021 185.944 167.317 186.338 166.726 187.014C166.163 187.662 165.741 188.493 165.459 189.506C165.206 190.492 165.023 191.422 164.91 192.295C164.798 193.139 164.741 194.012 164.741 194.914C164.713 195.759 164.727 196.547 164.784 197.279C164.84 198.012 164.953 198.856 165.121 199.814C165.318 200.743 165.656 201.49 166.135 202.053C166.642 202.588 167.275 202.841 168.035 202.813C168.993 202.785 169.739 202.095 170.274 200.743C170.808 199.363 171.104 197.688 171.16 195.716C171.132 195.294 171.118 194.688 171.118 193.9C171.062 191.9 170.963 190.492 170.823 189.675C173.272 189.929 175.397 189.929 177.199 189.675C176.974 191.365 176.89 194.548 176.946 199.223C177.002 203.898 177.115 207.333 177.284 209.53Z" fill="black"/>
    <defs>
        <linearGradient id="paint0_linear_142_32" x1="35.5723" y1="197.523" x2="176.525" y2="51.5705" gradientUnits="userSpaceOnUse">
            <stop stop-color="#1A4C97"/>
            <stop offset="1" stop-color="#019FE3"/>
        </linearGradient>
        <linearGradient id="paint1_linear_142_32" x1="90.8902" y1="0" x2="90.8902" y2="218" gradientUnits="userSpaceOnUse">
            <stop stop-color="#23D5D5"/>
            <stop offset="1" stop-color="#236AD5"/>
        </linearGradient>
        <linearGradient id="paint2_linear_142_32" x1="65.4966" y1="2.74094" x2="-8.9854" y2="116.481" gradientUnits="userSpaceOnUse">
            <stop stop-color="#23D5D5"/>
            <stop offset="1" stop-color="#236AD5"/>
        </linearGradient>
        <linearGradient id="paint3_linear_142_32" x1="90.5" y1="0" x2="90.5" y2="218" gradientUnits="userSpaceOnUse">
            <stop stop-color="#FE7A00"/>
            <stop offset="1" stop-color="#FE3D00"/>
        </linearGradient>
        <linearGradient id="paint4_linear_142_32" x1="-0.355278" y1="168.461" x2="204.743" y2="126.226" gradientUnits="userSpaceOnUse">
            <stop offset="0.0910577" stop-color="#FE7A00"/>
            <stop offset="1" stop-color="#FFD600"/>
        </linearGradient>
        <linearGradient id="paint5_linear_142_32" x1="90.5" y1="0" x2="90.5" y2="218" gradientUnits="userSpaceOnUse">
            <stop stop-color="#FFD600"/>
            <stop offset="1" stop-color="#FE7A00"/>
        </linearGradient>
        <linearGradient id="paint6_linear_142_32" x1="90.5" y1="0" x2="90.5" y2="218" gradientUnits="userSpaceOnUse">
            <stop stop-color="#FE7A00"/>
            <stop offset="1" stop-color="#FE3D00"/>
        </linearGradient>
        <linearGradient id="paint7_linear_142_32" x1="89.1881" y1="150.147" x2="89.1881" y2="184.371" gradientUnits="userSpaceOnUse">
            <stop stop-color="#FE3D00"/>
            <stop offset="1" stop-color="#FE7A00"/>
        </linearGradient>
    </defs>
</svg>
