<svg width="95" height="107" viewBox="0 0 95 107" fill="none" xmlns="http://www.w3.org/2000/svg">
    <path d="M94.6094 47.1039C94.6094 73.1187 73.4303 94.2078 47.3047 94.2078C21.179 94.2078 0 73.1187 0 47.1039C0 21.0891 21.179 0 47.3047 0C73.4303 0 94.6094 21.0891 94.6094 47.1039Z" fill="url(#paint0_linear_160_384)"/>
    <path d="M36.2966 93.1271C37.2029 98.5419 35.4113 100.934 35.4113 100.934C59.0596 93.6308 73.9821 72.4754 65.5092 44.0164C65.5092 44.0164 37.3083 57.9941 34.5261 71.7199C31.7439 85.4457 35.3902 87.7124 36.2966 93.1271Z" fill="url(#paint1_linear_160_384)"/>
    <path d="M30.264 29.9047C38.8913 16.8141 34.3723 1.26906 34.3723 1.26906C8.49036 10.4052 -2.60189 31.1319 0.958583 57.4495C0.958583 57.4495 21.6367 42.9953 30.264 29.9047Z" fill="url(#paint2_linear_160_384)"/>
    <path d="M53.1926 55.7295C63.1677 56.4599 73.7296 50.1789 73.7296 50.1789C58.7669 50.1789 51.2928 49.0444 42.6307 43.7518C42.6307 43.7518 43.2175 54.9992 53.1926 55.7295Z" fill="#FE3D00"/>
    <path d="M28.695 107C24.78 99.7966 26.6396 96.9637 32.0689 92.5391H33.9759C33.9759 92.5391 32.0689 96.0448 32.0689 98.0897C32.0689 100.135 32.8024 100.865 32.0689 102.764C31.3355 104.663 28.695 107 28.695 107Z" fill="#FE3D00"/>
    <path d="M45.2712 103.607C37.0653 104.172 34.2693 100.865 33.2424 92.8312H35.0027C35.0027 92.8312 36.6546 96.0115 38.5239 96.8585C40.3931 97.7054 41.3645 97.3431 42.7965 98.7943C44.2285 100.246 45.2712 103.607 45.2712 103.607Z" fill="#FE3D00"/>
    <path d="M75.1965 103.787C64.6346 109.775 48.7918 106.124 41.7506 93.7078L50.4055 92.8314C53.7321 101.04 61.1795 102.19 75.1965 103.787Z" fill="#FFD600"/>
    <path d="M61.7008 58.0666C77.1036 49.7406 83.1179 54.8531 83.1179 54.8531C83.1179 54.8531 79.8907 44.19 61.7008 51.4935C43.511 58.797 36.323 55.4374 36.323 55.4374C36.323 55.4374 46.2981 66.3926 61.7008 58.0666Z" fill="#FFD600"/>
    <path d="M84.1447 96.0448C79.7439 103.64 60.6739 102.764 53.926 92.3931C68.4406 86.7727 74.6571 81.4912 84.1447 63.7633C84.1447 63.7633 87.6653 67.1229 88.5455 73.55C89.4256 79.9771 84.8781 83.921 84.8781 83.921C84.8781 83.921 88.5454 88.4492 84.1447 96.0448Z" fill="url(#paint3_linear_160_384)"/>
    <path d="M46.4448 65.3701C36.5405 69.4101 21.058 80.8092 19.3066 80.2693C19.3066 80.2693 18.2798 90.2021 33.6825 93.7078C49.0852 97.2134 60.3805 91.6627 64.928 89.4717C69.4755 87.2806 86.7852 73.8422 86.7852 55.1452C83.558 63.4712 58.0335 60.6431 46.4448 65.3701Z" fill="url(#paint4_linear_160_384)"/>
    <path d="M73.8763 7.52636C69.3288 6.82972 61.114 -2.99067 57.5934 1.9757C54.0728 6.94208 90.8926 10.4478 87.6654 54.8531C87.6654 54.8531 95 45.7967 95 39.0775C95 32.3583 90.3058 30.1672 90.3059 28.1222C90.3059 26.0773 97.0537 14.2456 90.3059 7.52636C83.558 0.807106 78.4237 8.22301 73.8763 7.52636Z" fill="url(#paint5_linear_160_384)"/>
    <path d="M86.7853 54.4147C90.0125 23.74 50.2588 -2.26044 40.7238 8.25661C31.1888 18.7737 45.5647 26.2232 45.5647 26.2232C45.5647 26.2232 42.9242 40.2459 51.8725 44.7741C60.8207 49.3023 77.837 39.5156 86.7853 54.4147Z" fill="url(#paint6_linear_160_384)"/>
    <path d="M46.298 90.4941C49.6879 82.0886 49.1931 78.3759 43.6576 73.6961C43.6576 73.6961 49.9653 76.4714 49.9653 81.1457C49.9653 85.8199 46.298 90.4941 46.298 90.4941Z" fill="url(#paint7_linear_160_384)"/>
    <defs>
        <linearGradient id="paint0_linear_160_384" x1="18.6705" y1="96.9494" x2="87.5381" y2="20.6942" gradientUnits="userSpaceOnUse">
            <stop stop-color="#1A4C97"/>
            <stop offset="1" stop-color="#019FE3"/>
        </linearGradient>
        <linearGradient id="paint1_linear_160_384" x1="47.7048" y1="0" x2="47.7048" y2="107" gradientUnits="userSpaceOnUse">
            <stop stop-color="#23D5D5"/>
            <stop offset="1" stop-color="#236AD5"/>
        </linearGradient>
        <linearGradient id="paint2_linear_160_384" x1="34.3767" y1="1.34532" x2="-1.14828" y2="59.3566" gradientUnits="userSpaceOnUse">
            <stop stop-color="#23D5D5"/>
            <stop offset="1" stop-color="#236AD5"/>
        </linearGradient>
        <linearGradient id="paint3_linear_160_384" x1="47.5" y1="0" x2="47.5" y2="107" gradientUnits="userSpaceOnUse">
            <stop stop-color="#FE7A00"/>
            <stop offset="1" stop-color="#FE3D00"/>
        </linearGradient>
        <linearGradient id="paint4_linear_160_384" x1="-0.186472" y1="82.6848" x2="106.837" y2="59.1176" gradientUnits="userSpaceOnUse">
            <stop offset="0.0910577" stop-color="#FE7A00"/>
            <stop offset="1" stop-color="#FFD600"/>
        </linearGradient>
        <linearGradient id="paint5_linear_160_384" x1="47.5" y1="0" x2="47.5" y2="107" gradientUnits="userSpaceOnUse">
            <stop stop-color="#FFD600"/>
            <stop offset="1" stop-color="#FE7A00"/>
        </linearGradient>
        <linearGradient id="paint6_linear_160_384" x1="47.5" y1="0" x2="47.5" y2="107" gradientUnits="userSpaceOnUse">
            <stop stop-color="#FE7A00"/>
            <stop offset="1" stop-color="#FE3D00"/>
        </linearGradient>
        <linearGradient id="paint7_linear_160_384" x1="46.8115" y1="73.6961" x2="46.8115" y2="90.4941" gradientUnits="userSpaceOnUse">
            <stop stop-color="#FE3D00"/>
            <stop offset="1" stop-color="#FE7A00"/>
        </linearGradient>
    </defs>
</svg>
